<mxfile host="app.diagrams.net" agent="Mozilla/5.0 (Windows NT 10.0; Win64; x64) AppleWebKit/537.36 (KHTML, like Gecko) Chrome/131.0.0.0 Safari/537.36" version="25.0.3" pages="2">
  <diagram name="Page-1" id="e7e014a7-5840-1c2e-5031-d8a46d1fe8dd">
    <mxGraphModel dx="1411" dy="863" grid="1" gridSize="10" guides="1" tooltips="1" connect="1" arrows="1" fold="1" page="1" pageScale="1" pageWidth="1169" pageHeight="826" background="none" math="0" shadow="0">
      <root>
        <mxCell id="0" />
        <mxCell id="1" parent="0" />
        <mxCell id="2" value="Sender" style="swimlane;whiteSpace=wrap" parent="1" vertex="1">
          <mxGeometry x="164.5" y="128" width="280" height="570" as="geometry" />
        </mxCell>
        <mxCell id="5" value="" style="ellipse;shape=startState;fillColor=#000000;strokeColor=#ff0000;" parent="2" vertex="1">
          <mxGeometry x="100" y="40" width="30" height="30" as="geometry" />
        </mxCell>
        <mxCell id="6" value="" style="edgeStyle=elbowEdgeStyle;elbow=horizontal;verticalAlign=bottom;endArrow=open;endSize=8;strokeColor=#FF0000;endFill=1;rounded=0" parent="2" source="5" target="7" edge="1">
          <mxGeometry x="100" y="40" as="geometry">
            <mxPoint x="115" y="110" as="targetPoint" />
          </mxGeometry>
        </mxCell>
        <mxCell id="7" value="GenerateÂ &#xa;AES-256 Key" style="" parent="2" vertex="1">
          <mxGeometry x="60" y="110" width="110" height="50" as="geometry" />
        </mxCell>
        <mxCell id="8" value="user action" style="" parent="2" vertex="1">
          <mxGeometry x="60" y="220" width="110" height="50" as="geometry" />
        </mxCell>
        <mxCell id="9" value="" style="endArrow=open;strokeColor=#FF0000;endFill=1;rounded=0" parent="2" source="7" target="8" edge="1">
          <mxGeometry relative="1" as="geometry" />
        </mxCell>
        <mxCell id="10" value="post command" style="" parent="2" vertex="1">
          <mxGeometry x="60" y="325" width="110" height="50" as="geometry" />
        </mxCell>
        <mxCell id="11" value="" style="endArrow=open;strokeColor=#FF0000;endFill=1;rounded=0" parent="2" source="8" target="10" edge="1">
          <mxGeometry relative="1" as="geometry" />
        </mxCell>
        <mxCell id="12" value="" style="edgeStyle=elbowEdgeStyle;elbow=horizontal;strokeColor=#FF0000;endArrow=open;endFill=1;rounded=0" parent="2" source="10" target="7" edge="1">
          <mxGeometry width="100" height="100" relative="1" as="geometry">
            <mxPoint x="160" y="290" as="sourcePoint" />
            <mxPoint x="260" y="190" as="targetPoint" />
            <Array as="points">
              <mxPoint x="30" y="250" />
            </Array>
          </mxGeometry>
        </mxCell>
        <mxCell id="3" value="Thread 2" style="swimlane;whiteSpace=wrap" parent="1" vertex="1">
          <mxGeometry x="444.5" y="128" width="280" height="570" as="geometry" />
        </mxCell>
        <mxCell id="13" value="" style="ellipse;shape=startState;fillColor=#000000;strokeColor=#ff0000;" parent="3" vertex="1">
          <mxGeometry x="60" y="40" width="30" height="30" as="geometry" />
        </mxCell>
        <mxCell id="14" value="" style="edgeStyle=elbowEdgeStyle;elbow=horizontal;verticalAlign=bottom;endArrow=open;endSize=8;strokeColor=#FF0000;endFill=1;rounded=0" parent="3" source="13" target="15" edge="1">
          <mxGeometry x="40" y="20" as="geometry">
            <mxPoint x="55" y="90" as="targetPoint" />
          </mxGeometry>
        </mxCell>
        <mxCell id="15" value="idle" style="" parent="3" vertex="1">
          <mxGeometry x="20" y="110" width="110" height="50" as="geometry" />
        </mxCell>
        <mxCell id="16" value="check for &#xa;new commands" style="" parent="3" vertex="1">
          <mxGeometry x="20" y="220" width="110" height="50" as="geometry" />
        </mxCell>
        <mxCell id="17" value="" style="endArrow=open;strokeColor=#FF0000;endFill=1;rounded=0" parent="3" source="15" target="16" edge="1">
          <mxGeometry relative="1" as="geometry" />
        </mxCell>
        <mxCell id="18" value="command queue" style="" parent="3" vertex="1">
          <mxGeometry x="20" y="325" width="110" height="50" as="geometry" />
        </mxCell>
        <mxCell id="19" value="" style="endArrow=open;strokeColor=#FF0000;endFill=1;rounded=0" parent="3" source="16" target="18" edge="1">
          <mxGeometry relative="1" as="geometry" />
        </mxCell>
        <mxCell id="21" value="queue empty" style="rhombus;fillColor=#ffffc0;strokeColor=#ff0000;" parent="3" vertex="1">
          <mxGeometry x="150" y="225" width="80" height="40" as="geometry" />
        </mxCell>
        <mxCell id="22" value="yes" style="edgeStyle=elbowEdgeStyle;elbow=horizontal;align=left;verticalAlign=bottom;endArrow=open;endSize=8;strokeColor=#FF0000;exitX=0.5;exitY=0;endFill=1;rounded=0;entryX=0.75;entryY=0.5;entryPerimeter=0" parent="3" source="21" target="25" edge="1">
          <mxGeometry x="-1" relative="1" as="geometry">
            <mxPoint x="160" y="150" as="targetPoint" />
            <Array as="points">
              <mxPoint x="190" y="180" />
            </Array>
          </mxGeometry>
        </mxCell>
        <mxCell id="23" value="no" style="edgeStyle=elbowEdgeStyle;elbow=horizontal;align=left;verticalAlign=top;endArrow=open;endSize=8;strokeColor=#FF0000;endFill=1;rounded=0" parent="3" source="21" target="30" edge="1">
          <mxGeometry x="-1" relative="1" as="geometry">
            <mxPoint x="190" y="305" as="targetPoint" />
          </mxGeometry>
        </mxCell>
        <mxCell id="24" value="" style="endArrow=open;strokeColor=#FF0000;endFill=1;rounded=0" parent="3" source="16" target="21" edge="1">
          <mxGeometry relative="1" as="geometry" />
        </mxCell>
        <mxCell id="25" value="" style="shape=line;strokeWidth=6;strokeColor=#ff0000;rotation=90" parent="3" vertex="1">
          <mxGeometry x="130" y="127.5" width="50" height="15" as="geometry" />
        </mxCell>
        <mxCell id="26" value="" style="edgeStyle=elbowEdgeStyle;elbow=horizontal;verticalAlign=bottom;endArrow=open;endSize=8;strokeColor=#FF0000;endFill=1;rounded=0" parent="3" source="25" target="15" edge="1">
          <mxGeometry x="130" y="90" as="geometry">
            <mxPoint x="230" y="140" as="targetPoint" />
          </mxGeometry>
        </mxCell>
        <mxCell id="30" value="dispatch&#xa;command&#xa;worker thread" style="" parent="3" vertex="1">
          <mxGeometry x="140" y="325" width="110" height="50" as="geometry" />
        </mxCell>
        <mxCell id="31" value="critical&#xa;section" style="shape=note;whiteSpace=wrap;size=17" parent="3" vertex="1">
          <mxGeometry x="105" y="490" width="100" height="50" as="geometry" />
        </mxCell>
        <mxCell id="32" value="" style="endArrow=none;strokeColor=#FF0000;endFill=0;rounded=0;dashed=1" parent="3" source="18" target="31" edge="1">
          <mxGeometry relative="1" as="geometry" />
        </mxCell>
        <mxCell id="34" value="" style="whiteSpace=wrap;strokeColor=#FF0000;fillColor=#FF0000" parent="3" vertex="1">
          <mxGeometry x="245" y="395" width="5" height="45" as="geometry" />
        </mxCell>
        <mxCell id="41" value="" style="edgeStyle=elbowEdgeStyle;elbow=horizontal;entryX=0;entryY=0.5;strokeColor=#FF0000;endArrow=open;endFill=1;rounded=0" parent="3" source="30" target="34" edge="1">
          <mxGeometry width="100" height="100" relative="1" as="geometry">
            <mxPoint x="60" y="480" as="sourcePoint" />
            <mxPoint x="160" y="380" as="targetPoint" />
            <Array as="points">
              <mxPoint x="195" y="400" />
            </Array>
          </mxGeometry>
        </mxCell>
        <mxCell id="4" value="Thread 3" style="swimlane;whiteSpace=wrap" parent="1" vertex="1">
          <mxGeometry x="724.5" y="128" width="280" height="570" as="geometry" />
        </mxCell>
        <mxCell id="33" value="process&#xa;command" style="" parent="4" vertex="1">
          <mxGeometry x="90" y="405" width="110" height="50" as="geometry" />
        </mxCell>
        <mxCell id="35" value="" style="edgeStyle=elbowEdgeStyle;elbow=horizontal;strokeColor=#FF0000;endArrow=open;endFill=1;rounded=0;entryX=0.25;entryY=0.5;entryPerimeter=0" parent="4" target="25" edge="1">
          <mxGeometry width="100" height="100" relative="1" as="geometry">
            <mxPoint x="-30" y="410" as="sourcePoint" />
            <mxPoint x="-120" y="120" as="targetPoint" />
            <Array as="points">
              <mxPoint x="-10" y="135" />
            </Array>
          </mxGeometry>
        </mxCell>
        <mxCell id="37" value="" style="edgeStyle=none;strokeColor=#FF0000;endArrow=open;endFill=1;rounded=0" parent="4" target="33" edge="1">
          <mxGeometry width="100" height="100" relative="1" as="geometry">
            <mxPoint x="-30" y="429.5" as="sourcePoint" />
            <mxPoint x="90" y="429.5" as="targetPoint" />
          </mxGeometry>
        </mxCell>
        <mxCell id="38" value="" style="ellipse;shape=endState;fillColor=#000000;strokeColor=#ff0000" parent="4" vertex="1">
          <mxGeometry x="130" y="500" width="30" height="30" as="geometry" />
        </mxCell>
        <mxCell id="39" value="" style="endArrow=open;strokeColor=#FF0000;endFill=1;rounded=0" parent="4" source="33" target="38" edge="1">
          <mxGeometry relative="1" as="geometry" />
        </mxCell>
        <mxCell id="20" value="" style="endArrow=open;strokeColor=#FF0000;endFill=1;rounded=0" parent="1" source="10" target="18" edge="1">
          <mxGeometry relative="1" as="geometry" />
        </mxCell>
      </root>
    </mxGraphModel>
  </diagram>
  <diagram id="l6FWLtobnOc367yfhoi5" name="Page-2">
    <mxGraphModel dx="3528" dy="2158" grid="1" gridSize="10" guides="1" tooltips="1" connect="1" arrows="1" fold="1" page="1" pageScale="1" pageWidth="850" pageHeight="1100" math="0" shadow="0">
      <root>
        <mxCell id="0" />
        <mxCell id="1" parent="0" />
        <mxCell id="u-y9tC-vbmlnL2tTpQ4g-1" value="" style="shape=image;verticalLabelPosition=bottom;labelBackgroundColor=default;verticalAlign=top;aspect=fixed;imageAspect=0;image=data:image/png,iVBORw0KGgoAAAANSUhEUgAABBAAAAI4CAYAAADTShqRAAAAAXNSR0IArs4c6QAAAARnQU1BAACxjwv8YQUAAAAJcEhZcwAAFxEAABcRAcom8z8AAP+lSURBVHhe7P0HmFXXfe+Nv8/z/t+bGzu5N/fGNU7sOHHiuMSO49hxiVUsyZJs9d47EiAkgSSaRBUgJETvvcP03hjq0GEavTPUAabRGWYGkH7/81lokcNog0DSGeac+e55Ps/ee/W19t5r1u+71t7n/zFt2rRp06ZNmzZt2rRp06ZNm7ZP2SQgaNOmTZs2bdq0adOmTZs2bdo+dZOAoE2bNm3atGnTpk2bNm3atGn71E0CgjZt2rRp06ZNmzZt2rRp06btUzcJCNq0adOmTZs2bdq0adOmTZu2T90kIGjTpk2bNm3atGnTpk2bNm3aPnX7VAGhpqbGKisqPj7Tpk2bNm3atGnTFu3b6dpTtn/f/o/PtGnTpk1bS92OHztuBw4c+Pjs07dPFRDGjRltL3boaGWnGmxzzUnbVH1CCCGiiJOhvuvUxW6hvuwTbkII0ULYGRrTTUnPswcee9D2Hd9rB2oP2v4T+4WILk7ut4OnDzr2nywPDiOEuCw1Z2psxOSR9uqrr35s/X/69qkCwshhQ+2WJ1+wtN1HLWHLAYvfXC6EEFFB3KZyS9x6yFJ2VofOD7hzSNpWYSk7Qm6hY0dAXCGEiFXSdh+xrhPi7bo/3mBL9y+1FYdW27LyFUJECcttVeVqW3N8rRXsXmwLdi60kiOltrqq0PkFxwmCsMut+HCJra682rhCxAalx9ZY58Fd7IUXXvjY+v/07VMFhNEjhtufnm1t2XuPWeq20EB860EhhIgKMncftgHJufbgy69b3LpdlrajyrL2HLHuE2fb4x26WOr2Ckvz7Kh0+/D4qdu8e2WY26GPOe+Xon5RCBFlZO89aj0mJ9lNd91iKw+stMLKYlt1cLUQUUFRVbEVlC22Z9s/Zzf88Qa78Y832h0P32Fxi+NtzZG1trqi8KLwqw8VOjgurCiyotD9zp5wMHT2MEtclmSlh9dcCMfehasMhfvYbdWhkDtxvF8ojfA0L4QTIopYd3y9dRvW3V566aWPrf9P3yQgCCFiltz9J+zNYePtuz/8V5tRvM0yyqot78BJe6Zrb/vBf/ynExRy9h23pE37Q/7bLWnzftfPJW85YJm7alz4WaU7nDvCg083c9dhJx7MKt0ZClt+UZ5CCNHckYAgopaQEb/u2Hp7rPXj9vPf/NymzZ1uMxfMss7vd7FZC2dbSXXpBYN+5YFV5439qvP3N+LC8v0rbMH2hbZi/0orqj7vfv1t11vXgW9ZcU2JrShfaSU1pU5MWLSjwJbtXW5rj667IA7gR9oFOwtcupSFfBbvWuL8vKggRLQgAUEIIcJAHOgyeor98Be/tpkl250gkFt+wlr17G8/v+Em16/1mBRvv/j9rfbbP95lv77tDhuzYLXNOVBrk5evt9/f90jI7w/20/+63t4aO8PmVtRZv9kZdvvjzzr+85bbbXjeUrfSISh/IYRojkhAENEKhjxCwE9/8VN7qXNrOxj623Zmu20/s8MZ+gu2LbT7nr7f4hbF25rQ+dpj61y4/hP627j0cfa7W39nN4fu+9/fcZPlrZ9jU+dMs6//zdftJ7/4id3/9AOWtCzZlu1bbvc/+4D99ubf2i9+90t7Z1Qf21S72QkVDz7zoD3V7in71Q2/sjsfudMm504J5Xef/ezXP7PWoXyKq7QSQUQXEhCEECKMywkICAPJm8vtn37yM2s/aLTr3walz7eZrFTYWW2/u+Neu/+l1yxx4z57Z0aqfe9f/82JCt0nxtn/+B9/Zu3eG2bjC4pt9poy9ypEUP5CCNEckYAgohlEAYz6v/n239h1t11n7Xu3t9RVaU5YQES4/YHb7dn2z9qOczste02O/eCnP7CJWZPsp7/8qfUZ09etYpgxb6Yt3LHIrRz47U2/tXbdX7GcdbluZcKDzz5o9z/zgC3evcSmz5thP/i3H1rCkkS32uFLf/Ele3vQ25azNtd+ef1/2j98/x9tUvZkm5I3NXT8D6H9FGeQBZVbiOaIBAQhhAgDAaHzqMn2w1/+xr2K4AWEF3u9Zz+/4WZLD53fcM+D9uvb7rSX+w22KSs32rzKOpuwuNT+79e/YQ+3e9NefneIte49wL7yzW9Z72lJ1mNSnP3bf13vvovAKxISD4QQ0YYEBBHNMMPPKwYTsiba0688Y7+9+b/sq9/4qo1MHGU7zu608ZkT7Mf/8WMrriqxTu91Dt3nN58XFu6/3R2/Pbib5W/Mtw0nN7owt957qxMWdn5Y5gSFb33nW/ZY68es+9DuLuzffffvnGAxfe4M+4/f/oct3bPM9lu5tX37ZbvhjzfaznNltuHERvvVjb+y/hPec6sVgsotRHNEAoIQQoSRs++YdZ8wy/75p//uVgrQj82trLdnu/Z2KxCy9xx13zto13+IXX/3A26VwQcpc2zKig32f776NXu6Uw9r9+5Qa9N7gL02YIRbxdBp+ET7za13uP7QfUQxIF8hhGjOSEAQUc2B898z2FK31b2+gMF+xyN32g233+CEguLqErvu1uus98h37Hd/uM69vrC1fpst37fCug3p7oSEH/7shzYpZ7L7hsHNd93sBITtZ3fYwu2L7Bt/+w17/vXnrefwntZlQBfrMbSHe91hTOpY++1Nv7Elu5e41Q3tur0SyveOC0LEr3//a3t3vAQEEV1IQBBCiDBYcTBx2Vr7+t99xzoMGmNZu4+4jyl+/2f/YY+17xI6P2wTlpRazv7jNq+y3n5+/U32YNsO7gOKP/rFr+z5bn0t/1CdEyKmrd5s6Tur7fXBY9w3E0hfAoIQIhqRgCCiHb49kFGUef7XFA4Vul9juO3+25ywsPn0FntndB/7669/xX55/S9DBv9SFyezJMvWn9jghIdf//439lyH521r/Xa75e5brNWbrS58APF3t/yXPf/6C7bp1GZbf3Kjzdsy3/36wsjEkfaL635hi3ctdqsV2nRpa7fdd9sFAQG/fuPelYAgogoJCEIIEQZ9Fr+ewDcOvvuDH9l//eke++EvfmW//ePdbkUC30DgmO8d3Hjfw/aLm251H0XMP3TaPkjNtx/94tcuDq85/O7Oe2164VbrNmFm6Pwhl74EBCFENCIBQUQriAX82kGrN1903zS4/cE/2q9u/LX9+6//3eKXJDgBgV9iQDT466//tQvH6gNeTWClAa8r/OnhO+y62653P92ImPDBlA/sh//2Q7vpjpssYWmiZZVmOeHh93/6vQt7Y2iPWDEld0rombnJfRuBjza+3ucNe+CZB5wogYCA38Cpg2zjqU2BZReiOSIBQQghGnFeRDjqXkvoMzPVhmQudN8tYJUB/qwseC8xx/onZFncul3OndcaeL0hbm2Zc8efcMRL2LjX/Xxj43yEECJakIAgohlEBH5uEaN+XNo4m5Y/3b2eUHpkTeh+XuVeY0hbnW7//ON/diIB58SZu3mee21hYvYkJyiU1qxx6WH8s8ogvTDDufNaAz/fyCoHvrMwZ0O+i08e/LTjqo9/HhKRoqBssTsmHf+zj/5ciGhAAoIQQgRA38XrDAgJvLYQvnKA1xJ4tQHSd1ZdFI9zVjCE+yEiNA4nhBDRhAQEEe3wugErEVhxAEVV5+9hRIGB0wbaj372I3u+w/MXxAP8+DZC4/CAP36kx6sKuOHvw+J3IVzV+WO+w1BYWXRROvj51yCEiBYkIAghhBBCiMsiAUHEKkWhe3n2ojgblTTarVLgPCicEOI8EhCEEEIIIcRlkYAgYhVeYeAnHvkugVYDCPHpSEAQQgjRpPA6CK95YJAAr3ukbdfHJYVozkhAEEIIARIQhBBCNBn+/8LouSus34wU6zcz1cbOX+UEBAyUoDhCiGuPBAQhhBAgAUEIIUTkCf0vwAAZlrXQ/vTw4/bP//x9+/bf/a19+2//1r7/L/9idz/xrI2cs0wighDNFAkIQgghQAKCEEKIiMP/g3dnp9u//PBH9o2v/LV95zvftu9+97uO73z72/b1kNuPfvJTG5gyx4UNSkMIce2QgCCEEAIkIAghhIgoGWWHbfLydfazX/yn/c3Xv27/8A//EMg3v/ZV++V/XWczCrdYell1YFpCiGuDBAQhhBAgAUEIIUREyS0/aS9172vf+OpXAoWDC3z3u/bNr3/NXn13sIsTlJYQ4togAUEIIQRIQBBCCBEx+MWFlC0H7Nb7HnbiQKBwEMY3vvZVu+vxZyx9R5Wlbq8ITFMI0fRIQBBCCAESEIQQQkSM9J3VNqt0h133h9vtb//mm4GiQTjf+uY3QgbKfZawYW8oblVgmkKIpkcCghBCCJCAIIQQImKwAiF5c7ndcu8DV7wC4Y5Hn7S07RWOoDSFEE2PBAQhhBAgAUEIIUREyd1/0p7v0sO+8ZUr+AbC175qbXu/Z3n6BoIQzQoJCEIIIUACghBCiIiSufuwjV9YaD/+6c/cKwqB4kGIv/nG1+1nv/xPm7xsnWWW1QSmJYS4NkhAEEIIARIQhBBCRJzsfcetx/gZ9g//8I/uVYa//8537Lvf/a6DY1Ye/PM/f9/6TE+ynH3HAtMQQlw7JCAIIYQACQhCCCEiDv8L+J/wXlymXX/bn9yKg7//zrftO9/+tv3jP/6j3XTnPTYwZY5l79P/DSGaIxIQhBBCgAQEIYQQTYIXEZI27bcROYvtwVYv20MvvWIj85ZY8pYDzi8onhDi2iMBQQghBEhAEEII0aTwywwLj3xo3cZNt+4TZtqCmnPOLSisEKJ5IAFBCCEESEAQQgjR5OQdOGWdh0+wLiMn6RcXhIgCJCAIIYQACQhCCCGakEPu/0JjAUH/K4Ro3khAEEIIARIQhBBCNBlJm/db2vZKyz90+oKAwHHa9oqQX3lgHCHEtUcCghBCCJCAIIQQokngOwfTC7dY3+kpNufQaes6arK9PWaq5R2stT7Tk21G0VZ9C0GIZooEBCGEECABQQghRJPA/4Os3Ufskbbt7bX3hlqPibOs16Q4a9dvkD32ypuWteeo/mcI0UyRgCCEEAIkIAghhGgyMEIGpsyx737vn+zGu+61G++8xx0PTp/vBISgOEKIa48EBCGEECABQQghRJPBKwppOyrshjvvsb/4n//Tvvw//8xuvvchS99Z5b6NEBRHCHHtkYAghBACJCAIIYRoUvjmQadh4+2v/tdf2v/9q//tvoXArzIEhRVCNA8kIAghhAAJCEIIEe2E+tn0smrL2HU4RE2zJ3vfCYtfv8f+5V9/aj/6959b4qb9IbfjgWGbH4ddW9PmgddCiBhFAoIQQgiQgCCEEFFK6vYKS9tZbYlbDtjoBYU2LKfAhucuaf7kLbWxC4vsxrvvt5vvf8TGLioKuQWEa4YMDbXx6FDZE7ccdG2fuq0i8NoIEWtIQBBCCAESEIQQIgrhmwEJm8ttRPYiGx2fanmLltjyVatt6cpVUcHKomLLzMl1cBwUpjlCG+ctXGyj4lJseHZB6BoccNci6BoJEUtIQBBCCAESEIQQIspI31lt00t22NBZSbZ02XI7Ul1l9adr7eyZBjvTEC3Uh8p7xsFxcJjmB21cF2rrw6E2L1iy1IbMSrYZpWUSEUTMIwFBCCEESEAQQogogl8xmLV2tw2bEW9l27fZubNn7OTJk3b8+HHRhNDm586csR3bttiQ6Qk2e90ed22CrpkQsYAEBCGEECABQQghoontVTY4Lt02b9roZsSDjFvRdLAiYeP69TYoPt1Sd2gVgohdJCAIIYQACQhCCBEl8PX/sQUllp6bbw31dYEGrWhaTpw4YQ11dZaSnWfjFpee/4WGgGsnRLQjAUEIIQRIQBBCiGhhe6WNSJ9jmzdvtvooEBAwrj1B/lfC543/RRNUlob6etuwYYMNT59rqXqNQcQoEhCEEEKABAQhhIgC6EtnrtttY5PSrfYSBnVDQ8Nn+h7CsWPHrK6uzk6dOhXo/3kgzc+TLvWJRLk+K5SlcRsjKpw8fsxGJaTZrPV79X9PxCQSEIQQQoAEBCGEiAK8gDAhOcNONzKoMWARAeLj423v3r324Ycf2rlz5+zMmTPOvba21h3jfvr0aedWX19/3vANGcO4FxUV2aFDh5w7/j5tRAn8SQPjmXRIm3D4cUw6cPbsWReWMFu3brXMzEybO3eupaamurCkR9qUwYfDjXNfPvLxYdgKCgosJSXFCRzevXFd2H/00UcXpefPKVd4eNLxbtQHN/bgy+TrwzH1o0zUly0uLs5Wrlzpzn0bnQhRG2rHcYnpEhBEzCIBQQghBEhAEEKIKIC+dNbHAgLGqjdeARHgyJEj9uyzz9qyZcucGICYsGDBAmcE79ixw+bNm2fTpk1zhj3GPGFqamrswIEDtn79envyySetZ8+etn37dmcwky7G9tKlS23KlCm2e/duJzBg0M+cOdNKS0vdcUJCggtLWmlpaS6P8vJyJ2QQd9KkSTZgwABnnGOUkzb54Y64QB6bNm2y/Px8F3fPnj1OiNi5c6erQ/fu3W3IkCHOjbjbtm27UBeOqV9xcbFNnDjRlYe6UQfSz8nJsaNHj7p8OF+zZo2tW7fOiQ6008GDB117ULfq6mqbPn26zZkzx4kKnBOG+u3atcvVd9asWfbKK69Ybm6uExZ8+yMgnArVDQFhtgQEEaNIQBBCCAESEIQQIgq4EgEB45bZ/j/96U/O6G/VqpUzpidPnmz33HOP27dr184qKyutffv2znBevHix9e3b15577jnr06ePExuYjcdAxgDv2LGjTZ061RnySUlJdtdddznj/Y9//KONHj3aOnToYImJic5QJ+9BgwbZW2+9ZYWFhU44QGwYPnz4hZUKCAbM4CMOtG7d2hYtWmT9+vWzNm3a2Pvvv2+9e/d2dXnttdec0f/YY4+5dIjPRlr333+/Ewyob1VVlUuPlQEvvviiExfefPNNGzlypC1fvtyViXbA6F+7dq116tTJiQE33HCDW9kwcOBAVwbyHTZsmL3++usuDm1z4403unZEgHj55ZddvW+77TYndkhAEC0NCQhCCCFAAoIQQkQBVyIgvPrqq26WHAOabfDgwW5GHUMcY58N4WDJkiVuz0oBBASM/h49ejiDm6X/pImB3LlzZ3v88cdtxIgRLvzQoUPt3XffdWHIixUAGNMffPCB7du3zwkB7733nj3yyCPOYOe8sYDA7D5CBIY7KyZGjRrl0iQdytOlSxcnAiAOsGG0E5YVCGzUafz48e6YMKwSSE5Odu6UdezYsc7oR4BgRQSiAcf9+/d3KwmoS9euXV35qTPHCBCIDGysYsCNVRJt27Z1bogVlIGtW7duTlihPL79JSCIloAEBCGEECABQQghooArERBeeOEFZzwzi86G0Zydne1WEGAMb9myxa00YP/GG284o51Zd4QCZuAnTJhghw8fvvBdBGbx8eMVA4xvxAlec+D9fwxwlv9nZGQ4AYHl/6xWQIS444473Cw+YVn1gD/p8QoC5WRVAYY6QgfiAXkjdJSVlTljn1cNqAvlZIVDr169XHw2Xmcgb36JAqMf45/XL1jxwIoGVlHwWgYixL333uvqSNkpC8IAgsPf/d3fufzvvvtulwb1ff75511aiCSIEQgIpMdGG5InqzNYycG3HbQCQbQ0JCAIIYQACQhCCBEFXE5AYGafVwiYrWd1Aa8H8C0ADF+Mf4z4hx9+2BnQLPXHj2X7GOcY1hjEfEeA5f0Y1rxmgLHPqw4Y07iTBt80QDDAb/bs2W7VAfFYbYCRzqsLGPusOOA1gfT0dFeevLw8Jzr4VxgoH8IEKwAWLlzowrFSAMMfkYI6sXoAkYNXJxABiMdG2o8++qhbqcBKBtwRSKgbefO6ASsG8GdPmUmDeq5YscLViXP2CCYIHYgB4e3BSgi+xYAoQl0pN/nSDggU/GRj448oSkAQsY4EBCGEECABQQghogD60plrdzkjtT5k1HrjNRyW1WNQ82FBPhSIUMDGkn8Mfjb8CIsBzOsExMGNeH6VAHGBbyHgzx5/IE3iE4eZe9IgLeL5NHnFgXPCEgd30vPlJK7/zgJ+hPOGOn5+jxtlwp/4pMsrCnzY0NeFsPj7X1HgmDJQNvzJHz9fTtzZ2JM/YXxb4e/zxZ+64+fTwt3XLbw+CAj8MsZofsZx3R793xMxiQQEIYQQIAFBCCGiAPrS+E37bURSlvv1gNpTF69CuBQYz/wiAqsFOA73w/gOP78UVxPui0yzcRjKz8qA/fv3f2pdMPrD/a40v8uFu5QfgsL+8gM2LHRtEjeXW4r+74kYRAKCEEIIkIAghBBRQsauwzY0u8AWLV1m586eX0nwaTBTjoELQf7RRHOtC9diXsESG5azJHSNagKvnRDRjgQEIYQQIAFBCCGihLTtFTZ73R4bNivJKg4ecMvzgwxa0XTUh67BgfJyGzIzyeI27LXU0DUKunZCRDsSEIQQQoAEBCGEiCLSd1bb2IISm5KYajWVFXamocFOXsHyfPHF4r6LEGr7qopDNjE+xcYtLrX0surAayZELCABQQghBEhAEEKIKCOjrMbGFRTb6FmJtn7tGjtaU231daftzJkGZ9RGAw319e4jhsBxUJhmSaiN60+fdm2+prTURoWuwXgnHujVBRHbSEAQQggBEhCEECIKwWDlVxlGpOXblJQMW7B4qS1fudKWrVgRFaxYtcry5851cBwUpjlCG89fvMQmJ2e4tuenNVkVEnSNhIglJCAIIYQACQhCCBGl8E2EtJDxGr+p3MYtLLTR+ctszNwVUcG0Fevtha69rdXbfWza8vWBYZojtPG4RUWWEGpz2l7fPBAtBQkIQgghQAKCEEJEOfSzvH/PqoRoYW71Ges6aoq9NWaaza1sCAzTbEE40P820cKQgCCEEAIkIAghhGhy8g6css7DJ1iXkZMsr/xkYBghRPNBAoIQQgiQgCCEEKLJ4H8Cr140FhBw0/8LIZovEhCEEEKABAQhhBBNAv8P4taWWfz63Tav6swFAWFeVYPFr9sd8tul/xlCNFMkIAghhAAJCEIIIZqEtB2VNntNmb38zgBL2LjXuo+fYT0mznaCwst9PnACAmGC4gohri0SEIQQQoAEBCGEEE1G7v4T9kLXXnbbw0/Y64NG2Rshbn3oMXupez/L1bcQhGi2SEAQQggBEhCEEEI0GZm7DtvkZWvtH//p+/bPP/iR/dO//MC+F2LKig2WEfILiiOEuPZIQBBCCAESEIQQQjQZ/E/I3nfMHnqxnX3pf/x/jkdf7mA5+47r/4UQzRgJCEIIIUACghBCiCYlZ/8Jey8+y772ta/ZN775DRuQlBtyOx4YVgjRPJCAIIQQAiQgCCFikrTtlZa2o8pSPyZFNBvSyg5b6s5q+9lvr7df3HCTpe06HHKrCQwrrg3+ueEZ4lkKesZEy0ICghBCCJCAIISIKehz0kPG6LTiHTYyb4kNjk+34QkZNiJRNCfGZebbEy+9bE+1fcUdB4UR145hoWeGZ2dk3lKbVrLDPVP6f96ykYAghBACJCAIIWKGtO0Vlry1woZlLbSJCam2fNVqO3TwgB06IJoX5VZ56JDt3r3bdu/a5Y5xCw4rriVLV66y8aFnaVjWIksO/T/nGQt69kTsIwFBCCEESEAQQsQE9DXJ2ypsWEqOzZ2/wGpPnLAz9fV26uRJ0Qw5GeL06dMOjoPCiGvPmYbQM3TiuOXNm29DU3LdM6b/6y0TCQhCCCFAAoIQIibgHfqR2QttwcKFdrahwRmlx48fF0J8Tk6dOhV6puotf94CG5GzyL3OEPQMithGAoIQQgiQgCCEiHpSt1fa9OJtNis1w04dPybxQIgvGJ6pk8eO2oyUdJtRsl2vMrRAJCAIIYQACQhCiKgnbVeNjc1dZCVFRdbQ0BBoAAkhPh9nQs9W4epVNiZvsaWXVQc+iyJ2kYAghBACJCAIIaKbUB8Tv2m/TcvIs6qKQ265dWPDp/H79o39vwhOnDjhCPLzkHdQ+S4F6dXW1gb6BUHY5rL6wpf909oEfLnDw15NvcMhHZ/vleQdzmdpP1/PIL9L4cvX2C2S9+fl8OXh3iR/CLpPcas8eMAmh561hE3l7tkLfCZFTCIBQQghBEhAEEJENfQxs9bttllpmVZ/+mJD7tixY84ow0DavHmzbd261bl54419uCHX+Lyxmz/2YGh5P298BcUD/A4dOmT79+93YcP9GoflmPBHjhxxv1QQ5B90vm/fPquqqgr0827sw8sZHibcv7Fb+HFjt8bnxKed9+zZY0ePHr0oTvgeaIsdO3bYgQMH3HXycal3+LUKB7fwtMLLW1lZ6drBXw8fzodtfMyecOHlCE8vPFz4uXerrq62vXv3XpQX+6C8/Tl1o10I4/3Ly8tt+/bt7ph7lv3l0gxP70rdGp+Tnr9O7Gm7iooK1wbcR+Hl89TVnrJpKRk2e/0e/X9vYUhAEEIIARIQhBBRjRcQZqdn2elTFxs8GKQYRN26dbNXX33VOnXqZBMmTHDGYj2/0PCxIe9FBtyckVRX5/b+nHD4405Yb/xh4ON25swZmzp1qq1fv/5C2qTLMeExzj766CNLTEy0YcOG2dmzZy+E8emQPnjjkbgYlJSZ/MgHN+CYNL0baZFO//79raCg4MJrHLhRtvCwuJOerxv5UQ5fJ8JRHvwoj3cjnM+f43A/3MiTNPAjT4xS2h1jGTfKEJTehx9+aCkpKbZ69WrXhhjjGOVvvPGGM2QpJ/GIT5mI68vLHigv4WjjvLw8GzJkiOXn59vChQtdPsTzdWVPGUiT/NkTnzInJydbcXGxS8u3IfkRhj1lwJ34+HG8cuVK69Gjh/MnHmni59uY8pEvcXAjjTfffNPKyspc/HPnztm2bdvs8ccfd3Xu0qWL7dq1y8XxaZAm6fvrEt4GnOMPxMGPvDgmLvn5chDGXyfqxDHCBeXnOg0aNMg2btxoy5cvd21IWqQfTu3JEzYjLVMCQgtEAoIQQgiQgCCEiGouJyBgnH7wwQfWoUMHZ1BhQO3cudMdY8BhJL333nvOgFu0aJE7fuuttyw3N9cZo0VFRc4ox+hn9UB8fLz17t3bGbyE79u3rxMkWFVw++2328svv2xbtmyxTZs22YABA2zw4MEX8mNLSkqyRx991MWbPn26M1pXrFjh8iAsBjPG2zvvvGNjx461tWvX2iOPPOL8gRli6jVt2jTr06ePzZkzxxmCY8aMsV69etljjz1mS5Ysceli/FEv6uTLiWFOvtQhLS3NCRklJSXWr18/lz/hZ82a5fzT09MtIyPDGbMY1pmZmW4VBwY65Xz33Xete/fuzo12ojyjR492qzzef/99147PPfecWw3gDVHqzzllWLBggZWWljrBg+OcnBy77rrrXN6031NPPeXS5Nwb1BjCGOzUZ+jQoU6koB60l29Pyod/u3bt7P7777elS5e6uBjQM2bMsMOHD7t8ERgOHjxow4cPd/lQh+zsbJc315A6kPfkyZNdXNqvZ8+erp0wsqkTBnhhYaE98MADrp1HjBjh2nj27NmuTAhGlAlhievHvUj7vPDCCy4toA5r1qyxVq1auXJyD3E9s7KyXBrca4gAlIPyUO7wa0Z87leuHdeINmYlBfG5fp07d3bCDOVApKFtKCfhBw4c6EQeBgDcS2+//ba7TuRH+9EOlMk/TyABoeUiAUEIIQRIQBBCRDWXEhD8TPfTTz/tjH2MPYxADGSEhNdff90ZYcy6MiOMMYexxaz1K6+84mbCn3zySZsyZYqbGUYQwMgjfE1NjZupxljDwMeI7dixozP2MCCfeeYZJwBgROOO4cuGQfnEE084A/bFF190Kwww9ojH+ahRo1wcxAAMWcSHO++801atWuWMOwxERIxnn33W5c2stTfWMWrvvfdeZ5AjDAD1/sMf/mAbNmxwdSAfBIpJkya5sF4IaN++va1bt86Fwz01NdUZ1wgnhMWobdu2rTvGCKctxo0b5wxuykU42pn0KDt1x5DHgGeGGyMUMQfjFeOaclNmDFnSoE2pV5s2bWzx4sVu+fx9991n8+bNc4Y57cJMPTBDz3XC6GYmHcGENO+55x7nhhiBYYyxjoHNtfIrBrguiDC0I2Ewxh988EGXBv4IIrQZ+dIOCDiIT/4eQSyhTpSZsnBPITzcddddLm/akbiIQhjtlAnxA7GDumH4I2BwzyDQUH8EDIx5rvPIkSOdcILosWzZMpcG5UMMQKRAZGFFDfcq15P7iDLQ3ogO3GvcGwkJCe6fOuXhvkAMIL24uDh76KGHnODFdee6cb+TJ2Xhuvp6kQdl5Nw/UyABoeUiAUEIIQRIQBBCRDWXEhCYNcb44dUFRAC2+fPnO8MQw5yVAAgIzFxjKGHcYlgy+9q1a1dnaP/xj3+0iRMnOuGBWV4MNGaTMYiZuZ05c6abTcawZhk4Bibxb731VjcbjzuiAYIFG4YuRi0bxiqz1xiNhMUwxg1BAeMXwxwDF8OVjXJivCMYYCSyKgADkzKxIoGN1x0woL2AwDH+bMxg0xbMtmNgYtxi/GJMYkiSD7P7c+fOdcY9BimGNcYuM+G0D4Y/IgPpMDuNMEL6pOnLgLFKG7EyAtGBGXIvIJA2hjDGKwYqAg0GMSIB1wCj2H/Dgbi0G9cEw5YZdNIhX9qQ9qJ9aCfa+OGHH3bnGMQY7BjECCFs3A9cF64V5eJacu0RFmhT6o6RTh0RYJiNp4xsCA3PP/+8M9LZyA8BgfbF0MYwR9Bg41pSNupGGyOC0IasXsGPfLgHfT0pK3XjvuF6YOBz/REUELh8GpSJulFnrgv+CA+kh/BDe3OdyJe25P6gLlwXNq4vwhn3DOVgQxhBmOK6cL8jknDfeQEBIQjBSQKC8EhAEEIIARIQhBBRzaUEBMDoRAhALEAEwKDHiORdcma1MbKY1WWWFoMSg40ZagxkXnHAIMNwxGBk6TnurDxgFhnjFwMVw238+PHOSMMQY1UB6frZdcJ7AQFjlXwwyjD2MeAwJinXa6+95ow6yku6zJZ7dww6ZvwRQjBYmVkmbWbrmfFm9QJ+N954ozM2SR8Dl7C4IT6wqgLDunXr1s5Yvvnmm13+LGtnqTtpUAcMXAQNjFDEhV/+8pdORMFw/cUvfuHqQVkoP/XkNRD8vGFKOyMqYHjzWodfgYDhjiH9/e9/363YwLj9/e9/7+IgnCAUsEcgYfUF/5RoZ64Jy/+pE8ICKwSIz3XE6GVVCNeQvDD8aQ/CYyyTBvUjb1ajUC7i0AYIQAhJtAXiD9eFPekjMHDMaywY0lxfjHVEmDvuuMPl4w1tVgtwX7AhHpAuqw24PrfccotLj5UH1A932oprSruQD2VlpQP1oYxsXDfuL9K47bbb3GoTxBeuD+E4xo9rxMoNRIBf//rX7voiav37v/+7qxvXlGuFAML9y32AYMHGMfcbad59992uHWh/RBXamfsFccK/fuKRgNBykYAghBACJCAIIaIaLyDMSvukgACICCwvxyjGyEYswKBl+TuGOgYWKwGY2Wa5Oe4sDWfGmmX8GP0Y8swSY1DhhlFFHAxrluozy45BiDFHOiybZ7UBxjR5IyBgxCJKkD/nGI3MQjObTDoYcBh5iAKIFhjyvA6B8YlRhzBBWOrDrDZhiIOxh2hAGYlL+UgfA5cVCAgRzGzjx4oBDFmMR84pJ6sQSAsjnFcQmM2nPMxqYyCzHJ/XOWgbBAfajrbBQGfVAXWgXtSbOtJ+GLzMeNNGiDWUkWtBPTC4KSN1QVwhDnkhVjD7ThtSV9qNfMgXQYE6AQILRjjGN+lhoGPY016kSzqskkB84PpSft/+pO/bmmPSJi5lpe7kQ3zqSxrEo2ykywoAZugRjCgbbUn+xON+IX3uEe4FDHxWh1A22gd/7jNWWXBNOad85EOerMLgOlBf0gTqRxpca8QAriFlpd38NUNEoH25JlwbPoRImtSZ+4R7jLby59SZMlJWrgftg+CAyEJ5WGni02cFBuH8tfMgIExPlYDQEpGAIIQQAiQgCCGiGi8gTE/NcD8xF27seDCEmU0GDD9vqDFzC7ghCniDifDsOfdhMNJwJx7xOfZ+hAM2wmF4ej/SJTzg5/P3aeHvw+Ln02UFAelwTh2ICxzj58NQToxDzhENiEP6pIWB7l8t8GEJ4yF/wvm41IG9LwvpEA938uYYN992tCf54efriZ9Pw+cZfi3wIw7hKbcvq3djIz9fb4592pz79vHlJw2fH2kA6eFH+QhPXCAd3AjLMWlzDBz7cvhj4pA+ogiGNqsF2ONPvfAnvM+DNH07USZfRtx9mX14f3/h5+vh26jxdSJN9r7clM2nR1zyJk/Ckaa/TuRDfX07X+464YcQxEcuESwQQkjLl8lTd+qkTUnWzzi2RCQgCCGEAAkIQoiohj4mccsBG5+ea+X79gYaPUJ8HjDomaFnpQDGeGNRJFZARPAiDM8RQkO4P2779uy2sWl5oWfu/LMX9EyK2EQCghBCCJCAIISIejJ21dioOUutYMkSO9twfuZanDd8mWkO8hNXB+2IYR2r4sGVcPZMg81fVGCj8pdbRllN4LMoYhcJCEIIIUACghAi6qGfid+0z0bMSrJD5fvdEu8gA0gI8dngmSrft8+GhZ6x+E3l+t/eApGAIIQQAiQgCCFigvSyapu4fL2Nm5Vghw6Uu9lSvc4gxOeDZ4hVPQf277PRoWdr0ooNlr6zOvAZFLGNBAQhhBAgAUEIETOkl9U4EWH4rCQrWLLUfROh/nSt+7ji6VOieXHSGurrQ9S54+Aw4lrBM1NfW2v79+6xRYuX2NCZSefFgzKJBy0VCQhCCCFAAoIQIqZgdjR+434bkbvExqXl2rTUTPcTj6J5kZCTbwOGjrABw0a646Aw4toyLSXTxoaeoRF5Sy1+036tPGjhSEAQQggBEhCEEDEH/U7GrsOWsPmAzVxTZjPX7hLNjLSyGmvXf6i9OmCEWznCT3GK5gXXKTH0PGXuPmJp2yvccyVaLjn7jlmPKclOQFh1cJUVVZXY6kOFQgghLkOQAR7tSEAQQsQsjQfAovkw59Bp6zhkrHUcOs7yDpwKvH6iGbDlgCULESJrzxHrPinRCQgrylfY6ooiW3lglRBCiABWlK8M9ZOFVlRV7M6DDPFoRQKCEEKIJidn33F7d3a63fbQY/Zk+8722CtvCiGaMU926GK3PPCo/ejffmwvvvGivdSxtb345ktCCCECaN2pjT349IM2KnG0rT+xIdAQj1YkIAghhLgmpG6vsMSN+yxubZnFrdslhGjGMJ57a9wsu/GOm6ygrMCW7l1ui3ctEUIIEcaS3Utt+b4VVlxdYgOnfGBvD+xmm05vvvDaV5BBHm1IQBBCCHFtCP1/QEQQQjR/cvYft54ffwNh9aHVocFxqRVWFAkhhPgYXldYXLbE0len27Yz22100mjrOayX7fhwp2UWZ1r+prlWFAMfoJWAIIQQQgghLot+hUEIIS4P3zxg5UG7t9rZqKTRNjlnig2YNMCSV6TYc689b8v2Lg/1nUWBcaMJCQhCCCGEEOKySEAQQohPh+8dDJ05zH780x+77yC80OEF+/mv/sN6j+gdM99CkIAghBBCCCEuiwQEIYT4dHhFgV9g+PV1v7ZvfuOb9tf/96/tl7/9hc3ftsBKakoD40QbEhCEEEIIIcRlkYAghBBXxoZTm9zHE7/851+2//tX/8fa9+xgG05u1EcUL7dJQBBCCCGEiB0kIAghrgVBHyts7mBgZ5Vm2z987x/sH/7pHy1pWbJzCwrbnLmU4CEBQQghhBBCXBYJCEKIpoSPEfKrBvO3L7C5W+bZ3K3Rw7xt823Z/uV20x032a+u/5Ut2LEwRKgeAWGbK/lb5triPUus9PAaJyaEXxsJCEIIIYQQ4rJIQBBCNAXMehdVF1vWmmybnjPDErITLSUnxVJzUqOKrHlZNnj4YHt3wLuWPT87MExzJiU7xeJy4mzW/NlWsHuxE3T8NZKAIIQQQgghLosEBCFEpHEz3YdW2/S86ZaanWZbt2y12pOnrKG+werr6qOOuro6O336tDXURV/5z9SfserKKitcXWjTkqa5VzKKa86LCBIQhBBCCCHEZZGAIISINIWVRTY9Z7otXbrE6mrrrL6+3k6cOGHHjx+PSih7NJf/1KlTdqbhjFUeqrSE1ATLXpPrViJIQBBCCCGEEJdFAoIQIpLwE4epK9Msd06uNdTV28mTJwONWtH0sJKi4kCFzUieacv2Lbf1JzZIQBBCCCGEEJdGAoIQIlLw3YOl+5bZzLRZVlNZY7W1tYGGrLh28BpJcWGxJS5Mss11WyQgCCGEEEKISyMBQQgRKXh1IW/dHJs7f657/z7IgBXXFl5nOHTgkCXlnP9JSgkIQgghhBDikkhAEEJECj7ON3tOnG3fvv0Tqw/4hsCHH37obMxz584FflMA4/ZSqxYaGhq+8O8QHDt2zH2fgTzD08ed5f4fffSRKxPnjeNeLT5NPsbYOD1e8wiqN+HInzJ+EWXwUI55C+ZZwc7F1nNULwkIQgghhBAiGAkIQohIgYAwM3um7dm15yKDGAO5pqbGcnNzbebMmZaRkWHV1dUXDHf2hKmqqrKKigpn4HKOH8bzkSNHLC8vzxnRuIUbw+B+ISHkThzCkB5pENengyFOWNw4RywgzKJFi2zz5s02f/58lzfhSW/Xrl02adIk53fmzBkXj/g+XS82+LzCy+zz8nCOeFJcXGylpaUufV8O/GibQ4cOXUjX+xFu27ZtVlBQ4EQXLz6Etw3ph8fhGHz88HJ4qM+ChQtswdaFEhCEEEIIIcSlkYAghIgUCAizcmbZ7rLdFwkIGLcbNmywO++800aNGmUJCQl2+PBhZzyvXr3aysvLne05bdo06969ux04cMD5FRUV2ZYtW6yystJatWplK1eudKsbvGHsBYU9e/Y44xzDmngIERjemzZtcm744YZhvWbNGispKbkgXuTk5DijHiN6x44dF4zyjh072ssvv2xbt251wgLxyJcw69atc4IB6ZEuYSgn5+SFOEI5vJhBXTdu3GjvvfeeTZkyxRnwpEe+bFlZWfbGG2840QKxhPQpI1t+fr516NDBCRleZCDPwsJC58Y5eREHt6NHj7qyUY6ysrIL9QmHeiMgLNy2yHqO6ikBQQghhBBCBCMBQQgRKS4nIKxdu9YeeughW7hwoTO4Ma6HDRtmQ4YMsT59+tj+/fvt3Xfftdtvv93mzJnjjO233nrLJk6c6ASEBx54wLp162Zt2rSxxYsXuzQxhBEZ+vbtawMGDLAJEybY2bNnrXPnzg4EANIgXr9+/Zzxz6qCnj17urC8ojBmzBi3CuH111+3nTt3OuN+7969dscdd7g0ETUeffRRZ/hjzBMOZsyY4fLCuCePtm3bunw4Ji/EBAQHxAPyg7vuusvi4+Pt4MGDNn78eOfG+eTJk+26666z7OzsC2Xs1auXywNR4Pe//71rmzfffNPFRSwYPXq0denSxa2cSEtLc/lSJ+JPnTrVBg0a5NIgPoKCBAQhhBBCCHHVSEAQQkSKywkIzMDffPPN1rVrV0tJSbElS5bYTTfd5AzzBx980GbNmmWZmZk2fPhwJwqw4iB8lv/JJ590M/S8AoFhz5J+YOb+xRdftBEjRjgDHeOfcwznpKQke/XVV90rAhj9S5cudfF79+7t8sSQZsUDr1RgnCMgYPSTb48ePdwqAAx9wrCRFiLC7t277YUXXnArJ5599llbv369ExpYtUBZ27Vr51YksBGec8qKwIBxj6iAMIKA8NxzzznhgGPCsPoCAeGdd96xp556yokpGPgIGwgl5IPYMm7cOFceRATKSJ1pU9/OuJE2IgLpSkAQQgghhBBXjQQEIUSkuJyAwJJ6jFyO2RYsWGD33nuvLV++3JYtW+ZeE4iLi3MrElit0Lp1a7dCAMMZP+KyPJ/Zdmbjmf0HBASMfV4HWLVqlQuDwY7YgGGO2IAoQJjXXnvN3n//fWfUIzYgTuCOgNC+fXs3e09Yyvj222+7MjOrjzHOhsHOagVWASBwYMi/8sor7jw5OdmtqOCVCdJCVGCbO3euy5cNIQIBgxUHrLrguw6PPfaYEzq8SIEwgJhAvEceecSJLdSdjbITn/ojvBAWAYPVHIgHrIIgDPGIT9vyGgevOEhAEEIIIYQQV40EBCFEpLiUgMCMPgY1rxUw+46RjqGPsYvhjJHPtw14p5+ZfYxjXgPAYGdFAjP9zN4TF6Ob1w4wgoGVBogIzM4zu48owKw7AsK8efNcWNwGDx5sI0eOdMY8ogFGOWVEsMDYxqAnDm6Ub+DAgU7I4BUDXiXgI4i8foGxDawEQNygXKwaQKxgVQHGPGmxAoHyUWZeL+jUqZM9/PDDrvyUi1cxqDsCBPXmdQviswqDY0QE/PiA4v333+8EDcqOmMIKBeqMUEE4BBDfXggJCBSs9Ojfv7+tWLFCrzAIIYQQQojPhgQEIUSkQEAI+hUGwLDmA4H+nFlxDHs+rogBjaFNHGbzEQyYycePVQGE93ERHvwxaWIcE4ePEvL6Amnij194WPbkyccVESvw9+4+nHfz7j4NwI28+GAj33CgrD4v/MLDhadFOM4RUPiWA3FwIw3KQRzKhR9pc4y7LyPwCgavJvARRcpAGpwTnmPqzwoMzvEnfdqU9uODjoShLB6EDwQE/QqDEEIIIYS4LBIQhBCRAgFhRu5M27ljpzNiw41WjFhEgXA3zpntB2/kYkCD9/Pp+LhB6RCesOwvFZY95z7Nxu7+3OPdG/sRN7y83i88nI/r43Duy+fdG5fD1xv/cD/OG9evcRjwwkG4P/j8wmmob7C5C+bawu2sQJCAIIQQQgghLoEEBCFEpCgK9SeZJVnOOMVIbWy4imsPIkTloUqLz0qwNUfXWLfh3SUgCCGEEEKIYCQgCCEixepDhbZ03zKbmjzNqiurL8yIi+aD/25E3Px421y/xboNk4AghBBCCCEugQQEIUQk4TWG1FVplpaVbvWn6yUiNCPONJyx/Xv32+TEKU7o2XBiowQEIYQQQghxaSQgCCEijfuY4rxZTkRgJQKvMyAk1J6KPtz3B2rPf0+A46AwzR3K3lDXYFs3b7HJ8ZMtf/NcK64usXXH10tAEEIIIYQQl0YCghAi4hxa7QzUlJWpNjVlmvsmQtnOMtuze4/7hYZoY/eu3barbFegX3Nn75697hcgUjJTbVrmNFuwY6G7NlwnCQhCCCGEEOKySEAQQjQVrERYsm+Z+7Di9NwZNj17hs3MmRVVJC9Itu7vd7dXu7xqKQWpgWGaM9Ozplv8gni36mB1RaEVVf13ny8BQQghhBBCXBYJCEKIpoQPK/LrDIgJ0cjmui02KnmU9RzRy7ae2xYYptlTXRLq64vctQi/NhIQhBBCCCHEZZGAIIQQV8764xtsZMJI6zmsl22s3RQYJlqRgCCEEEIIIS6LBAQhhLgymLFvLCDg1ngmP1qRgCCEEEIIIS6LBAQhhPh0Vuxf6YSCTbWbLwgIvM7A6xjL968IjBNtSEAQQgghhBCXRQKCEEJcHr4XUFC22EbGj7TSw2tsbOo4e2fEO7alfquNTBxleevnXPQxwmhFAoIQQgghhLgsEhCEEOJTOLTa1p/YYC93fdnadG7jBIT3J7xvvYb3sqfaPmUl1aUx8RqDBAQhhBBCCHFZJCAIIcSns+bIWktYkmj/+L1/tFvuvMV+f/vv3fH4jAm27tj6wDjRhgQEIYQQQghxWSQgCCHEp7O6otBKakrtnsfusf/1l//LvvznX7Y7Hrgj1G+uionXF0ACghBCCCGEuCwSEIQQ4srYdGqTDZ05zAkI3/zmN63v6L62MeQWFDYakYAghBBCCCEuiwQEIUQswwcQ+fBhyeHSzw0GNisOfvbLf7cf/uRHtmhnga0/uSEw7NVCGa/1SgYJCEIIIYQQ4rJIQBBCxCrFNSU2f+sCmzV/lsUXJHwhZBRl2l2P3O2+g5C6Is0SFicGhrtaZobKmLMu170mEVSXpkACghBCCCGEuCwSEIQQzRF+1aCwosgds4qAc/cdgupSKwr1U5xzXFxd8om4gCE+Z1O+zUiaYatXr7ai4iIrLAql+TkpWVNiCxYtsLw5ebZm7ZrAMFcLZSsOMT15hqWsTnWrERrXh7agruB+8eHQ6ovPG4X/LEhAEEIIIYQQl0UCghCiuYFBvGTPUlu2b7lb1r9k91JbUb7S+SWvSLFFOwqc4ZxWmG6pq9KcX7gRzcqDORvzbWr8NDtYftDOnTtnDfUNXwj19fV25swZB8dBYT4LZ8+ctcOHD9u0xGmfEBGo27K9yy1nba5lFGU4QaW4qsSySrMdtIUP+3mQgCCEEEIIIS6LBAQhRHOD1QMzF8yy1/u8YWsOr7WX327nxILuQ3tY264vW5suba3ze13s6VefsT5j+lnBzsVuVYKPO2fTHJsaP9WJB3V1dXb8+PHPxIkTJ+zkyZMX9kFhGnM1YYHwwPHp06ftyOEjNrWRiLDp9BZ7rcdr9nCrR+yJtk/apOxJNiVvij3V7mnHmNSxtvbouova8LMgAUEIIYQQQlwWCQhCiOYGy/VZfdCma1t7d0J/e63na272/aa7brb3J39gz7z6rL3wRitr3aWNM56X71vhZun9awvh4sGxY8fs7NmzjoaGBjt16lSgER/kduTIEausrLSjR4+648ZhGkMcVhFUVVVdJAywJ+/G4SlLbW2tW8mAeEBZ2R9GREiaZsmrU5yIsLluq73w+gs2NX+aTZs73dr3am/te3ewlBUpbgUGosKGExvdaw1B7XmlSEAQQgghhBCXRQKCEKI5sv7EBhseP9x+8ouf2NQ505ygcO9T99qgGYNtYtYkS12dZpNzp9jv77jJ7TfWbvqEeICRjnE+dOhQe/31161bt25WXFzs7NoPP/zQvdqAsMAxhjsrB/w5+61bt9qCBQssNzfX0tLSXHiMfMQAHwZxgD1CANu6dessLy/PHfv0a2pqbM6cOfbRRx850QB3tr1791qfPn3s7bfftk2bNl0o8+na03ak5ohNSzq/EmHnR2X2zGvP2uxFs21S9mR7rWd7txrj3XHv2rvj+9sr3V89LyAEtOPVIAFBCCGEEEJcFgkIQnw2+Dm/dcfW28ZTm2zDyY3iC2b72R1OJHjw2QdtzZG1tuPcTktclmTdhnSz/hPfswlZE63XiN72wbSBVlxTavO3LfiEeIBxj4Dw1FNPWUpKim3cuNGtJMjOznaiwoQJEyw9Pd3ef/9927Fjhx06dMimTp3q3Hfv3m1lZWW2ePFimzx5so0ZM8bZw6RdVFRkw4cPt6ysLLc6gTQOHjxo8+bNs/z8fBdn/fr1Lgz5Llu2zK677jonQlRUVNjMmTNt5MiRtnLlSisvL7cOHTrYlClTXPp+dQIigv8mQs76XLfyYMnuJbZg20KLX5zgVhvQFggJC3csuvAKx+dBAoIQQgghhLgsEhCE+GxgsE3JnWr9x/e3AZMGhPhAfEF8MGWg2//uluvsoWcfsmGzhoXOB9iw2cPPEzpnP2TGUBsRN8K95jBxxkSrrqy+IB54AYHVAs8884y1bdvWzfYjErRq1comTZpkb775pvXu3dsmTpxoAwcOdCsQMOSfffZZ++CDD9yvNxAnISHBhWHD4McfceDhhx+2JUuWWHJysj3xxBM2YsQIS0xMdHEHDBjgVj1s2LDBCReEZUUD4e+77z4nOrCaYcWKFda5c2c7cOCAW8Xgyw7u/Nhxm5Y43bXJoGmDQgx29Wc/PFT3ITOHWnphhvuoYtB9ejVIQBBCCCGEEJdFAoIQVw/v2/Ml/AeeftB6Dutl74eM2/cmvC++UN772GgefJH7+xPPc/54gDvuM7qPTZ45xWqqatyrCOECAueIB2vWrHHiAq8RtG/f3hns06ZNc+LA9u3brW/fvjZ//nwbPHiwW3Hwxhtv2KpVq9zqhLi4OBs/fryzh3lFAQGAVQysJNi1a5dt2bLFvve97zm3RYsWuTgIDaxk6Nmzp61du9aJFWysKmDlAq8tsGIBwYFVC/71iMYCwskTJ21WyizrPfIde+/jensGTR1kr7z9irXp3MY21W4OvFevBgkIQgghhBDiskhAEOLqQUDgpwNbd2rjPty3+fQW9yqDiBAnA9zC2Fy3xeZtnm8zEmbYoQOHLnqFgZ9bfOGFF+y1116z/v37u28N8C0EXlGYPn26JSUluRUCgwYNct8uQFzo16+fde3a1b2qgKCAke9fMeCVBcSG9957z61K4DWHd955xzIzM136Y8eOdasTeG2BPcb4tm3bnCBBePLnNYlXXnnlgnhQUFDgXrVoLB4cPXLUZibPcN9BCLrHeM0jszjT2vfq4F77CLpXrwYJCEIIIYQQ4rJIQBDi6kFA4BsIL775ki3etcT9akBQONF08B2E/I35nxAReC2BVQJ8b2D58uW2f/9+970ChAC+R8CvLPBdBNwQHAoLC91qBc5ZLcCeMITFn48g8lFEBAJeccB9z549TqhgVQPCBOERDRYuXOjypix8MJHVC7xCsXTpUidOkN6+fftcvPCffvxv8WCmJa86/0sMQXXGPb4gXgKCEEIIIYRoGiQgCHH1SEBonhTXlFj+xrkXiQj+pxH5FgJgqGOgezGAc3/MnpUAxGschr038DkmHPj0vOEP+LMnP/9KBXvSJbyP69MPT5t44eJBySXEA5CAIIQQQgghmhQJCEJcPRIQmi9BIoI3zps7jcWDS6088EhAEEIIIYQQTYoEBCGuHgkIzZtwEeHggYN27uy5C7P+zZWzZ85elXgAEhCEEEIIIUSTIgFBiKtHAkLzh49bIiLMTp5lxUXFVlpaaiUlJc0SyramdI3NSp31qa8thCMBQQghhBBCNCkSEIS4eiQgRAesRJi/dYHNnj/bEhYlNlsSQ8yeN9ty1uY44SOoLkFIQBBCCCGEuBShcQdjD/HFkrPvmPWYnOwEhFUHV1lRVYkzjoQQl8YLBggIS3YvtaLK4sBw4trCNSqqKrbSI2ucsd2sCZWxuLrElTmoLkGsObLWEhYnSEAQQgghhAiHMUfGrpqLDF/xxYCA0HOKBAQhrgYJCKI5gIAQtyjO2r39im04JQFBCCGEEC2c1O0Vlraj0hI37rNH2ra3h9u8Zo+98qY9/mpHe7TdG6Fj8Xl5skNnu+X+R+1H//Zja/V6K2cQvfjGi0KIAFqFeKlja3sp9JzwvPzmxt/ac689785xxz8onhCRgHvugacftG6DumkFghBCCCFaNslbDljc2jLL2nvUpq3ebA+0amsJG/Za/LrdNnn5OptdutNmle4Qn5Pkzfuty5gZduOfbrKF2xdawa4ltnDHIiHEJchdn2dL9yxzx8++9pzlb8y35ftWWN66vNAzFBxHiIgQut8Kdi62VYeCBYGrRQKCEEIIIaISxhjpO6us56Q4+yBljiVu2mdPdehicyvqrMfE2TYofZ5l7T5iaaxQEJ+L3P3HreeUFLvp7ltsdWgQWlxd6pZnCyE+Ce+pT86ebKOTx9iGExutTec2VlqzxiZmTrRxqePcu+xB8YSIJLzOECQIXC0SEIQQQggRtWTtOWojcpfYL6//vfWemmgv9XjX3h4z1X79+1tsZvE2S99ZHRhPXB36FQYhrhy+kD9nwxz73c2/s6GzhlnHvh1tZPwo++0Nv7X01RlOQAiKJ0Q0IAFBCCGEENFLaJyRs++43f7IE/adv/+u/fw3v7O/+da37IWuvW3OwdpQGI1DvggkIAhx5aw+WGgbT22y1p1a27f+9lv2n//1n/bt73zbnnjpCdtwclNgHCGiBQkIQgghhIhqsvcds/cSsuxrX/2K/eWX/ty++4/fs/EFJZa5+0hgeHH1SEAQ4upYc3StpaxIs+/8/Xfsy3/+Zfv6179uM+bNtLXH1gWGFyJakIAghBBCiKiG7yDwCwy/veU2+/P/7/9ndz75nHu1gdUJQeHF1SMBQYirg3fOS6pL7b4n7rf/8f/+D7vlrj+4d9ALK8//tKMQ0YoEBCGEEKKZkLqtwtJCxnD6rhpLLxNXzK7DNrfqjL36/jD7yy9/2d6Nz7I5lfWWpna8avg5zKCxmwQE8XnxxnNxTUkLodS2NmyzkYkj7ctf+rL1n/CebTu73bkHh4896Ce+qA/3ieaDBAQhhBDiGsP/yvSyapu1breNmb/SBidm2bCkbBuWLK6U0ZlzQwOasfabG35v709PtJFpcwLDiUsQut+GJOfYhMUlFr9xnxMTwu9RCQji84Axubx8hWWvzbHpudNtWvZ0m94CmJU/20bNHmW/+/3vbMjkITZ7blxguFiD6zstdJ2zSrNt2f7l7voH3RciOpGAIIQQQlxDmPFNCu1HZC20iYmptnjpMtu9q8x2l5XZLnFVlIUoKS21vXv2hM53fsJfXBruuZ07dlj+/AU2PiHVxs1baak7qy+M4yQgiM8Cs88Yj+mFGTYtdbrlzs217du2he633e55jXl2ltme3XtC/VKJqzPPWmC4GIO67nD9Sb5NT51haavSrKhaqxFiBQkIQgghxDUC8SB+034bEpdqSxYvsZPHjlpDfZ3V1taKz8DpEPX19YF+4tOh/c6E2u9wVaXl5s2xkWl5lvLxKw0SEMTVgrFYVFVss+bNsvSsdDt08FCof2sIvPdinZbaL3G9qyqqLDsn22bmz7TCqiKJCDGABAQhhBDiGsD/x6Sth2xIXJqtLS2xc2fP2MmTJ+348eNCXFNOhQb+Z+rrrGDhQhuVOdetRJCAIK6W4uoSiy9IsJy8HKs7fV4YDbrfRGzjhIS6Bps3b57FzY93KxGC7hcRPUhAEEIIIa4BaWXVNiJ3sS1cVGDnzpwJHHgJca04cfJkaNBfZ2mZWTZp6RrLLT8pAUFcMXwscc6mfItPjbfaU7USR1s4XP+62jpLzkix3PV5VqT+I6qRgCCEEEI0MfxvjNu438bEpdixI4c1uBbNEl5p2L97t41KTLec8lMSEMQVU3K41KZkTbUtW7ZYXV1d4P0lWhanT5+2sh1lNjVjmj6qGOVIQBBCCCGamPSdVTZmYaHlL1ps9aFBVeOB1okTJ+zUqVMOjsPdGodtzJWGawkgzLB81rfhtSb8eno4v5ryfdF1IT3KRVs1FrKc34njlpqbb7PX77Ze01IlIIhPpbCiyObvWGBJuYl29MjRwHuWey7oeQgnyC/oPr1a/P0e5BeEf0aC/IL4tHo1JUFlx41+8fO249VCvieOHbe0vDSbt3W+W6USdP+I5o8EBCGEEKKJydh12D5IzrVNmzdbXV2wgFBVVWUHDhxwszZnzpxx53v37j0/CPuYxnHg8OHDVlFRccG/cbjLcbmw4X6Nw31aHp8W/vOeB7kxOD569Kht27bNqqurr3iwHJR2Yy4X5lJ+uHP9KAvHPhyD+8bvhjdOI/z8UgP/xnEu5Rbuzp7y7N+/3+25xxrHORu695YsX2ETCkrsnZkZEhDEp8K3D1IL0yx/YX7o/jl70f0E3GP0U/Rv3M9w7NixC34+HH1f+L3OcXl5uR06dOiie9j7B9HYn/PKykqrqakJ9Gt8Do371MZhws+pB2Hpe4LS+zznQVwuDH5Hjhxx5Ql3p8/ZtWuX7du3z7XpZ8kXrjRcONwPi5YssqQVyVZSXRp4/4jmjwQEIYQQoolBQBicOsc2bdpkdY1WIJw7d86ysrLsqaeesq5du9pbb73llgFv377dZs+e7cQE/0VvBnAMBs+ePesG22yLFi2y9957z4XBjXANDQ0unF9KjBt+Pk8GkT48YXyafnDvj3EnHGGAeN7Pp0WZKCNpkW94ePx9Pux9ej7tcH/OSR8/Xy7SJk3OyQN/n4YP48uA+4ABA6x79+7OYKCcPk8f3+fJoJ9j347kgTvHxPFl9PHIBzfChMcPLwdu7InHnnizZs1y1/zDDz907lzrxYsXW0FBwYVr5NMAwvi2xJ10UlJS3L2Am8/fx2Hv6+7jhcfHnTSB/GDDhg2WnZ3t7q1p06a5NvDpwplQmKXLV9ikJaXWWwKCuAIQENKK0p2AcKbh4u+7cA/z834vvPCCvfHGG9anTx8nYHF/+vuYMDzbCQkJTnTjHgaeG/pGnpnw8Oz9c+afO+519t6f9Mj/o48+shEjRrh7no0wuIc/F4T1aRN+4cKFNnDgQBeechDeP6s+D855nhHh+vbt6+qIO+Uh3fDnsHG/5svs0/FpE8bXgzik4ePh7uMT1ocjDGHxYystLXX/DyizTyM/P98ZfqtWrXL1I57Pw/eB9CPEYU/64W0UXj6fV1A5OCZeONwPCAgpq1LdfRJ0/4jmjwQEIYQQoom5nIDAxgC3Z8+ebpZs7Nix9vTTTztDb86cObZ582Y3mB02bJibwSONUaNGWf/+/W3+/Pm2YMECJzwwmM3NzbV+/fo5o5MZp8zMTDdA3rhxo/NjgMcAkEFiYmKivfvuu7ZixQrbvXu3jRkzxkaPHu0EifHjx9vIkSNtz549NnnyZOvVq5etXbvWpUneQ4YMcX4MHBlAY4jiRvycnBxXl9WrV7vBamFhoRvQzpgxw83SZWRkOCMiPT3dDUSpI+dJSUlutnHixIkuPPEZlMbFxbk64Y4hTdmnTp1q77//vhUVFblBLHVcunSp/eY3v7EpU6bYzp07XRqUiZn2JUuWuGPqQv19m9DWtAFtwUCaOiFCfPDBB3bw4EE34KZO77zzjjNiiMcgmnpzrciLcjBoJ12MctwxQGhX2hwxKDU11RkZtG2nTp3sjjvucOVlttDXhevKNec6EDYvL8/dH7fffru99tprzo/2or6kTf0QKCiLrwtu1IW2ph7MRNK+tF98fLyLv3XrVidgjBs3zl1L7pvw+1ECgrhaLicg8MysXLnSnn/+eXfeunVr119w3/rnZ/369W6VwfXXX+/u/bS0NPfc8WzwDPGc83xyL/O88mzQP/BMeoN/zZo1Dp6B6dOnu2eLZ5KNvvLVV191e/qC8LR4ZukX6Ut9v4TB/cQTT9jgwYNt5syZF/q5CRMmuL6BZxURgD6SOM8995zrcwjH80l58eO545cIeA55PqlrcXGxe+aWLVvm8qdPYmUAdeWculA/+i3qwbNNXakbeZDm8OHDXf3o+ykjzzZ9I2Xr3LmzdezY0fWTPO/0R4899pi9+OKLTpyhPvTP9MvkS39DGggglB3xlf6Kfo58gX6Z+lB++jP6yaFDhzo36kYdfVsRz4sRIAEhNpCAIIQQQjQxnyYgMIjzM14MwBhsY+AxGGZAzaCQQSkDVAaLd955pxuUY1giLDCoZFC6fPlyN4v38MMPu0Fohw4d3GCPtDHACcOsHgM9BpQYm+TFIPZPf/qTG8hjsHNMWRnEM6PPYPv11193Bit+DCoZwFIeBqW33HKLG4CTVo8ePVwZu3Tp4ga8DMTJ5+WXX3YDeM4ROHjVgMHnQw895AbK5MfgFQECY5+BCvm2adPG5XfPPfe4ATODeGYyGXA/+eSTbnBLvRBaEF5oA8pKPRhoA3Vo27btBQGCLTk52e6++25nUNAWlJVwkyZNumAoUN5XXnnFCTHt2rVz5fWvJQwaNMgN1Gk7Vo+w7BljhHJzXSgXA3WMpUceecTNgDLzSjxWmWCQcIygQJ4YOFxL6oQRQToM8Gk32oe2YYDPAP7RRx915ae9EWSYpb3//vudQXXzzTc7A6B3796ujTA8uCcefPBB1zaIItxTGG8YNRIQxOfl0wQEBDb6DZ6pxx9/3IlYiFf++XnmmWfcc4UhjrhFv4fRW1ZW5oxW7nX6AN93PPvss65Po4/B+OfZ4fnCnb6G59n3d2zc7/SFPCs8xxj/GNCIlpQHwYK8KQuGNP3MXXfd5UQ+BA/6Jp7Vt99+2/XL9AmUC5GOZ4/+GHGV/pCN58o/b5SFZ27u3LkuPCsx6ONxx+im36LPox/k+UUkpr9HxOBZpp2IR19Ie1F/6k4e9B30hQjA7du3d+2EH2mTB22DiEA7IQrTFxGH/oU2o/633XabEzMQGgjL/wuuB+It/RJtwv8L2od6UD7akP8NCMu0A3lTNq4Xok349ZeAEBtIQBBCCCGamE8TEBiMYeiyYXgyeMZYZ+DLAJN9t27d3CCVQR8DbDYG5BirDBoZFGM0YhgSHyOSsMRjkMkAnQEuAgJuGL3MVJMvBjMiBBtxGBSy+YEsG6scMKjJi42BIoNUBtwMKNlYScFgnNl7BtsMehEX/EwjhjgzfAxiGYhTZgbgDHARURAhKBuDXYwFZuQwqtkYrFIWxAEG8AxsGVhTL4wUBraUkfZq1aqVGwxTNtImTWYy2WhzZi0xNIjPRruRN8Y6hj2zodQdAYAyE4dzjHEMCQbvDKgxShhkkw6iAoPw73//+xfakjgYRBjwfvBPvRnIsyEAcP1IgzpjUHAtKB9xMbQo+7p161x46okhgmGBOMD1wMihzYmLwUQ+3EMYJdw3XC9/T3BtMZxoVwkI4ovi0wSEkpISZ1Bz33Mfcl9jwAL3Pv0YzxzPE30CzzbubNy/3N8YsRj19Fn0fwio9An0X6wCwFjnueC+xh+xgLzZeE54jkmb5wMhkTDkQT/Is+RXcvFMkB+rjtgIxww7QgL9FsIEM+8Y6TxLbPR/pOkFBJ5xwrAhqNK/8MzRzz/wwAOuj+G55dmmbPRZPP+UjbzoLygX/Qj9AH0E4i79Gn0Dx5SVPhYBFFEU8YSVFawUo7/HjT6a/p6+gb6TfgqRgY245E252AiL4ICAQD5sXC/qgnBKXMpLu3Id6AfpmykrgqhfDRJ+7UECQmwgAUEIIYRoYq7kFQYG1hjXGLEMzpgVYmaHASEzRswKIQpgCDObx0COATgDVQbSzFYzM81Ajtl6BtoMmK+77jpnCLORH4NMBsgM1hl8MjuIYclAlY1ZdB+eQTtlYICNP2kyIGZQygAVAYGVBAxeGawjEmCYMxNF2TAUMPapF3lhgLP3Bi1xGfgTh9UDDLTJh8H+H//4R7eKgsE5g14GrbQDKwsY/DIAJy4rIRALqD+rFRAUKD+DW9JjYE77YLxTd9/m1BN36sLAndk1BsmA0cA1YU84BvysYGCVAgNtVgKQLisWKAdxKQcDbK4ddce4QLzgmmHsMBCnfAzKucYYAYgFtCdpYET410MwREiD1QYM8jFmEI9oY8qAMYPwwisRiBZebMIAIG3CUl+uHTOe3BP33nuvqwtloX0oD21E/cPvRwkI4mq5nIDATDav3NBHsNH3cF9ivHMfcu/jT1/y5ptvur6B54r7k437mvsWEY3nB0Of+557HffvfOc7rn9hBRD+HOOPeEgYNp5zDF1ECp4rBA2/0ofVWjyzrPCin8Fwp0/lWWajryEc5UWooLy8VkD5MOIp70033XTRCgTC3nfffa6uGP+kRZ1I/9Zbb3UrBngOEfnIn3qwwgLBAOOfvuBb3/qW+x9AeegreU5pH4RW0iJf0uX/AX6IG4gflJe60Z5eQPCvZtCf0j/QX9D/s1KM/pZ+kf6c9qI/QUDAj7xpG/pzhFDKhuBAf0T/R79CvRF1ESi41uHX3l1/CQgxgQQEIYQQoolxAkJKsICA8cv77cyk8V4phiEDUQxiDFMGbszQMcjEHWOb2W8GkgzgWBbPAByj1i//Z/DHoI/BIEt0GYhifJKfN/wx0jGWEQ8YsJIXZcFoZTDLMeEx2MkfMcAPfInv02JpvR/QMzAnHAY3QgFuGMqUifLijwHNjBjpkAYiBbOM1IVZfAamDIQZ7CKAUCeMaGYwMcqpB8YAZWdQTBg/8CVPDHnaBAGAtDjHOECsIJxvc+pJetQFIYI41IVyMlNIHRA8aBvSIG3cCA/kS9tQDq4Zqy4YzFM+4tGG5Ev9mbXk2vL+M2nxSgKrM2g/rhVpUF/CIhgx8OeaMfOHYECZEHooN9eZY9oQwYFrwuwneZGeLyfXgbRYsRB+T3BfUW+fl7+WHi8gTJSAIK6QywkIPHPccxjh3Nc8p9z73Nv+OUYM5T7EMMf4pm+ir+R+577mGOPU94WEQQzgmcMYZs9zh8jAvY4AwPNNfOB+53nwzzHfYmGmn7CUgXzZ0w/Rl2EU06cSl36Rc+pCX+WfVdKiL+MZpD70XdSPjX4HQws/+jnqzDOM6IChTVzq7NOibPRX9DuUm+cY4ZHnmH7A9++UA9GP+tP/0MfQP/B/gWeb/yH40Z+RBtCutCF5UB+ERYRe2oo+j7C+XwTCUGbamT6DfpN+AiGBtFnpBdQHN9qWNiL/8HQ8EhBiAwkIQgghRBOTufuwfZCUaxtDxmh9o59xZCDoZ67YWFLOwI/BGINmBsbMIgFLRDFSMVzZmDligEg40uGccGykw6CUQTKDQtL0eXKMP2GJQ/7kQxqE9cd+BouNMOTl/XxahCEN3Bjk+rxwwx83yk06HPt8KXN4OTinzhz7PJlVxEBgJQCDa98uPozPg7x9nuwpJxv5Uj7KTLl8udmH19PnDcQBjhvXh314vcPLwbm/dsQD0qfdfDjOCcfm43g/yuDjkT7n+JM/G+lQViAd36aU09eFeL6c3o10CMdGuxDel4u8fJt4/M84jtPPOIorBMOQn3HMWzjHzjX6GUfuL+457kvO/XOCm7/38SMc9yMbbv5+9/cqx4Tz9z3pkAYbex/f+3P/4+bTaPwcsyccG/H8OXvC8tz4uDw35OfT9s8mx97N9w3UDSMdcZON+OF19WF9foQP7yM4Jh028iAvXxbKxUae+PmyeT/cgfDh7e/rzzl5sFFnyuXTbhzep0V5wstHfoAf56RDGr4cPh0PP+O4cOkiS+RnHGv0M47RigQEIYQQoolJ31ltoxcUWvbCxdbw8QDxavCDU/bMXmFYe7fGhLsz88c5g83wMJ5LpRFpGud7ubow08gsOwPV8Hpcq7I35krLcblwka7L1ZSx9sRxS8yZY7PW7bZe09MkIIhPpbCiyBbsWGhx2fF29MhRO3kiuL8JItL3/uVonPeVlOXTwuD/aX2050ryay58lrK6OMeOW3Jess3dNs+KKosC7x/R/JGAIIQQQjQx/G+M31RuQ2cm2eGaaqs99cmlnlcKRvSlBIHG+JmzIL9ogVkyP3sY5C++OJhp3F2204bEpVvOgVPWY3KSBARxRZQeXmOTsibb+g3rraH+/GqYlsrV9NGxTH1dvW3bus0mpU+24hq9vhDNSEAQQgghrgHpZTU2In+FJWfn2plGs+lCXGtO19baqdB+WmKqTVqx0XLLT0pAEFdMYWWRzd++wKYkTrHDNYet7vTVr7QSsQOi77Gjx2xG8gzL3zzXitR/RDUSEIQQQohrQuj/4/ZK92sMOfnzQsbaMWv4+D3UoAGYEE0Bq1T4cOLhqipLTM+00fnL3Cs32XuPSkAQV4X7mGJhms1KmW2HDhy68I5+0H0nYhOuN9e9qqLKEtISLWWFPp4YC0hAEEIIIa4RqdsrnIgwNGuhTUtOt7Vr1lhNZYWdbai3hvo6930EceWwkuOjDz8M9BOfAvdbiIP791tRYaFNiE+xsQtWW9rOanevSkAQnwWWqmeWZNmU5Km2fMVy27dnn9Wfpn9rcEvaWwofffhRoHus4q9v+b5y96sM05KnW3pRhsSDGEECghBCCHEN4f8krzNMK9pmw9Pn2tSMPEvMyrWU7DxxNeTMsfi0DBs4ZKilho4Dw4hLwqs03HeT0/NsZNZCm71uT+i+PC8egAQE8VnBaFy6b5nFFyRYXF68peWmWUZeRgsh0zJyM2zQkEGWlp1mmZwHhos9uM7xeQkWvyjBluxZKvEghpCAIIQQQjQD0rZXWsauwzZ7/V6bsnqLTS0UV8P0ku02ct5Ku/PpVjajdGdgGHF5uO8SNpe7+zB1W8VF96cEBPF5WH2o0EoOr7EVB1fa3K3zbO6WlsG8rfPdO/8PvfCwZa3JtvnbFgSGi1VWhPoKrjvXP+i+ENGJBAQhhBCiGcH/TcQEXm8QVw6z5dOLttqT7TuFDOAjgWHEFXCJcZsEBPFFgCHJzzy2FPhYIHV+qWNrW7pnmRVXlQSGi1UkHMQmEhCEEEIIEfWk7ai0aas32xOvdXQf/QsKIz47EhCEuHowoFceWGUvvvmSLd61xBnVQeGEiCYkIAghhBAi6pGAEFkkIAhxdfCMsAIhXEBgBYJ+wlBEOxIQhBBCCBH1SECILBIQhLhyWHmQWZxpy/evcIJBqzdetOX7ltvqkF9GUWZgHCGiBQkIQgghhIh6JCBEFgkIQlw5pYfX2OTsydbu7VfdawuvdHvVVpavsg69OtiYpDG25vDawHhCRAMSEIQQQggR9UhAiCwSEIS4coqqim1F+Uq74dYb7Ol2z1jbzm2s1eut7NfX/9oKPn6VISieENGABAQhhBBCRD0SECKLBAQhro6NtZusz+i+9n/+6q/s7779d/a//9f/tk79O9um2s2B4YWIFiQgCCGEECLqkYAQWSQgCHF1FFeX2IJtC+0nP/uJffl/fsm+98/fs5y1ue71hqDwQkQLEhCEEEIIEfVIQIgsEhBEc4EPFEYDhZVFtv74Bmvb5WX7f/+f/9eeavuUrT26zrkHhW+OBLW/EBIQhBBCCBH1SECILBIQRHOAbwss3bfMCnYttoLdzZ/CqiIbmzHOvvK1r9igmYOtqKY4MFyzI9S+S/Yude0ddB1Ey0YCghBCCCGiHgkIkUUCgogYh/77+HIz3yWHSy2rNNsmxU+y+Ix4i4sC4jMTbGbqTGv7SlubmjDNErISAsM1N2jfyfGTLb0ow7V70PXwaKVCy0MCghBCCCGiHgkIkUUCgvg8rDywys1mrzmy1h2vObrWfQuAJf1rj61z3wsAznHnpw/D4+OWVpxu05NmWE1VjdWdrrPak6eaPadCnK49bUePHrXTp2pDbhActjnhynz4qMWlxFnKqpRPiAj+GvKKBteMX5UoCvUJ646td3AtCRMeR8QOEhCEEEIIEfVIQIgsEhDE5wGDMmVlqo1LH2/rT2yw0cljLGFJovUd28+6ftDVctflWUZxpnV+r7P1GNbDFu5Y5AxS4iIepBdn2PTEGXa4+rAzbo8fP35VnDhxItC9MVca7mo5depUoHsQX3QZPmt6tbW1duzoMSciJK+8WERA9OFadujzur3Wq71lr8mxRTsKrGP/TtbhnQ6Wsy7XXXMfXsQWEhCEEEIIEfVIQIgsEhDE5wFjktcPnn7lGcsszrRWb7Sy1p3buPOXOrcOHbe2PmP62r1P3WezFs621QfPv8pwkXhQc9hOnz5tx44ds/r6ejt58qQzdDm+nJFMuLq6OhcvyN+DP+lj7H9a2EhCWa/W6Pdl920SztWkR7izZ886SMu1hRcRwlYibK3fZi+88YITEN4d3986D+hs74zqYz2H97IPpnxgbbq0dasTGt8HIjaQgCCEEEKIqEcCQmSRgCA+D4gBLHXvMayn3fnInTZg8gf2So9X7eW3X7bxmRNsUvZkW7B9oQ2ZOdSeaPOEJS1Ltg0nN55/bcGvPAgZyN7I3bRpk1VVVV04rqmpcYYyeCOa8GfOnLEDBw5YQUGBnTt3zs2q44dhjPAQfv7RRx/Z6tWrbdu2bRfcvfjg0yU/f84x4UiH+OF+3vj2Ydg3DsMxZfSGP+EoI2WlzD4//AmPP3vfDuF1IGx5efmFMoeXa/78+RdEF/x9GRqng1t1dbXl5ORYbm6uHT582IUlrWNHwkWENbbl9FZ7+a2XbfrcGZa0PCV0HdvZG33fdOLPnI359kirR92rDPo+QmwiAUEIIYQQUY8EhMgiAeHagAHG9wCindUVhbbhxEZLXZVmP//Nz51YMGP+THv+9eet8/tdbOqcac74fHtwN2d88vG+nA257psH4a8teOP35Zdftu3btzu749VXX3UiwtatW624uPj89wZCxvGOHTuspKTEli5d6sJv2bLF9u/f74xlDGXEAgx1zhEjSK9z587OgMaQJy/CkS7pcI5RzfH69etdOTDaV6xYYbt27XKG+Lp165x/RUWFSxPDnTyIixvGPXE3btzoDPO9e/famjVrrLKy0oWjHm3atHF70j9y5IiVlZW5ehGfsLt373Z+5Llq1SpXpw8//NCVPSMjw6VLmJUrV7oykB6iBPXzYgXpIJT4unvhhHgzZsywF1980aZOneral3Z3IsLRYxafEm8pq1Jtx4c7rVP/zu4aJi1Pdtdt9qI4e+bVZxzD4oY7wSjonhbRjwQEIYQQQkQ9EhAiiwSEawOG95LdS23RzgIr2Lk4alm8a0moHsucWPBSp5ds+b4VDgSFKXlTLGdtrvsOwuTcKZZZkuWYnTr7E988wBBnVcHzzz9v/fr1c0buQw895MSB6dOnW4cOHWzixInO6G/durWNHj3aCQL33HOP9e/f3xnZBw8etHfffdfeeecd69Kli+3Zs8ed43/rrbfawoULnYDAioRJkybZww8/bN27d3fpEnfYsGH22muvWXx8vEuPcmDIZ2VlOWN95syZTkgYNGiQm8l/5plnbMGCBTZmzBhLT0+3N9980zp27GhJSUn2yCOP2NChQ51A0LVr1wtlQDQg/+XLl9t9991nffr0cUZ937597Y033nBGPysLKBd1QIh44IEH7O2337Y5c+a4MOSPUEH+b731lrVr186dz54927p16+bCkP7gwYNdGmlpaU5gAPzz8vLcqwy+7f1KhMT0REsLXbf52xY4IWjh9kU2d/O80PVcbonLktw1La7R9w9iGQkIQgghhIh6JCBEFgkITQ9L+N+fOMDuf/J+a9Opjb345ktRy0sdX7JWb7xot959qz3+0hPWpnNbeynk3rbLy9burXaufq1DcNyq44v2audXbd+efXbu7LmLvkeAgNDQ0GCtWrVyBnJCQoI99thjVlpa6gx3DHD8mMHHmGY2fe7cuU5YYMNIj4uLc8Z2cnKyvf76686g7tGjh/Nnj9GPgMCGcT9lyhQ3U9+pUyc3Uz958mQnHGCADxw40IUhP4QH3DHEWQWBKIGBj9iAYDBt2jQnBCB2YMg/9dRTF8qFsf7++++747Zt29rmzZvdcX5+vjP+yZ96sXqANJYtW2bz5s1zAgkCB6seEDIQEkaNGuXqyEY9MPJoQwQQIB3EDMpG3RFeEFNYpcBKBtwQSYjr2x1I48zZM1ZxsMJef+sNe/71F6x1x9aha9vaXT93Pbu+bI+1eszmb51vRVUSEWIVCQhCCCGEiHokIEQWCQhNz6bTW6zju51sXNo4W3s8NpaD81FEfvIvyM9TWFlkeRvzbXridGes8pON4QICy/dZgYARzvbKK6/YuHHjnDHOagNm9VlVgFHNbP+TTz7pZtjZMOYJw2w+qwEw+jHo27dvb0VFRU5YwB9Dmg1jHOOfWf1evXo5seC9996zCRMmOOOJZf+IFqTH6gTSY8UAxjjixS233OKM+V/+8pduVQKz/QgQrGxAgPACAq8bIGYUFhba7bff7lZQsFEWhBDqjLBAG/Ts2dOys7PdaxmU64knnnCvaSBYsCqC9Ckr7cNrEV54GD58uPNDOEBAQJzgtQbqQFnvvfde94pGZmamW92AUOPbHViZUFNZbbOSZ7lfWSisuvinNoFf2EBM4Bc3iqsv/ulHETtIQBBCCCFE1CMBIbJIQGh6NtZutq4D3rKJmRPdgJ3vIbQU+FBfzvpcmxo/1YkIGK/ekOVbA8zyIxJwjMGLEcxsPDPniYmJzgAfMWKEjRw50hn1GNrM4hOWbwnwSgEz/uPHj3cz66xSYDXBkCFDXFoY7Gyk8eyzz7o9AsDOnTvtgw8+cMICryDwCgUrIVgRwGsM+CEO8IoBqxJYFcE3Cpj5Jx++W0AYhAjKSHmoG/Vg5p+0SJtvIlBe0qBsCACEJQ1WHvCKA+ekhRhAupSPOhCHVRMIG2vXrnWvVtBuiAyEoX4IGdQVkQEhZcCAARdeYeCbDqy0CG9zJx5U1diMpJmWuSbLCUFB1w0B4ZW3Xzn/GoMEhJhFAoIQQgghoh4JCJFFAkLT4wWECRkT3O/uB4WJZUpqSi8SETDqMWYxollej9HNOe/pY+DiBqwe4H19vpWAH3sgnv95Qu8H/rUIjtncu/4f58GMPrPxbOTv8yEPIB5pscefY/zJg7B8x4ByspEPaROPMIQnT/LCz5eHjfi4kwZp+nqy5zy8fmzk4UUPX0YfzsdDkCAMeH/C4u7TCg9H/pwTxokHiTMsszTrwk85BoFhKQEh9pGAIIQQQoioRwJCZJGA0PS0dAEBMFYREabET7HKg5XOsMWovRIwyiHIDy7nB/jzKwh8zyA8bON4l/OLNJfL79PKciXl/oR4UHN5UUACQstAAoIQQgghoh4JCJFFAkLTIwHhPBetRDh0fiUCBm/EOX7CzeyzGiDQP5YJ1f1qVh54JCC0DCQgCCGEECLqkYAQWSQgND0SEP6b8yJCjk1NmGoH9h2wk8dPup8UFJHhxLET7rWRmXzz4ApWHngkILQMJCAIIYQQIuqRgBBZJCA0PRIQLgYjNm/jHJucNNniMuJEhJmcOMX92sKVrDzwSEBoGUhAEEIIIUTUIwEhskhAaHokIHySotB9t/LgKltWvtyWl68QEWJZiBUHV7r2DroOl0ICQstAAoIQQrQQ6I9zy09a3oFTlsdeiBgiv6LOEjfus2c6vm1zKxsCw4jPzsIjH1q/uBz7w3232foT621z3VbbcHKjiCB7bJ/1HNbLZsybYTs/KgsM0/LYZBtPiaaC9g6+DsGU2S57vdfrlrIyVQJCDCMBQQghWgCp2ytCxtVe6zFxtnUaNt66jJhkXUaGGDFRiJig66jJ1n7AcLv5ngfsrdFTA8OIz063cdPtsVc72X/89hf23sT3bMDkgfb+xAEiEkw6z7DZw+2hZx+2dm+1s8Ezhpx3DwovRDNh8PTBdudDd1pmcaYEhBhGAoIQQsQ4LO2mPx6Vv9xuuf9h6z5hpr09ZpoEBBFTSECILBIQmpBJA2zQtEE2bPaICwLC0FnDbODUQSH/9z8ZXohmQv/x/W1E/AhbsX+FrT5UGGh8iuhHAoIQQsQo9L+Jm/bZ4PR5ll5WbSPnLLMXu/e1lWfMZhRtCbHV5lbUBS5XFiLa0CsMkUWvMDQNW0LtunjXEsvbMMcqrNJ6DetlsxfOtt22x9JWp1txdYltqt0cGFeIa8351x42SjyIcSQgCCFEDEM/3OGDkfZ81142Zt4qa9d3oE1cusb++MiT7oNz6TuqAuMJEW3oI4qRRR9RbBoKK4ts6Z5l9vCzD1nCkkTrN6afTZ8703oM7WEd+3a0NUfW2qpDwXGFEKIpkIAghBAxTOauGpuyYoP98Cf/5kSD+19oY//+2985Iytn/3H10SJmkIAQWSQgNB3rT2y0jv062c9+8TN7qu3T9uDTD9q//PgHlrgs6byAEBBHCCGaCgkIQggRy2w76ISCJ9p3sv/9F1+yr/z1X9vfffs77nsI9NGBcYSIQiQgRBYJCE0HIkHO2hz75x/8s331K1+1v/zyX9rjLz5upYfXaGm4EOKaIwFBCCFiHPrioVmL7Nvf+Xv7iz//n3bbg49Z9p6j6p9FTCEBIbJIQGg6EAl4j/yptk/Zl/7sz+1v/+5bNjZ1rK0/sSEwvBBCNCUSEIQQ0Uuof8FoSNtRJS5Dxq4ax60PPmZ/+aU/t3emJVnewdqQn9ruStD/sehAAkJkaQkCAoZ7UVVxs4CP0U2dM83+6q/+ym760022onyllR5ZExi2qdEqCCFaNhIQhBDRR6hfSS+rseRtFTZx+QYbv2SNTVi6VlyC8SFmrimzpzv3sL//p+/biPzlNnnVpsCw4r9x99Xy9ZYUus+43wLvRdFskIAQWWJZQMAgLqkptRWhemWvy7Hstdkh2F878jbOsczSLPvBT35gT778lC3aWRAY7lqwdN9yKzlcKiFBiBaKBAQhRFSRtrPKkkL70SEjeExSpiXn5lvmnHmWIS5L9ryFNjMx2T4YMtRyFxYEhhGfhPtrZGKmjZ673AlWadsrA+9Lce2RgBBZYlVA4GcRl+1fbgkFiTYrc5Zlzc223Hm5zYJ5BfNs+MjhNm32NJu7aG5gmKYmZ26OxWfH2+z5cbZkz1LXfkHtKoSIXSQgCCGihvSdVTajdKeNiEuxRQUFdmDfXqs/fdrOnmmwsw3iSmhgr/a6Is6F2qmhvs7dZ/nzF9jQ+HSL37jPGapB96e4tkhAiCyxKCAU15RY/ua5Njlxii1fsdwOlh+0hroGO9NwptlAnx3kfi2pPFRpRUVFNj1phuWsyXHtGNS+QojYRAKCECIqYOUB4sHIGfFWtn17aBDTYLW1tXb8+HFxFZw4cSLQXVwa7rMz9fW2bk2pjUxIs6QtoXtS/9uaHRIQIkusCQjMnM/ZlG9T46da+b5yZ6ifOnUqsA+4ltBnN7d+m3aqD/WJ1ZXVFp8cb5nFWRIRhGhBSEAQQjR7Urceckbb8NkpVrZ9m505cyZwUCNEJGFVwpLFi21MboG+idAMkYAQWWJJQFhdUWRL9i61yYmT7cC+A84YDnrmxeU5ffq0Ha4+bLOSZtmC7QtD90RRYHsLIWILCQhCiGYPxhrfPFiwqMCtPAgayAgRaU6ePGknjx21GSnpNnvd7tD/t4rA+1VcGyQgRJZYEhCYLZ81f7atLlztluQHPe/iykB82bxps83MmWmFVRIQhGgJSEAQQjR7krdX2KikTCvfu/eKX1u40iWfWtL/2fgi2i0a274hNFhevGSJTV1cbKn6FkKzQgJCZIkVAYFfDlhevsKmp8+wmqoaJwwGPeviyjl54qQlZiRawa4CW12hX2YQItaRgCCEaNZgFExYscESc/LdBxMbG52cf/TRR67vOXfu3AWBgVmRKzFQee81Gg3ZL5Jjx465pai045W8A0x7XWn7Noa8iEs+dXV1F6Xh3QkTHudaQLmC7g3Kt3f3LhuTmmupMlKbFRIQIkusCAh8+yC1MM3mLp5r9XXBry7QH/otEq/M0cfxv+pKBXH+t9FfNu4bOadPorwcs/fhvF/4Rh+PYOLTYU94Hz887auBNFYVrrKEJYnu5zCD2l0IETtIQBBCNGvSdlTZ+CVrLT1vrp1rNJBjIFRTU2OzZ8+20aNHW2Jioh08eNAZoqmpqbZ//343+PPCAoMp/M6ePeuOjx49aklJSXbgwAHnRjjcSZsBlZ+Z4jjckMSd8AyavD/Gph+IcezjkybH4eHY+wEe5QovE+X1A0DiEB438vf5+nPCffjhhxfSY+/z49yHJ33ywY08wssEpLNnzx4bOnSorVixwsUB4vt8yNOf0+a0b3V19YXyEcbX0bcVx8TBn/Rwxy0zM9PWr19vGRkZVlVV5dJgYDtnzhzbsGHDhbKF5+3Tpy7+elIfwoSnjzv+hOeY/NmHH/t0fBzcOScdzr17enq6uzf8PQEc86sMY5OzJSA0MyQgRJZYERAwcJNWJNuiZYvs7JmzF55tD33B7t273f+UwYMH27x58y48+/QN9C2+f+UYN/os3Hz/w54+xPdfnPu+i3Rg37597v8V/Z9P2/d94eCWlZVlGzdudOn5+PiRZkVFhe3du9eNv1euXGmLFi1yx6S3c+dOV4/x48fb2LFjbfLkyS4s/zcoF3kvXLjQli9f7tIifZ8n8cnH1wt/3Kh3ePl8OUpLS232gjgrOSwBQYhYRwKCEKJZg4AwYek6JyDwEbvwQQuDnc2bN9udd95p06dPt/79+9vTTz/tBkgMuA4dOmRbt2617Oxs27VrlzvHQGXAhHhAGs8995wLs27dOmfAVlZWugFSWVmZHTlyxA2giIuh6w1U4jKoJG/KgPG9evVqW7t2rZWXl7tB3I4dO1x80mQwyoCMcKtWrXIDQc7JB5GDvJcsWWKHDx+2xYsX2/bt2126DMqKi4udH/lSXgaHBQUF7pg8qCflJz3Kk5OT48rO4JCBH3UlfQxh0qR++fn5Lgzn1Ik6duvWzZ588klXVvyoH/WkDuRDGagb+SAcpKWluTQJT5kpA+kQ1xv2+BEGf+LjxsD11Vdfde1CWX04wrz55puWm5vrBtm4I1QwAKa+27ZtuzBIzcvLu1AfwjH4nTt3rgtPe5IudeY+oPyUG3fal7wYNK9Zs8blSbtybSk/51wT7hHK0a5dO5cv+fh7jjqW791j41JyJCA0MyQgRJZYEhCSV6bYoqWLPvH9A/o3+o2nnnrKhgwZ4vqBMWPGuH6Tvmb+/Pm2adMm14fgRt9IH0u/R79Fv0T/ijhAX8L/Dvon+jH6Lvo9+hu29957z9566y3XN+EW3i+Hl4c0/+3f/s169uzp+k/OgfIQD1Ggbdu2rm/juHv37u7/DOIEfR9i7+OPP+7+1yHeEof/K5SLbcCAATZhwgRXfoRd8qde9KmE5dz/n6Iv5v9CYxGBvrmkpMTiFsZLQBCiBSABQQjRrPk0AYEBz4svvugGU2zt27d3My3Dhw93wsFrr71mU6ZMccY9A0IGhr1793ZiAwMhwmPQp6SkOP+3337bDY4++OADZ0QzCOvcubOb5WEwh0H6/vvvu0ElAzWEg1atWjnjl4EkAgZpYDAz4OvTp4/Lg0Enfh07dnSz/H7WnTAYqp06dXLpDBw40F555RVnpDPYe/fdd11ZZs2aZSNGjHBlZ9UEgz8M8YkTJ9qCBQucIYzhTN07dOjgBqzMnvXq1cvatGnj6ouBTXkoO2WkTAgN1OmZZ55xZSAtyks8BrgMRO+44w7XNgxQGSjSFqSHwX3fffe58r388svOv2/fvlZYWOjyp31o2xkzZliPHj3cTBhb165d3UCaujKoJj/a9NZbb3UDdAaytA8D1j/96U8uHHVlgEqbcG0pK/cA7cIxq1D4XfI33njD5cO1o72oD/Xo0qWLK++4cePcteG+oBzcG4gwd911lysnqyJoP8p79913O9FHAkJ0IAEhsrQEAQEDnT6UfoSNvg5jHfGRfo6+BbGVvmnZsmV2zz33uL6L8LjRvxL/nXfecX3n/fffb/369XMGO4b8oEGDXL9In8L/Agx7hAP6TeLRL3thmvKwTZ061fVhhMegp59CMKcvom/k/xMiOsJ1XFyc66/pn/mfRN/ORr6sQmDj/8frr7/u0uP/Hv9DgP4yOTnZiav8Xxo1apT7/0NfTLnog6knfShu/M/17SYBQYiWhQQEIUSz5tMEBGaLMbyZDWJjNoUBHQMeDENmXRj0MfBiUMcMDcswicNAiUEWhvS0adPcIOuPf/yjWwGAAcrAj4EagzeMfQZNDNJuuOEGN4hCEGBQiYG+ZcsWJ0g89thjTnRgpgZhgA3jm7QROkibdCg/GwM5jGmMbvwRAjBeWWnw/PPPO+OYctNJUzcMdQac5Pfss8+61w44pi0YDDIIfOCBB2zkyJFuVgqBgIErggAz9zfffLMbSD744IM2c+ZMVy8GzYgN+FNWZqPYGGDijoFPmRmwAvXDDWObPIiPsEGZeY1k2LBhbpBL2QiLwc9MG4NlysMAnJk9DHgGwLQhG4Y77lwfwiGScP3YuIaE47UCysh1YsBOnRE/qCOzfpSHwTgrBxAbyAPxgMEv7rhxbyBUYBRw/Rls08ZsnNO++L3wwgtOCJGAEB1IQIgsLUVAwGimr2Wjj0R05v8AAqfv99nTh9B/EwfhgON7773X9a+PPPKI6/f438CKLMCd/o6+i5UB9LMY/IicN91004V+GVHUf6uA/ob8+f9E38bKLwQFxAb6Jfp18vF9KP0ufRkGPf0pwgUb/xOJgzjL/z4EdVZH8P+FMv34xz92/mykSfnpcxFI+J9FOOqLYE89G69CkIAgRMtCAoIQollzJSsQWHrvX1dgRhzjn8ETBiaz4hiIzPowMMLAxjjEOEc4wGBk9gXDnLRuv/32CysEmKVmBhyRggESMCBjVgnjFgEC450OlCWelAGjk8EiaSAIsGqBwSUGPekxm+VfR2Ajf2ayWMmAsUudEBCoA0Y6qwXIn7JhjBP2iSeecIYz5xjrDFIJQzuwx6DGyKZOzKAzUKX+GPgIHMz6M9hjqS4DVAbAtBGCAANjRANml8ifclMe/1oB4akDqyQw2pn9YqOOGPfMeDHgfeihh1zbMxBngIrhzow+7cFgFHGHPYNUrgtty8CcVSPkhYDADN6jjz7q8qSetC1loo7MstFGDGKpC21NWghJDPZpA67PjTfe6AbUzKb9/Oc/d0ISAgYzbSwXZkaN8nFfsOGHCELZEWIaLymWgNB8kYAQWVqCgIB4ydJ9+i8ESfor+h36H/rdpUuXuv6GfgZjnpl6NsRJBNfWrVu7/zv0Uax0QkRGDKBvpZ/GcL/tttucUU6/jNFOv0w/R7/M/xffL9MHsmrqD3/4g+ujSIv+CqGB/p1+mLLRt9FHkw8rqghLPTD0EbzZ6J/p4wjD/wXypB78z0F8oL78jyBNxG4vrFMm/l+RFv0x9aIP5n+oBAQhWi4SEIQQzZrLCQgM7hhsYTgzO8PAKD4+3g1mmP1mJhnjkYEdAzhWEjBQYjZ60qRJbpCGsYyxzwAJQ5bOkIETG8YzBrf/cBQGNIMpBAcGWMy6M6hiwMaMEsYps1e8fkA40mZAyYw3sz3MAmH0ky/lJ10GdQy8EAgYCOLHoNIb+QwYvVHLzBRpcc5qAfLCCGcgyoCOQSSDQGaYGHgyY8QAEcOcdsAQpl2Iw+oKxA/akIEqM1y8gkH5aC/agdUavBZAGWlT6k87sKyXujEIpY0w+AnLORtpM8hksMrqCq4LqwAoO/kRh8E1g3IMdMpMPRkMI6Qg3lAm8mbFBHGpB4IAZeM6IRjwegQrFkiXMIgSlItjrgllpRxce9qCdqFMtC2DcerIax/cJ8w0Ug/vhwAF/rsP/p6TgNB8kYAQWVqCgEAfRz9JH+9XgNE/0Q8gTNLv0//Q9yDmYszTV7HnnD4NUZX+B7GB/oi+k9cSEF0RHBASEHYxxjnm9Sv/WhZCRHi/zP8p/qex8T8FoReBg36N/1nE4f8E5UI8oK8jPepAWfi/Qr+GH+lwTN/L/0v6P44Rgukf/Qo0Vl3xv4Q+l76aNqF8CCOs7OJ/CEKxBAQhWi4SEIQQzRoEhHFL1lpa3id/hQG8UYvxzrJKBl3e0GfPygBgw+BOSEhwgx8GWPhjEDJY8x/gw90P+DBSGawx6ArPjzAMKAE38vL+/pgykS5p+vJ44SAc3PD3ZQl3oxwIAww2KTMgRLAnbfJnloy0fb5+9oq4iBssd0XEYAUAKw0ou//6d1A5fDrecMbdlyscwlFH78feDyiJB/6YvJixI+/wsOxJh3z9bJ9Pg+vIgJwBMtfWu9EePizxaQtWCxCG9FkFQnvhB7iRB8e0CengRjqUi2Mf1vshAOHnw4dDOH6FYbR+haHZIQEhssSSgJC4IumSv8JAH4SISR/g+xL6EPoDZujpG1ll1rj/IwzQB9MPhfen7OlXiEsf4/1Ih/9buAX1y+FphPeZ/L/y/RfnhMOtcZlw98fenXrQXyIEh/d/uFMWn57vV4nj3cCnEw5xEV9nLZhtJYfXBLa7ECJ2kIAghGjWpIeMgkkrN9msrDl2OjRw8QOicBg0QbifP/aDIwZKDHD8O+3e3+/9wItzjFNmu5md9gMnn66P49MNTyPo2KfZ2C88TOPjcLfwcgHlwQ0/XwYfPjws4VhJwWwUs0yNB4A+DY/3a5yO9wsPG+4WFIbj8HOf36XiNM7Px2FAzYqEcGEhqGw+fe8ffs3Yhx+z9+GI1zhMuF+4m6c25L6rbKeNTM21tDIZqc0JCQiRJVYEhOLqEksvzrCchTlWd/q/X09qDH1A437Au/lz7xe+x9/3R+Fxg/oV3DhvHM/j/cLP2TdOy4fzhIcN9/fnPn5jv/D9peoRfuypr6u3ZauWWeLSJCfQBLW7ECJ2kIAghGj2pO6ossHxGc5wqwsZk40HL1cCMz1+tobjoDAe/AnnVzMEhYkGfB2YTYvGejB4DVoFcC3hNZo58+bbhMUlbnVM0P0qrg0SECJLrAgIqw6ttpUHV9mklMlWcejQBUNafDb433Li6AmbkTLTluxZaqsPFQa3uxAiZpCAIIRo9mAMjFlUbIlZudZQdzqqjXoRvZyurbXqikM2Oj7F4jbu0/+3ZoYEhMgSMwJCCFYhxC9JsDkL8u1sfXQLxdcaXgNZuWqVzZg704pC7RrU3kKI2EICghAiKmAVwqCkHCtYutTO1J9fSRA0mBEiEvAaRX3tKYtPy7AxC4ssvawm8D4V1w4JCJEllgQEN0t+aLVNTJtoRcVF7mOKWolwdbBCjHbbsnmLTUyeZEv3LbPCiqLA9hZCxBYSEIQQUUHq9gpL2nrIBiflWHpOrpsJrg8ZdbzSUFf38V5clvq6Ovc6Q5CfCODj+4pVL4cOlNuslHQbml0g8aCZIgEhssSSgABFofIv27/cJqZNsrnz59qRmiOh572uWYFw2VDf4F7l4jgozLXgdO1pO370uC1dttQmJU+yRWUFVlyl1QdCtBQkIAghogZEBFYijF2w2kbHp1rmnLm2YcNG27J5s23etElchi2bN9nGjRts3dq1aq8rhHbasHGjpeXl27DZKTauoMSJB/q/1jyRgBBZYk1AgMLKIrcSIWlZsk1LmW5zF851H59lVn3zJvrJa0yoHPx8Ij/5yC8DBYZpSihDiEVLFtnMlFmWsCjBlpevsKKq6L8XhBBXjgQEIUTUgXGQsOWATV650YZnzLPhaXNsRHq+uAxjshdZt5ET7YHnXrLx+csCw4iL4b4amjbXJi1fb4lbzt93QfejaB5IQIgssSggAK8z8E2EZeXLLWdtjs3Mnxlils3Kn33NSVuebi+0b2W9hvSypMXJgWGakpkhZsyZaZnFWe6VBb55sLpCH00UoqUhAUFcE5hJztl/wnJDsBfiauHeyTtQa/mV9SEaxKew8JjZhGVr7aWe/W3paQsMI4LJO1irvioKmBO6Tgkb9tozb75l+YfqAsOIz86CmrPWd3aW3XLvbaHB4zrbWLvZ1p/YEDNsOLHRNoXqtKVha7Oh3A5ZrxG9bVLOJNtUt9lKDpc2C1hxoF9bEKLlIgFBNDmIBwkb9ljfmanWY8JM6zlpthAiwrwzLcna9Rtkf3rsaes3Ky0wjBDRTK8p8dZ5+AS79YFHrPfUxMAw4rPTd0aKPd2xh/3yd/9pw2YPsxHxI2347OEigozPmGgPPv2gTcyc6AbsQQN5IYRoaiQgiCYldVuFZe05YkMzF9gt9z5knYaNt9c/GOnoMGCEECJCvDl4jD3bqbvdfO+D1mn4+MAwQkQzrw8cZW17v2833nG3vTFodGAY8dnpOHSsPdi6vf37r35uvYb3sndG9bHeI3qLCNJrWC/rM6qvLdi+UN8ZEEI0GyQgiKYhdB8kbdrvyDtwyj5IyrV2fQbaMpZSV9Q5UYHlp/gJIb54FtScswmLS+ylnu/a4hMWGEaIaGZuZb37H/Nsx242r+pMYBjx2Vl09CPrF5djf7jvNttwcoNtrt9mG09tEhGG1yr42OPKA6sCB/JCCNHUSEAQTQL3QWJoYPfW6Kk2s3i7Dc9ZbG169Q8N8hrs7XHTbfyiIsvQR6+EiBiZuw7b8NzF9lyXnpZbfjIwjBDRjD6iGFli9SOKQgghrg4JCKLJ4CNMvLLwhwcesT7Tk639gOH2xuDRbkk1rzZAUDwhxOdHAoKIdSQgRBYJCEIIIUACgmgy0ndUWfy63fbTX/7KfvxvP7df//4W+9tvf9u6jprsvnAeFEcI8cUgAUHEOhIQIosEBCGEECABQTQpOfuOW7u+A+1//8WX7S+//Of20//8lc1es9MyymoCwwshvhgkIIhYRwJCZJGAIIQQAiQgiCYla89RGzNvpf3gX39qf/E//8ye6djNfTwxKKwQ4otDAoKIdSQgRBYJCEIIIUACQgsjdXuFpZfVWEbImEi/BmTsPmJ5B2vtrqdb2Ve/9jUbV1BiuaHzoLBNgWuHUHvoPhWxjgQEEetIQIgsEhCEEEKABIQWQtqOKkvZXmkzSnbYiOxFNjR1jo1Iz2960vJtfP4Se+HNt+xX1//eRmbMtZGZ84LDNgFDU/NsRMiomrlml6WG2ihtuz7kKGITCQgi1pGAEFkkIAghhAAJCC0AZtinF2+zEcnZNis1w4pLS23Lls22edOma8LWLVustHSNLVu+wrZv3x4YpqnYEirL6qJim5qUasPT8y1uw15L21kV2I5CRDMSEESsIwEhskhAEEIIARIQYhzEg/GLS23C7ETbtnmT1dXWWt3p01ZXF4L9NaK+vt4aGhoC/ZqUUDvUsz910ooKV9vo+BSbvXaXG4gGtacQ0YoEBBHrSECILBIQhBBCgASEGCZ9Z5VNWr7BJscl2ZGqSmsIGe3Hjx8XAZw4ccLONjTY1k0bbUxCmiWF2k/3roglJCCIWEcCQmSRgCCEEAIkIMQotHvCpnIbMSvJKsrLra6uLtBwFhdz5kyDLV282CbOXaZXGURMIQFBxDoSECKLBAQhhBAgASFG4dcFRuQusYLFS+1MQ0OgsSw+ycmTJ+1IdZVNTUqzZN27IoaQgCBiHQkIkUUCghBCCJCAEIO41QdbDtjolBzbv3ePna6t/YShzJJ9T2O/K4W4GNxBfpfjavIk/fDwvsye8LCez1KmcGpPnbIFiwps+op17pcZgtpYiGhDAoKIdSQgRBYJCEIIIUACQgySur3CphZts6mpWXam/pOvLmB419bW2tGjR92rDadPn7Zjx459ItzlII2amhqrrq6+pCEfBGH5eCJ5BvkDZfIiwJEjRy4qG+enQgY+/pTfu4dDmCD3K4UPPK4tLbUxOYssPWR0BbWxENGGBAQR60hAiCwSEIQQQoAEhBjECQjF221aWrY11F1sqGN4Y2D36NHDOnToYH379rUdO3Y4ox3D/syZM86AxmjHUOccOCYMx4Q7e/asLVy40PLy8tw1RxggbW/8+3jhQoEXLt58800Xz/v7MOQL+fn5tn//fudP+Xbt2uXy4CcXu3TpYq1bt3b06dPHysrK7Ny5c648gKDRu3dvO3DggHOnLOTpy8M5eXBM+CDx5LyAUGJj8wokIIiYQQKCiHUkIEQWCQhCCCFAAkIMcjkBASGgvLzcHnvsMdu6daszwnv27Omu29y5c23QoEG2YsUKZ2BjjE+ePNmGDBnijPi1a9fa4MGDLTc31xnnhYWF7njRokUu7YMHD9qCBQvcyoS4uDgbMWKEbd++/YJAQJqlpaX229/+1jp27OgM+JKSEluzZo0TF5YsWWJ79uyxO++809566y3buXOntW3b1gYOHGhjxoxxQgfCwuuvv27vvPOOO0YQKCoqsvfee8+JEocPH3Y3c2VlpavPhg0bnJgwevRomzZtmhMLli5datOnT3f1Ci+fRwKCiEUkIIhYRwJCZJGAIIQQAiQgxCCfJiBUVFTYgw8+aKNGjXIz+RkZGU4E4CZITEy0Z555xs3sf/DBB24FwLJly5wx/uKLL1pSUpK98MILtnz5chcWkaBTp07OUE9LS7MBAwbYuHHjnCgxduxYa9eunTPqyfejjz5yhn5KSop169bN5YEwMH78eCcEsDJh8+bN1qpVK+dGvCeffNKGDRtm7777rhMv2MhjwoQJ7hhR4dlnn7Xs7Gx7+eWXLSsry9544w0nDpDXoUOHnOBAet27d3dleuWVV5wAQbq9evVyqybCX8OQgCBiEQkIItaRgBBZJCAIIYQACQgxyJUICA899JAzyB944AFbuXKlM6YRFSZOnOheE2B1QZs2bZyRz4ZhfvPNNzv/zp07u1l8Vhlwnpyc7MQGXh1gFQE3E69HkCavSrAygdceWBVw2223uVUP999/v4s7depUB6sRMPz37t1rXbt2dYIEGwIEbqtWrXKiA1v//v2dEMCWk5PjBAK2KVOmuHJQp+uvv97lxyqKm266ya2sIN9Jkya58rOaghUYiB98SwEBQwKCiGUkIIhYRwJCZJGAIIQQAiQgxCCfJiCw9P/RRx91BjavEDz//PM2e/ZsZ/QjHKxevdrNyDM7z2w/rwjwXQJWKyAQIDiQFrP6iBC8snDjjTfa448/7l5TIA5GPmnzygKvDfDKA68NPP300+7bCRj73HQIAQgWmZmZTlygbKxeQHxA6GA1Aq8ZEIfXHtgQJfBn47sIrJiYN2+eW1nACglEh5EjRzqhAJGAelE/6rVv3z7nzzGvTrz66qsSEESLQAKCiHUkIEQWCQhCCCFAAkIM4gSEomABAWGAWXleN8BA5wODvFLANw5SU1OdaIAwgCjAygEEAl5jwFBHPGCVAW4Y4hjgvMqAaICBzvcQOCZdvjlAWqRNnhjliBDEYUNQ4NWJTZs2uVcpeN0gISHBvbbA6oP333/fiouLXRxeQ+BVhfnz57t0CgoK3IoEXj0A3N9++22bNWuWEwNYlYBQwqoJBBHikn6/fv1cPMLzrQXqQPoIHHqFQcQ6EhBErCMBIbJIQBBCCAESEGIQBIQphdtsivsZx/qLBATAWP7www8vzLpzjJCAUe8hDG58t4Dz06dPO3HA+2OgY7zzagIGuA/Hsf/egf9lBPLAnfgY5xzjRnjSYE8ZiEO+uLGRJ/Epp/8lhaB0CENcXyfSIx3cvciAn88Pd8oIvnzhNITSXlNaaqOzF0pAEDGDBAQR60hAiCwSEIQQQoAEhBiENo/bsM9GJme7VQS1IUO5sZF8KcJn4oPcgvwvRaTCBnEl8a80j7rTtbZoyVIbv6hIg1ARM0hAELGOBITIIgFBCCEESECIUTJ3H7bBGQusYNkKO3umIdBQFp+EFQzHDtfY+PhUS9hcHmpL3b8iNpCAIGIdCQiRRQKCEEIIkIAQo/Aaw+z1e23QjEQ7UL7fGurrAg1mcTHnzp61xUuW2IicRZamAaiIISQgiFhHAkJkkYAghBACJCDEMAygJixda2Pikqx8/z4729BgtbVX/jpDS4FXG07X1rr2Wbum1AbNSrHELedFmKB2FSIakYAgYh0JCJFFAoIQQgiQgBDjZJTV2MTl623ozCRbtmKlHdy/z+r5OOGZBjsTMpivDfVupp8PH/KRx+AwTcO5M2esrvaU7d+7x/LmLbCBs9Ns9oa9biAa1J5CRCsSEESsIwEhskhAEEIIARIQWgAMpOI37rfh2QU2NiXLUvLmWlb+vGtGTshQj09Js0lTp1nugkWBYZqO+ZaUm28jEjNs5NwVlrytQuKBiEkkIIhYRwJCZJGAIIQQAiQgtBC4Dhm7aixp6yGbuGKDe7Vh4jVietFWe2vcDHuwbQebvXZXYJimYvyStTZp5UZL3l5p6WWhAafuVxGjSEAQsY4EhMgiAUEIIQRIQGhhcD0YZKXtqLpm5Ow/YYPT51nrnv0tv7I+MEzTUinhQMQ8EhBErCMBIbJIQBBCCAESEESTk7XniA1MmWMvde9neQdOBYYRQnyxSEAQsY4EhMgiAUEIIQRIQBBNCgO8rD1HLxIQcNMvHggRWSQgiFhHAkJkkYAghBACJCCIJoH7IH79Hpu8Yr3NOVhrA1Pz7aXufW1+9RmLW1vmBn1pEhGEiBgSEESsIwEhskhAEEIIARIQRJPAfZC+o8pe6TfI3ovPspH5y6xd6JiVB0+90dUmL18fGvBVBcYVQnx+JCCIWEcCQmSRgCCEEAIkIIgmI3vfcXs/Ict+8ov/tJd69LMXu/WxOx5/xu55ppVl7zkaCqN7RYhIIQFBxDoSECKLBAQhhBAgAUE0Gaw2YJXB7++6z77+ta/ZP3zvn+yb3/ymDUqdazn7jwfGEUJ8MUhAELGOBITIIgFBCCEESEAQTQo/4dh9/Ez76le+Yn/x539mN/zpbicq6PsHQkQWCQgi1pGAEFkkIAghhIBrKyDgJ1oOoWueETJiZhRttV9cd6P95Zf+3N4cMva/f8oxKI6IbcL7AxFRJCCIWEcCQmSRgCCEEAKuiYCQtqPKUkMkbC63+E3lliBaDFzvzL3H7cE27e1b3/l7m7xyk6VwLzQKJ2Ib99yHnn/6AfqDxn2E+OKRgCBiHQkIkUUCghBCCGhSAYHjtLIam7Jqs43OXmhjE9NtQlK6TUzKEC2ECSGmZuRaz/cH2TMvtrap6Tk2MTk4rIhdxoee+9GJGTYye5FNWb3F0kP9gl53iiwSEESsIwEhskhAEEIIAU0mIPABveRtFTYqa77FpWXamtJSO3bksJ04dtSOHz0iWhAnjh61I4cPW1VVlZ08fjwwjIhtThw7ZkcP11hxcbFNT0mz4VkLLGV7Zai/0LcwIoUEBBHrSECILBIQhBBCQBMJCCG2V9jY9DxbXFBgtSdP2JmGBjtx4oRooZw8edJOnToV6CdaDmfONFjtieM2b/58G5GWb6khAyBo4Co+PxIQRKwjASGySEAQQggBTSIgsDx50rxltmDePGuor3PG43FmnoUQLR76gzOhfiE7b46NnbfS0nfVBA5exedDAoKIdSQgRBYJCEIIISDiAgL/0OPX7bb4tAy3ZJlZ5yAjQgjRcqmtrbUj1VU2OSnd4tbv0asMEUACgoh1JCBEFgkIQgghIPICQlmNzVxcaMuWLHGvLQQZD0IIcfZMgy1YsMgmFRSHDAH9MsMXjQQEEetIQIgsEhCEEEJAxAUEPow2LXOOHdi3L3D1gVu+fOaMnT17NtCf96Tr6uqcH/vG/peDuKR/7NgxF59ZTo5xO336dGCcz4JPnzRJm3xx8+UOigP19fUufJAfhMclrE8Xd9rM0/Dx9yTC4/p2C3e7GsijcZpXA/VqXDfKThtxHcLdv2ioN2X31yIozJXgy0q5g/wvReNr5K9dUNjPw+XuLfDloA7U5VJlob0udx96iHepPPHzzxRhPsu9VxuKt2f3LvetlJSQIRA0gBWfHQkIItaRgBBZJCAIIYSAiAsIydsrbUrK+dcXToYZLt6YxPBYunSpFRQU2KFDhy4YPOzxO3LkiK1fv9727dtnGzZsuMjQ4Ziw4Yaid+OcPHw+pF1eXu7SrampcekR3ufn43MOHONGev7cu3l8WTCWduzY4crp/ciT84MHD14waH0aQNyysjI7fPjwhXT83qdN3cmbOqxZs8btSYuyL1682EpKSmzVqlVWWFjo6uTrwr66utrWrl3r4pCWz9+3l8+PsOH18/mT96XihYfzaXDOceO2x8+HQ+jgGm7btu1CvuH+Pl1/jPul8vX19OF9uKNHj7p6067kH5R2eJren7TC3Whnyrlr164L+fj44WX29QVfJty537guS5Yscb804K+lx6fHMfF8vt7fl8Xn6f18friHXyNfFh8HN+qwd+9eV489e/a452zjxo0X7kficEz5eDbC0w7Kk/akfXHzYfBjz/1HHtz3lGvz5s0uTOMyE9aXzx97OK+urLAxielOeAwawIrPjgQEEetIQIgsEhCEEEJAkwgI01Iz3fvN3ogADAuMjk6dOlmHDh3snXfesYkTJzo/jB78mDE9cOCA88/KyrLOnTs7gwdDg/iAMe0NET8DihvbvHnzbMSIEc6AmT17tn3wwQfOfeXKlda1a1eXFkYRhjz5YeCyJ08/Uwv79+934UibPfnhTv4cE480Fy5caJMnT7bMzEwXnzzmzJnjjFlfNl9O0vzlL39pqampdu7cuQt+QNoYYe+++64TISorK+3ll1++YHhjIPfu3dvuuOMOe/rpp23kyJFWUVHhykHb0W7UiYvq28rXj3x9eXBHaCAubeHzhvfee89Wr17t3IiHgYnx6NvMhyV92pv08Cd9toyMDBs/fvyF9gLyysvLs2XLlrkwGNn8lKNvG5+eT582JG3SJYx3pwyUh7yIQxq7d+92Yahb69atXZ24FmlpaRfSBtoBUYBj7gvSZE96HJO2b6/BgwdbXFzcRdeHsJSb60O5SItj4mJAU0e2SZMm2QMPPGD9+/e3sWPHujJSH9/elJV2xZ1rRnxfd859eb0bx+wpJ9eXe6Jv3762adMmly71Dr9vqQfli4+Pt1GjRlm3bt3cPdSuXTubNm2a86cMlGf69OkX7i3y83kTnzT9NeUe5xny14zwlJX2Wbdunb399tvOj2eaPD788MML9wTl4tinTVzOfbsCeVcdOmjjkjNdvxE0gBWfHQkIItaRgBBZJCAIIYSAayYgYFxg4JExBhHGFEYRs6QDBgywXr16udlSDKM33njDCQje6MeIIw0MvLfeess6duxoK1ascMbLkCFDnGGVk5Pj/P/rv/7LFixYYBMmTLCePXu68jF7/8orrzjjr1+/fg5mirds2WLvv/++9enTxxlLGP8YXMOGDXNGImVEHGC1xNy5c104DFeMJVYCYKw+9dRT9uijjzrDjrK1adPGXn/9dVd+4lPujz76yGbMmGHPPPOMC4MxhlFJPhyTPsb3DTfc4Aw/ZnOfeOIJZ6CRFqICG/VOTk52x6Q7fPhw54/BiEH45ptvupURAwcOdIIC9aGutC/GLu3To0cPe+2111x9MfJoX4z266+/3rX7zp07XZ1Jl7CkQxl55QSBhvYhX66Vb3vcEThuuukm166IBrQ3dUpMTHTXCnECgQShgjBjxoxx15p2w+DmGqenp7vyUn7aGTfKiHv37t2dOMQ1TEhIcNdi9OjRzrinPhitiCsPPfSQLV++3JWZ+Fwj3waIBNu3b3d1495AxOIeQpChrREAkpKS3L1KXIx3jGPuTdoEY5o6UJ+ioqIL9y1loj4cUx7ikT/3lm9vVpRwz3ANaTPafNasWU4s4z7gGiIYIBYhfuHH9SQ89xL3KgIUaXI/cy1pA+5L7i+Ejy5durg2ID3KzUqD/Px8dy/5ulBn6sr9MGXKFLeqheeU8peWltq4ceNc2xBv5syZLk9ECVbW4EeelI+wjzzyiLVv395dP+4P7hWuHWF4HrkmXDOeA645zw3t4vsFCQiRRQKCiHUkIEQWCQhCCCHgmggI7DHKMGAw7NlwYyYTAxLj54UXXnDGGe4YTdnZ2c7YxsDFOMGgwThnBvXFF1+0lJQUZ3Q999xzzjh/+OGHnVGFIYvRiVjBMRsz4KS5aNEiu++++5zRhUDw6quvOpFi6NChLk2MK4xLP1NK+SgHRuCgQYPsrrvucnlhFGHUYahh0GFoEZa45IsggGGFQYghiqHELDlGFHlifFIPjD3KSpqUnTgYfeRPfQiHcUbebBiIXkDIzc117YEBTL7MKj/++OPWtm1bV08M1D/96U8uberGzPjzzz/v6k57Y+ySN2UD4iEqMMOMwYkBj1CAwY/gw0ZZWrVq5cIjdCAmsIqE8BjXtAVhaRfSo+6UnWtOXUmPa0p52VNORAYMePK9/fbbXdkQWkgPw5j0uHbcO8x6k/f8+fNt6tSpduedd7pVIAgfiBEIBbgz2819hLHKtccYv+eee5ygQvtyD2BQUwd/zRGzuEaE5V4lLqIMZWJPu91///1OLEGIwA3DmrZFSKH9EVAoK+1EOTGwCY/ggVHO9aLOfvUI+XJdKC/3IcIXbYfoQrloewQhng2eE9oUsQJBgnuB9iQPBCaeA+pEeggbpO1XINAmpPPHP/7RCUTE59US3Ln3ETZw45lghQzXketFe5EObUH9HnzwQVcX2oF7/sc//rFbFcN1YkOY8PfE3Xff7UQK2oP7mPpQr/DVHbSRBITIIQFBxDoSECKLBAQhhBBwzVYgYGRg8GMk+w0DG6MDQwZjH2MDI8avQMBIQkDA6MBw5pyNsMwsM9OJQY6RBsyoYvywYQj68BiczIhj0GLAkSeGGoYqBhcz5qyEwGjFUGKjzOSNYYthzkwxhvAtt9zijFCW7DMDjrFGfDZeucAIZyaW2WOMe4xRZqxZGcEs+q233uqMauqOYciG6IARSr1ZQo5BibFJGWgHyshG+2CEsVE/hA02yoCogdGG8IDxz0w7eSG00FaUgTowK0xdietng6knhh8GHzz77LMuXWaRMWwxdtmoPzPVbISnfTGsaVPaAiGAjeuMEclGO+POygCW+TOTzwoBBCGuHfcD7cVM+G233eb8KTNGLeXjmnENuEcwcqk3Ri3Xm7oSlnZDdKGdaC822pC6Uk7yok7E5TsF1ImNNuNBwFBn435CcOF+I29WWVBG2of0yJM6U1fCct1YTUBbIhqA3zCOMeAx6qkvZUTA4Z7wG/chZWNDXEKcIQ73BuljzLMhUrCCgbbieiF04M99R3xWd/gHGlGD+5g2QhzgPqA+iC/+2fNGPfcabYo7YgFiGW3D/fLYY4+5/P09hljx5JNPumeJ+4K8KSv3NHCf01b+nmDVCGVF6ELc4N5D5OF6+j5BAkJkkYAgYh0JCJFFAoIQQgi4ZgICBhkGC4YxRgaGPkuaMVhY9ow7BhUCAgZO+AoEwBDDnbCsBMDQxAjCMMGQw3DESGbmlGXoGE5UEqMSAwaDhlljjFgMHtwJR/4IDxh5GLsc+1lSyo9hRJrMgGPU/uhHP3KGD4YrhjF7DEPKgrHFjPfWrVtdeFYZEJ/ZV4xqjFyMPQxCloTTDoghGGsYnxh+uLGMHcOO+JQbgYANgYIyI8YwE02bkTZGMuWnLqx+4ByDE8OY9sL45py2Ih4GPysQvICAQEB7YHTy+gRpMjtPOTFQ/QoERAGMbjYMQ4xi2oswpMnrHBwjMrCygA1hhFlr4pKub2valxlxjGHqg3HJdSE8YTB4ue6Ew6BFvOB6cv2oN3ViBQL3AfcFhjltg1DAEn/qxD3DteH+YNUBIhTXiXZkQ8ghL+pB21MeyuoFBGb9vfDENaEO3KPcu6wo4LrQ1ogIlIv7kjbHcGdFA9cQMYe2IQ7CA24Y4zwL/tUb8mOVDSILdWGjLXg1hnwAUYHngVU6pEM5KDvxuYZce9IjDnUhLEIRGytNaE/yJh/yQOhioy2uu+46J5DQPogClI+y0FaIGohqiGa0E23APU+dSI9nwbcJIgRpUy7EB8pF2yG6USY23x+ABITIIgFBxDoSECKLBAQhhBDQJALCpX6FAYMQwwpjH8OPmWUMacQCDGtmjAmHkcsyb4wvjBDAwMFowWjH4MaYx/Bk+TYGJueEw1AiLQxA0sGQ8e/78346hi9GLuXAyCQeRjpLujE4MewwbHy5yZdyUDaMXEQI/Ck3rwlQXkQD3KkPhizhyBs/yoSYwbJ36o9BRVjEBNKkHXifnPJQZwQA0iFP4lNmzsmTNMmXY+rHzD1lZ3k65WR5OnUiP8qGGINRR519mriRFysNKJs35Hzevp4YphiQXmQgDO1DuhxTF8pN22Nc4sYqAgxt0iAsboSnDhzzugH1pXyky55y4Ee70HbMbANpUCf8SJPrSPpcR/KlfBj4xKFdaE/aC3ECd+KRB4II9xv3BWERZQiPP21CXWlHwvgPWOJHnb0f59SHPLl3aEPai/uW+4d7Bmg/2pv71N8Dvr1pB9KkDbge3o10aEuuIUIXIhgbYhRCBK81EIa60CbkQVyuDW1P2+BHG1Me3LlHyJtw5Ancf74u+NEWHFMGBC/an3uB8pEn9xL+tB9tij9l5H5DmCA/0vPxuCZcL4Qqf0/gR5siwHFNuHb+ufL3nX6FIXJIQBCxjgSEyCIBQQghBERcQMAQmJ45x8r37nEGRbjBABgVzIICx+A/quiNEQwi4rLnHAMI4xDjhZlMDBT8cccoIS32nJOON1QwzPDDDT8MFvICHx8/wpAX+TcuM/mSDv7E92kTjvA+TY59GNL1ZQeOCe8FBdLDnTi+fPiDL5uP7/Mhbng6+Pn6sQ9Pl314euFp+nYIL5/Ph7R8vPB2w588KYcvC+6+7X3+hOc4PBx70vPtRHjvR3zK4euDe3h5vTtpEs9fY/aEIb/wuvg8wutGXB/Wl8PnSX7+3NeXMD4ueRGfY9zDy0ZcH8fXkXMgDHFJlz15+Lx8Gt6NeOTBhwn9Rwbx5xUZRA82wlFe70cc8iUv4vq6hJeHsOQRVBfv59P09zRhfPkIyzl+pIk/bj4PX27cSSv82vgwpM3KEVY2+DzCqQ2lsbuszMalz7GUkCEQNIAVnx0JCCLWkYAQWSQgCCGEgIgLCGllNTZzcZEtXbzYzjSc+YTR8FnBOMFo8UYO+6BwQkQr3gjn2AsOjcNEI+H1Cuds6DmeN3+hTVpcEjIEqgIHsOKzIwFBxDoSECKLBAQhhBAQeQEh9A89Yf0ei0vNsCM11c7ob2w4fFYwQiQciFik8b0dK/f5pZ5ZBJKaqgqblJRucRv2Wuq2isABrPjsSEAQsY4EhMgiAUEIIQREXEBI3XbI0stqbNL8FTY3P98a6upiZiZVCPH5ca9g1J22zJxcG7tglesvggav4vMhAUHEOhIQIosEBCGEENAkAkLK1hChf+xjM/Jt4YIFdurEcffaAR9V9DOSomXBtUdICvITLYOTJ0+41xZOHj9qeflzbWTGPEvVqwsRQwKCiHUkIEQWCQhCCCGgiQSEg27PLzKMyllkM1LS3NfhD1dX27Ejh90vNIgWRE1N6LofsePHjrnjwDAipuG5r6muslWrV9uUpDQbkVNgKTuqLvQX4otHAoKIdSQgRBYJCEIIIaDJBARH6JjlydOKttno3AIblZBuYxPTbVxShmhBTErLsX7Dx9hrnd+2KZlzAsOI2IbnfmRiho0MGbTTireff21B4kFEkYAgYh0JCJFFAoIQQghoWgHhY/gnz1LlxC0HRQskfc8R65+YY891fcfyKurP/+a/aFGwGokVBxm7jzjDlj5BRJacvcdtZP4ye/6t3pZ/qC4wjBDRTOauGptRvM2ebN/ZsnYfDQwjPjt55Set19QUu/nuP1hhRaGV1Kyxospi0QSsPlQYOIgXQohrwTUREETLhlmMD5Lz7PFX3rSEDXttyooNoqWxMsBNRJSZIcOqf1yGPf5aR4tbtzswjBDRDKsPEMkeeqmdTS/cEhhGfHZml+6wjsMn2fW332h56/Msf/M8m7MhX0QQ2nnBtoWBA3ghhLhWSEAQTU5GWbVNXrbOHnixnT3RvpMQogl4+o237J5nWtlvbr7VnunYLTCMENHMkx262MNtXrP/vOEme+r1roFhxGfn6TffslsffNx+/LN/tdadWlvbLm2tTac2IhJ0Ps/Lb7WzOx+6y+IXJ9iao2sDB/JCCNHUSEAQTc+WA5a2vdLdHxm7atyyUyFEZMkrP2Wj562wF95+x+ZVnQkMI0Q0w+q2WaU77anXu1jOvhOBYcRnJ//Qaes9Pd1uvucPVlxdHDJo11tJTamIEAzQd3xYZl0HvGXjUsfZhpMb3esMKw+sChzQCyFEUyEBQQghWgD6iKKIdXhPXx9RjBz6iGLTUFRVbLlrcy1hSYLt/LDM3hrwlk3OmWzrjq23aXOm2eJdS6ywoigwrhBCNAUSEIQQogUgAUHEOhIQIosEhKYBcWDZ3uX24FMP2Mz5s6zf2HedcNC5f2fr2K+TrT26zlYdCo4rhBBNgQQEIYRoAUhAELGOBITIIgGh6dhwYqO99cHb9q//9q/2WKvH7K6H77J/+dEPLHVVqq05om8hCCGuLRIQhBCiBSABQcQ6EhAiiwSEpgORgF9h+Jcf/Yv9n7/6P/aXf/GX9nS7Z6z08Br9pKMQ4pojAUEIIVoAEhBErCMBIbJIQGhCDq22jac22XOvPmdf+rMv2Xf+/js2Pn28rT+xITi8EEI0IRIQhBCiBSABQcQ6EhAiy5UKCMyQ8yFA8flAQOAbCH/9f//a/nDnH1zblh5ZExhWXDmrK7SCQ4jPiwQEIYRoAUhAELGOBITI8mkCAsIBPz+4/MAKy1qTZRklmZZZmiU+Iznrci2jONN+/LN/tadeftoWbFsYGE5cISWhe7I005bsXWYlh0tttX7JQojPjAQEIYRoAUhAELGOBITIcjkBobi6xJbtX24zF8yy6RkzLGd+js1dOFd8HhbMtUVLC2zshHEWlxhnCxcvdG6BYcUVkbdgjsVlxtn0OTOsYNdiK6kuvcgoEkJcGRIQhBCiBSABQcQ6EhAiy6UEBMSDeVvn27iE8bZs5TKrOFhh9XX1dvbMWTvTcEZ8Xs4EuInPTHVltRWXFNukhEmWvS7HrZppbBwJIS6PBAQhhGgBSEAQsY4EhMgSJCAUhVi0q8DGxY23sl27nIF26tQpO378uPiCOHHihCPIT1w9J0+etIaGBqs8VGlTEqbanM1zrbiqJNBIEkIEIwFBCCFaABIQRKwjASGyNBYQ+CBdYWWRTcmeYmvXrXUrDoIMNiGaI/X19barbLdNSZtiKw+u0s9jCnEVSEAQQogWgAQEEetIQIgsjQUEXl2Yv32BxaXHW11tXaCRJkRz5mzDGcvOy7bstTluNU2QoSSE+CQSEIQQogUgAUHEOhIQIktjAaH0yFqLWxRvRaXFVnf6ixUQPs+S/S9quX8svDZwJXVoLvW8FuWora21bVu32ey5cVZYpV9lEOJKkYAghBAtAAkIItaRgBBZGgsIa46ttWk5023nzh12uvb0RYYZxuBHH33kxoQffvjhJ4zDY8eOuW8lnD59cTwP76hfrUHp06yrq3OGIQSFuxLImyXuvC8f5H85KMfZs2dd3dmoC25BYT8r1PFy7RPeFuHXgnKFx+OYMOFxgyA9rlVQm+JHGrQX5+RB2CutM2XgHvHxmxKub8WhCpuRMUMCghBXgQQEIYRoAUhAELGOBITI8gkB4eham5k303Zsv1hAwHCtrq62qVOn2uDBg23SpEl26NAhZ1SeO3fOGYqEOXDggO3evdv9ygDn+GF8Hj161GbOnGlHjhwJFB9IB3dvHBOfuBjq69evt6ysLCsvL3fp4xYel3PCkp83nokfHo4y4J+UlGR79+51x7j7sOTPMWXwhrI/Z4+RnZ2dbUOGDHHMmzfPpUke7DFavYHvyx2ePpAGYbwQQj6+nMTbsmWLKz9+7H36pEP6bIShHLTjtGnTXFnmzJnj4nMNKG9FRYWrJ/G8AU988gsvH+dlZWXuOvpwvj6cl5aWWnFxsRMqcnJyrLCw0NXHl8unGZ7+/7+99w6v6jzTvf/5zjkzk2QmZ+ZMMonPTMrM+TKZE2cmmSTfpE08jo3tuPdewdhgG4PpHWzTTEf03oR6R4Xem+ioAALRixCiCyGB7efbv9d+8bbYgMAsIbbu97p+117l7WsJ9n2/z1qbbfrOdmxsrE2ePNmNmTqok23ysh0+b/66UZ4+AnUwHl+O8/TdzyPn6YefIw91Hj542GZlzpKBIMQ1IANBCCEaATIQRLQjAyFY6mogIN6Ki4vt4YcftsTERJs/f74zBY4dO+bEZUFBgfuuOHHiRHv99ddt27Zt7lxubq6tWLHCKioqrFmzZs4IYB+Rh2ikbgThrl27LC0tzTZu3OjKLVy40ObMmeME9ty5c6179+42cOBA69Spk+3YscOVB/qwbNky1wcMDoTl9u3bXXkEMCITAUq9tP3WW29ZYWGhO0ZZ6lqyZIkrQ59TU1OdSKfc5s2bLT093Xbu3OmE68svv3xRsFPfvn37bO3atc5MoC7qLC8vdwJ/1apVri+UXb58uS1dutQOHTrk6sUEQbgzZvq+evVqN+YXXnjBmSxHjhxxY2P81I9Api7qGDt2rH3wwQeu/KOPPmrJycnWtGlTS0hIcPX7+nJycpwxQD7qon76grlD/9asWeOuF/ParVs3l4+55jjXljRmzBgbMWKEzZo1y1q0aOGMF8a4YMEC1wYmBnVSP9vMIf2kHvp+9913u/ljbugP8845xsccU8/+/fvd9SdPSUmJuyc4xlj27Nnj7glMDMpRP31n/ugH5znHmOmDDAQhvhoyEIQQohEgA0FEOzIQguVaDARE3yOPPGLTp093ohhT4MMPP7Tx48dbly5dnOAeOXKkPfTQQ070c6xPnz4uP+L+ySeftF69elnLli2dsEQUIh4RhO+8844Tx5RDlLJ6jVAeNWqUE4jUQ30vvviiE7mIRMoiNOPi4mzQoEH2/vvvO5GJyUGURPPmzd3+4sWLXf3U8cADD7j6Wf1G7D/22GPWu3dvt2L/7rvvulV9DAVWwBGr48aNs1atWjmBzZdq2sGIQPy/99571q5dO/c5ZcoUN0/t27e3/v37uz4hlJ966ilXPxEbtE/ifGZmpr300kuuz5RhpZ65HTBggKt72LBhbuwIfIQ2++TFLOjatavL88orr7h+tWnTxpXD4CAPpg1tIMTpH9cJg4U52bRpk4siadu2rcvXsWNHVw/iHrFOHwcPHuyMDObi5z//uTNtfOQI13f48OHuunON6AtGBXX169fPCXvmdsaMGXbfffe5uaRP1It5g/GCsXPvvfc6cwITAIOEvjIOynMtaIN54Z7A0CD6AaOD69GzZ0937bmXMF2YS/ZlIAjx1ZCBIIQQjQAZCCLakYEQLNdiILBC/6c//ck++ugjJxgR9v/1X//lRB7CHsHJ6jxiFzPhzTffdKHrCEQEKOIXoYgAR4ByHKGOkEekIwgRl6ySUwf7iGKEPCv/EyZMcGYEiT558wFRi4B+/PHH3co3X36JGKAMK/QIWNpk9R9TASMEkUtfEKCE/NPmq6++6sr4CARW3hG5GCKsoCOAEdMYJghxTAnMDFbBe/To4UR669atXf8wRzA3qJ9IBcaJaPd5iHygPfpPtALmBXXTD8wB5pW23377bdcOpgvzxThoizqbNGniDAIiM+gPRgBmAQaJz888Mwd8cm2YX4wEokQwGbh2RJSQnn/+eWeGkJc2mdcf/ehHzrghYRQQVcD1p78I+dGjR7vrzhwzNkwGxs68cGz9+vWuLRKmBAYMESj0j2vgH1cguuG1115z1w1jAhMDc4N7AHOD6/vEE0+4qAhMH6JhMFcwG0j+PgUZCEJcHzIQhBCiESADQUQ7MhCC5VoMBEQqopdtEqvCRBUQzs7KMuKVVWwELgYCeRGdhM8TgcAjDIh1RDDik9VmQtYJe0c4IxzJ07lzZyduWXmnfkQiAhLhjsCnfcohNhGliFmEMUI/JSXFrWRjXJAXccwnK/y0wSo/BgFlEa20R98YI6Ie4YpRwFgR/wjVZ555xvXNGwYkxC/5GCePGSCyecQAg4LxYphgUFA/c0BiHL/73e+cCKY80QmUZwUd8wDxzpzSL8bNoxGIZ+YW84XjPCJCPkyC5557zkUgkDhHHuYFo4d+ME9cm/vvv98JdoQ1pg7tYQLQJiYB/UH0Y1bExMS4NjEoMHEQ/Mx9hw4dXBu0mZGR4fqN0UGEB49S0B71A2PDJMAAKCoqcvcBc0J9GBZEJRBdwDWgvxgIGCkYIMwVxgPXH2MJE4dxcb9QhvqYDwwe6scUoe/+PgUZCEJcHzIQhBCiESADQUQ7MhCCpa4GAoKNZ9QJU0fYsfoPCHNW1hF4vAeBFx0icBG6RAwgXFkhRxiy8k1YP48/EEZPndSB0KZeBCFidtGiRS4iAVGOmERwEnmAeKQ+nvenHAYEL1jEQMC0QOQiXBHFrL5jHvAuBIwDVv0xFlixRwhznggB+oaBQd2+Dv+yR/ZZ5aZNogRYmWeVHCOB/tBXBDRlEcYIVx474H0BhOAjihHgmCaIXMb5hz/8wfWZsbOSTp+oj2OYH4h4BDwin3mkfUwLHvngHKYFc4vAR2QjzJkH9v1YGC9zjTinT5Shf5gqPGpBvcwH2xgl9Jf2MAUYPwYO7dEf5hBDgLGzj6nD9ebRBR43ISH8MWlI3Cv0h7qITmCcRChgXFA3c05UAnPnDSQgH8foK3PC/UGd3BOYGlwz+kAdHKcd7i+uC0aJv09BBoIQ14cMBCGEaATIQBDRjgyEYLnEQDi5yaZnz3Cr8eEGAiD0wsUa+4hABDLGAMdYTUbcI2T9OQyH8LI+T3g9RAEguL0xwD4RDf4xB44D27xwz5dFeCL2ad/n5RjnfH726Q/9IA/t+XZ9n9imrxgdHKMcQhTBS3/C66U9+sA+5cjnt8lLHfTf1895yvn3NGAm0F9MEiIJfD5fP32ln9RBXb5eP8fk9WXYh/B9tn1dbFOXP8enr5Nt5oj+MR7aIA/XgX0/55ynDs6Rh+vi54VHO4g+wLTwbULtOWFuOebrC88Lvs/0jTz0jfFjSPl9PtnHNKEM+akrvB7gWNmhwzYzY6YMBCGuARkIQgjRCJCBIKIdGQjBUttA2HB8o6WuTrMVK1fYuaovBKoHoVf7GIItXMiRx+fzQtwfD8/jt4E85PXHfZ1+P/wzUtlIea+UxxO+z3n6EH4uvE981iY8r9+uPWa2EcM8uuFNEgQ6jz5gRtRu02/7Pl9uPzxv7f3a236fz/Ax1T5P/bXHfLk8jINoER4f8QZFOD4/UCZ8P3w7/Fh425H6EqlvteG+3bxps6UuSZWBIMQ1IANBCCEaATIQRLQjAyFYahsI68rX26Jdi21WapxVnv6y0BTXD/NI5AGimwgDjrEyfyvPr48ygUjnbxbV56otc3amzSmaa/lHZCAIUVdkIAghRCNABoKIdmQgBEttAyH/yDpbW77OYufOsrX5ay95QZ0QDRnMjG3F2yx2dqytOZJvaw7nRxRKQohLkYEghBCNABkIItqRgRAskQyE/LK1tnTvMpuUONl2l+628zXnFYkgGjyYB0cOH7EZSTNt/vYFtjZ0L0cSSUKIyMhAEEKIRoAMBBHtyEAIlkgGAl8kiUKYu22eMxF4U//Zys9eZEd4OJ/iK1B1zpkyNdWfvdxQfHWqKqts+7btNj1phmVvzrF1R9dfIo6EEFdGBoIQQjQCZCCIaEcGQrBczkAARBjvQ5iWPd3i0uNs7fq17qca+clBcf0wh+vWrXMvH9R8fjWYv42bNljK7BSbljnN5m2fb+sqZB4IcT3IQBBCiEaADAQR7chACJYrGQhAGDhvsl+4c5HFLYqzGXNn2qx5ceIrkL4605q2bma9hvWylOWpEfOIuhE7N9ZiF8yyedvm25oja13kTPj9K4SoOzIQRP2z9aCllpQ5ESOEqB/mlZ+38YvX2hs9+tjiUxYxjxC3MnmHqyyhcJ+90q6rzSmrjphHXD8Lj31sH86abU0evde2nN5iRVVbreBM4SUUVhbZtprttu18SQg+xfVy0Mqs98j3bXL2JCs+t9XWH9sgviK8tyOSIBJC1B0ZCKLeSSsps/gtu63X5HjrMnqKdR0zTQgRMD0mxFqL3v3tvmdesN5TEiLmEeJWptu4GdZ28Gi7+7GnrPv4mRHziOun16Q4e6FNF/vl735lg6YOsiEzhtrgaYNFgIxKGm2Pvfi4Tcqa5L6wR/oiL4QQ9Y0MBFGvEHmQtee4Dc2Yb00ef9q6jJlq7YeNc7QbOtbaCyECoVPMRGvWpbc1eeKZz/7uIuQR4lamw/Dx9k7fIXbnQ49ZhxETIuYR10/nUZPt6bfa2r//5hfWZ0wf6ze+v/UZ21cEyIej+9iAiQNs0Y7F+qUAIUSDQQaCqB9C90Fi0T5LLNxnuYcqbWBSjr39wSBbXmUu7DRz9zHLO3TWcg9WCiECYP7RCzZ+yTp7o0dfW3LaIuYR4lZmTtm50P8z++3V9l1t7pGaiHnE9bPoxKfWJy7bmjx2rxWcKbDic9vc4woiePKPrLVVB1dH/CIvhBD1jQwEUS9wHyQVH3CroNNWF7mXubXo1T/0Ja/aOo2cZOMXrbMMvfRKiMDQSxRFtKOXKAbL1V6iKIQQonEgA0HUGzn7z1inkRPtvx581HpOirPWA4Zbq/7D3POqaSVHdK8IESAyEES0IwMhWGQgCCGEABkIot5I21FuCQV77We//q396Ce32y9/f4d997bbrPu4GZa9/3TEMkKIG4MMBBHtyEAIFhkIQgghQAaCqFey952yVv2G2Tf/8hv29T/7H85MiN+8yzJK9WVPiCCRgSCiHRkIwSIDQQghBMhAEPVK1p4TNnbBGvu/P/t3+8af/5k17dzLvTwxUl4hxI1DBoKIdmQgBIsMBCGEENBoDAT6kVpyxNJ3VYQ4Jm4Wu49Z7qEqe/jVN+zbf/d3NmHZJss5eDZyXlF/lFboPRRRjgwEEe3IQAgWGQhCCCGgURgI6aVHLaH4oE1ZVWgx6XNtREqOxaTmipvEuNzF1rxDN/v9XU1sZPocR6R8on7g72FExjybvLrI/Z3w9xLp70jc2shAENGODIRgkYEghBACotpASN1eZqk7ym3sgnwbk5BmmXlzraioyHaUbLeS7dvETWJHSYkVFBRYfn6+7SottZJtkfOJ+oG/h8KiQkvNzrOY+FQbu2idpe0sVzRClCEDQUQ7MhCCRQaCEEIIiFoDgXaTt5fZ0JRcS5udbeVlh636XJVVVZ0Nwae4eZy1c+fOWU1NtVWd1fVoGJy1mtDfR9mhAxaXnmWDU+e4R35kIkQPMhBEtCMDIVhkIAghhICoNRDSQl8ehqTm2YJFi+18SBidDQnVU6dOCSGugDMSQmTOmW+D0ua5dyNE+vsStx4yEES0IwMhWGQgCCGEgKg0EHiGe/yyTTYrPcvOna20M2fORBRLQohL4e/lbIgJSek2cUVB6It4ecS/M3FrIQNBRDsyEIJFBoIQQgiISgOB6IOhybNt29atVl1dHVEkCSEuz/maatuweYsNTM7RSxWjBBkIItqRgRAsMhCEEEJA1BkI/BTd1HUlNjV9tp09c9pOnz4dUSCxygqXO38jqGvdtfP5voE/H74fTnjZGzWW2u349sOP1SdXG1ft876/4M/V3g//9NtXo655yXMz56su+Pm4XD/PhMZw4uRJG5WUaTM2lFpqSVnEvzdx6yADQUQ7MhCCRQaCEEIIiEoDYfLqYovPyrYLNZGjD2pqapzIO3z4sPusrKyMmO+rgDDj5XSRzoVD20RJeCHnxefRo0cd7PPCwSNHjlhFRYXb92V93/mkjpMhwQf+/PVA+YMHD7o6ff+PHz9+Sdv1xdXm0Y89/BqyfezYMTd/9J3rTf/Ly8svlgmftxMnTlx13sgL/ppEyuOhLvLRRl3ugfqG/jM/zInvZ6Tx14Tuu0kpmTZl7XYZCFGADAQR7chACBYZCEIIISAKDYQym7JmqyVk5VhN9blLRVFITK5cudLeffdda9u2rfXq1ctKSkrswoUL7hwgqBDt58+fdyACEVif/XLAZ3kQtnxynhc0ksefQ5QWFxfbnDlz3Hn2w8uF92XTpk322muv2YEDB1ze0tJSa9mypbVv3966d+9uGzZssAkTJlirVq2sW7dutnXrVtcWbe7bt89GjBjh+puenm7Dhw939fux0F+fl/7TD86z7cUzn+T340FQzpgxw7Zs2eL6T1qwYIHFxMS4bfoYPp9+TjjONsf8eH17nPN52KdN9oEy9J8+kN/PPec+/vhj2759u+Xl5bl930fweRH/zZs3t8WLF7v85OGavvPOO9ahQwebO3eu5ebmWuvWre29995z+fbu3WsjR4507cyaNcvGjh3r5sn3k+N+3vx4PvnkE5s6darNmzfP9ZW8fnzkY9sf46dCBwwYYBs3brQlS5a4/OFzxvz7MfvxcJxjvh62/T1Ff8LHTnvs++PUw5z6fpOHOnz//bh8/aTExESLj4+3cePGuf5yPLyPUBOqa0pqlovokYFw6yMDQUQ7MhCCRQaCEEIIaFQGAoJq//799sQTT1hmZqYTVAh4VtwR8KNGjXKCipXZZcuW2aRJk6x///5WUFDgBCSievDgwU54UV9WVpYrg6hEZCMaOUZe6vnDH/7gRHhhYaET9whzVn4RfZRH8CLMf/nLXzpBR1q9erW98MILzkhAzM+fP98eeOABJ5TLyspcXymPUNy5c6c1bdrUxo8fb2+++aYzFxCLmAkDBw60tWvXOrOE/iMy6SeCHLGIiKbPjHX69OkuwgFxjfGB6Ma08P1nrl555RUnutPS0lzb9B/BunnzZjdu5mrFihWuHeaO9hHuRAAkJSW5eaKfjIPyGRkZ9tFHH7k+ck2mTZvmhDzXA6E+dOhQ27Vrl82cOdN+//vfu/yIZMwEyiHMSYsWLbJf//rXzjRg7LTH/HGc+aLuP/3pT25eKc8xrmOzZs1ce2+//bZrh7FwDbi+9GHp0qW2bds2N1fME2YApg7zRuQK15e8mE+Mmz5xXzA26se86Nevn913331u3mkbmDfyUDfjpI7s7Gw3b5hFQ4YMcXPJfcL1ZJ95Yxxc1759+7qx02f6yHiYO64jY+b6cZ24r7hXuMdTUlLcPnMA1IlJxXgTEhJs2LBh7p71/fPIQIguZCCIaEcGQrDIQBBCCAGNykBAYCKGEd2k9evXOxGFGGvXrp0Tue+//74TWEQnsOI/ceJE94nBQDkEF6vbiLZnnnnG5UVUIiIRkE8//bQToAhe8tMGn7GxsW4FHHGHWETYHTp0yNq0aeMEKuIUsYr4vPPOO12biOh169Y5kcsFQuizeu0NBATir371K/vtb3/rwvNJcXFxThzST0wF+jdo0CB3/vXXX3dRC7RDWcZBv2+//XZnFHTs2NG116lTJyfcX375ZWdSINoffPBBZyxQB6YBc4nBweo/c8r8de3a1a1mUy45OdmJdPpDWYwVxko7COYWLVq4uaePjOvee+91Bsbu3btt9uzZTpAzX8wj9e3YscMdpz0MCUwCxPuHH37ojAoEO4IbI+DJJ5+0t956y51btWqVq+u5555znxgle/bssZ/85CfWpEkTN5ckrjNRCoybsuQdM2aMu7Ycp8+dO3d2eTEPuB7MHdeQOUOkv/TSS26cmD9cP4Q/ddHPcAPh008/dWYA7SP6mVPuE+Yag4YyGDiYIr1793bGAqYM42Ks1Md80C/MBMbCJ9eNSBXaxTDgXqY92sGsYC5oC1OK+cDQ4lpyr/v7KvzvRQZCdCEDQUQ7MhCCRQaCEEIIaFQGAmHciKfnn3/e9ROh9+qrr7pV3ccee8yJRpgyZYoTw6zeIzYRg4j8u+66y4kzhBmh7whcVoYRhh988IE799RTTzmhy+ow0QsIzD/+8Y82evRolwfjAQHvReQdd9zhRD6r7JgHRAuw2o+wQygi6hDF+fn5TjQjDCmLgUDfMCxefPFFt2pN4rEH8k2ePNmJT1b4e/To4cQ07RD1QH/pQ58+fZyJwHgQowhWjAXEOEK4Z8+ers6cnByXh0SdGAkkIiu8GYOwJRIB44BVd98+IhVzhIRRwD75uAbkYY4Q5MwNiTln7onYYFwYCL5tohqIHqEcxzAjMB78Sj/1sJLONaXPiGwMA46x4s/cILC57tSD4MfgIDF+DA+uIXPFfHPdaYd+I+AZh6+LuWJe16xZ44wnjCEeReE6YwRwDkOJ1X0S0S9cR+5Drh/z5MfFHNAPzAPuP+4r5oA+YFowPowZDA2uDWYF9dE/TBnmjkdymG8MFqIRuO8wkpgDDAnyc938taDPjIuxUJYyMhCiGxkIItqRgRAsMhCEEEJAozIQWPUnxJ1Vb0Qs4dwIMFafEXyIcAQsq86IOFaHWdVGYBH6z6o5wpo87COeWTFnGyFPfQ899JATh/7dBoSv015qaqpbsSYv4p++MOmIeo4jbjEyMBHuv/9+J8gxLRCR1OcjERDW3kDAYGB1nk/aICSf1XmiAegL/SRSgPH967/+68XIAeYCIwHR+g//8A9OZP70pz91EQ/0i3EuXLjQ9Z+Vcdr3q+9EKRCRgJDmcQQEOWYKq9jMIQaIfycB4hoQ5pg3iGvmmLEx7/SR8dJnhDEJg4SVdIwDIheYP+aZ8TP3tMe4mF+Et4+ioF6MF0L6MXHYpw8YKNRFHuaOa4kYp07GTRmENHTp0sX1CYgSYT5+8YtfuKgNHg3gnuD+4Z6gPsaAiKcurhV1Ee3B9eAcJgZzwRgR6vQf84ZE1AbXmfGRh+tM3zAdqJN7g34yBswWIhIYM0YF15zrz3z++Mc/dobFD37wAxfRwX3NHNJ3DArmA0OFaBHGyzZGAgYKRhn1c90wN3yEhEcGQnQhA0FEOzIQgkUGghBCCIhKA4FfYcBAiPQrDAglogYQ7qzYIqIQV5gGrBaz2kuoNxEErFTzvDtRCwhrQskRrTy3jhjnOAINMYcIZvWYUHEEJPkR1ghCnp9HWLKCjiCnD7SJsEWEk1j5R3BSHy9GpB9AP1gVJxoAI4ByrBQDeYl2QPhRHhHMijuCn1Vp9ukHK9aIeMwDLxLpM+OjjxyjDIKVbVb2WZHmGCH9jHX58uWu34TKMz6/os7YmEtELQKdhPlAdAMClzr9/DF2IPqB+aKPPNqBwGac1IdYR/wyB8wP/SAvkRv0G+FNhADzzIo94plEnQh0rhePbzB3GDI8eoB5g0hm/hkz88Zx2vPvWeARD+aCPmGscI42MCgwbNgn6gBDhPuAuokI4NEWxkd7iHzmivo5Rt+pA8OEPnHvYKSQ6BPGAPccY+LaUDf1EEmBScL9wDzSHwwI5oQxYHDQH0wNTAOuGX0nIoXIA64HMJfMGe3TFx+BQ53c99RJPu4hDCX/N+I5H2pjcmqWfoUhSpCBIKIdGQjBIgNBCCEERKWBMHVtic3MzLGqyi9+99/Ds96IZxKiiYQY5xhCkZV1xCiCDpHMOVajKYsA83nIz3Ef9k1dvj7OccznDS+H8PO/gsA+wpp92vL1hafwsnz6/NRPXtqkLsr78xwjPwmxT+SCj0agHPg2SZSnLH3jnO9HeJ8pSxk/L2wzTswCjAMEOo80kJfylAM/T+RnXoE2/HnOhddP3f4c7ft+AP30Y/PzHT6f7Pv8PlF/+HzQHz9v9IN9zjFvvl0Spgah/xgkXAPyEXlAFED4+Ogvfac+EuOjfvLw6RORJwh88nMOk4ZHMUi+L7Tj26dOXy/HGCfbQD7GzDE/LyTqBj9fbFMvZcjjr61vgzFjCGFi+fMe9k+fOmnjkrNs+oadMhCiABkIItqRgRAsMhCEEEJA1BkIkLqj3Eal5tjOku12rurLjzGEU1s0Xe5YXbla2SDrrg35EbCshhNdgdiMlO+rQBtERCCs+dUAL+b9udr5a3O5PFcrW5e6a1PXMuRj3ohkYAXfjwkwEbwor13fleqnrBf3bJOX+SLq4Wr1XEs7dSW8DgyPSHXWhI4XFhbZ0JRcS9MX8ahABoKIdmQgBIsMBCGEEBCVBkJ66VEbv3idzc6bY+drvQehsYEYRvhGOncjoH5ENqvZkc7fqtTHvDXUOcNQqDlXZUmZ2TZu6UZ9EY8SZCCIaEcGQrDIQBBCCAFRaSA4dpRbTGKGFWzaaBfOfxG6L4S4Mh9fOG/r1621wYlZlrpDX8KjBRkIItqRgRAsMhCEEEJA1BoIaSVHLL5wn42ITbTCzZvsfHW1W1G+ESHgQkQb/F3w98HfyYb1623QjERLKDrg3ikS6e9L3HrIQBDRjgyEYJGBIIQQAqI3AiEEXybiCvZZTEKG5c6ZZ7tLd9q5ykq7cL7GztdUi5tFSKSyyv3pp5+4R0wi5hH1xsehv4eqM2ds144dlpGTZ0MTMy2+cL/7+4n0dyVuTWQgiGhHBkKwyEAQQggBUW0gAJEIKSHGL1prI5NnW/zsXEsNiSRx80jPm2fTE5Js9PgJljF3QcQ8on6ZlZVrI5KybNzidZYS+hKuyIPoQwaCiHZkIASLDAQhhBAQ9QaChy8T/DrD5DVbbeKKLTZpZYG4SczYsMO6Toi1p956z+IK9kbMI+qPCaG/hyn5Wy019DeiL93RiwwEEe3IQAgWGQhCCCGg0RgIHr5giJtL9v5TNiRtrr3Zs5/NKTsXMY+oZ4jUifD3IqIHGQgi2uHfMhkIwSEDQQghBDQ6A0HcfLL2HLdBKXn2Rvc+lnuwMmIeIcSNRQaCiHZkIASLDAQhhBAgA0HUK+k7yt2XkHADgS99qXrmXohAkYEgoh0ZCMEiA0EIIQTIQBD1AvdB/JY9NnHZRss7dNYGp86xN7p/aPOPXrDYDSU2dXVh6MufTAQhgkIGgoh2ZCAEiwwEIYQQIANB1AvcB3yhe+uDgfb+tCQbmbfc3uk7xJK3HrDnWrWzKSsLQufLI5YVQnx1ZCCIaEcGQrDIQBBCCAEyEES9wf0wMDnXfvKzf7fXOvawpl162b1PPmePNf3sXolURghxY5CBIKIdGQjBIgNBCCEEyEAQ9QbvOcgIfam7+/Gn7W//9m/tH77/ffu7v/s7G5a5wLL3nYpYRghxY5CBIKIdGQjBIgNBCCEEyEAQ9Ur2vtPWc1Kcffvb37av/dl/tzsfeswySissTS9RFCJQZCCIaEcGQrDIQBBCCAEyEG4mzE0jIyMkYmauL7H/+K+77C+/9hfWKWbSFz/lGCF/1FP7nhAiIGQgiGhHBkKwyEAQQggBMhBuArwsMC305Sa+6IDFFeyzuMJGRGi8GXtO2JMtW9vf/+AfbfKqIkveXhY5bzQTmoeE4gOWXnrUfemNdJ8IcSORgSCiHRkIwSIDQQghBMhAqEeYi/TSCpu8ushGZS+y8SmzbXJyhk1NyWxUzMzMtQ8HD7M33m5lsaHtqamR80UrU0JMSk63salZFpO92Kav3+ke44h0zwhxo5CBIKIdGQjBIgNBCCEEyECoJ9J3lFtC0QEbnJpnsWlZtnbtWqsoP2Jnz5y2M6dONioqT52yUydP2LFjxxrl+IFxl5cdtpWrVtr4hBSLyVvuolIi3TtC3AhkIIhoRwZCsMhAEEIIATIQ6gF+fSC+cL8NjE21JStW2LnKM3a+psbOnDljp0Ji+vTp040KxszYKysrG+X4wc/BhfPn7dSJY5aUkWXDZy92jzREuoeE+KrIQBDRjgyEYJGBIIQQAmQg1ANpO8utf3ymLV+dbx+HBKMXkELA2bNnrfpspU1PSrOJK7bonQgiEGQgiGhHBkKwyEAQQggBMhACJqP0qI1dssFmpM+2mnPnZB6IiJyrqrJdpTttWEKGpe3U+xDEjUcGgoh2ZCAEiwwEIYQQIAMhSEJjTy05YoNT8mxTYZHVVFdHFI9CYCydCX0mzs6zqfnbFYUgbjgyEES0IwMhWGQgCCGEABkIAcLY4wr22rC4NDsREodnIkQf8B6Ajz/+2ME2QtK/G+B6OXnypAuLP3funNvmWE1NjV24cMHh6+fYJ598YtW1jA3K0Q/g3LVETVDWv9vhcvgx0xf/LgTKRcp7LdBP6qG+8+fPu/qZh0h5w6EP9Keqqiri+fqC9yEsXrbMRs9dqXchiBuODAQR7chACBYZCEIIIUAGQoAw9llb9tqohHSr/FyQhwtGhC6/RDB37lzHgQMHXJ7jx4874cs2n17ws4/Y9ecA0VtbsJOfukpLS915TISNGzfawoULHbt373YCe/PmzZaRkWGbNm26WD95Kccn9ZCnoqLCbVOXbxcoQ9t+mzyrV6+2ffv2ubz0s7aAZ7+8vNzy8vJs/vz5duTIEdu/f79rB7PCjzW8Pfb9uH17tcft54SxUB/9WLx4savf10Odvn7fN+pgrPRn/fr1Lm943Xz6cmxHOufb5hj7tfP49n274fvh8GLNpcuW27j5q2QgiBuODAQR7chACBYZCEIIIUAGQoB4A2F0IgbCZwLdi0WEJcK1W7du9v7771vfvn1t1apVtm7dOvvwww/t8OHDLkJgz549TsD7aALK7d2796LJsHPnzotClnppg9ShQwd77LHHXB3kZ7tXr1720UcfWXFxsTMS3nrrLRs0aJCNGTPGiXraKCsrs/fee8+ZDAMHDrR+/fpdXNWnLT7pB+14MEH4RBgnJSXZ1q1bXZmDBw+6+jjux8xYOnbs6MbImDEO5s2bZ127dnVin3yMCwOE9rzYpizGwNGjR13d4SYH+8wH7TLGqVOn2lNPPWW9e/e2Vq1auTkkD/1kG/OEvgFp+vTp9uyzz7q593VTL23SH8rRH/ZrzzftMlfsM9fsl5SUXOwnfaQ+xoRBwnxw3s8ZdXi+MBBWy0AQNxwZCCLakYEQLDIQhBBCgAyEALmSgYDgRJTefffdbqUc8UlC/P7qV79yQjw2Ntbat29vXbp0sV27djmhiujHcGC1fNKkSU6EYwAgSBG2XgC//fbb1rx5c1uxYoUT3s8995yLQqAOQvsR8NTlhS99Yxsj4cUXX7SWLVs684A6Ef0xMTGurWnTpll6errrH4m216xZ48QxbU+ePNn1rXv37k7Mt27d2goLC905zAAE+B//+EfLz8+/OOYFCxbYAw884PLTL+aFeWCc1OdNDcwWIgvi4uJcX4YNG+YE+/bt250pgWny2muv2fjx461nz56ufoyEpUuXurlkTLNmzXJGTf/+/d34li1b5uaJckVFRTZ27FhXN3UwTzNmzHBzyfg5RxnGTN3x8fGuX0CfMGowQmDRokVuLuljnz59XLsbNmywHj16OGOGOfPGigwEUR/IQBDRjgyEYJGBIIQQAmQgBMiVDARAVKelpTnB/sILLzhxjLht27atMwE4zuMACFciBbZs2WIPP/ywW6lPSEhw2wjT+++/33Jyctz7DHiWH/GNCCbPBx984AT4XXfdZe+++64TsEQgsPreqVMne/LJJ50oRojTnxMnTri8//Iv/+LaJiHiiWCgrUcffdQJaMQ8ghvxTV2YD6zst2vXzvUF4U47CO+RI0e6fjF+RDP9ev755+3ll192EQhLlixx294oQHzzSMeoUaPskUcecQYA7WI+EDlx3333OcFOn1JTU23w4MHOTNmxY4c1bdrUjR9DAhOBMTPXzClinkgAog0GDBjgzmMODB8+3NXH+Pw4//SnPznBj6ExZMgQ12f64ucbA4BoDowI5oFxY/ZwrTBdgHHTFubF448/7gySV1999aK5QJ7w+0EGgggSGQgi2pGBECwyEIQQQoAMhAC5moGAWEd0kxC9rIKzMs8KNgITMUzKzs524fiE2CNSSRMmTHBRBUQvZGVlOfGMAUAkAGL8pZdesjZt2thDDz3kjAmiDThH4pPQehKfiGUeIyAh4t98800njps1a+bMCkQxddLW7Nmz3eMVrKIjjseNG+eMCyeAQ2MhEoD+0Db9QXgjwFnN92PGTCBhLiDgMQgQ1yTqxfTA3MAsQHgT8YBA//TTT907GxDynKMvGC3MF4YDbWAY0Cf6jgFAeySiOBDuGBiYEUQYzJkzx9auXeuEfkpKik2cONHNm59TIi8wV3hXw8yZM53p4c9xfegrfSP6gz5gDuTm5rr2SERQ8IeFQcI1JPqDfjM3zCnXIfyekIEggkQGgoh2ZCAEiwwEIYQQIAMhQK5kILD6jAglUgBatGjhBCyr+a+//roTwUQLdO7c2e0Tas8LAgnTR4DzHD2r6ohwIgQIn0dAYxZgABw6dMiZA4jxESNG2BNPPOHEPavu5EFMs895Lj5CHAMAA4G+0A9EMwKf/LRLRMCUKVNcvStXrrR/+7d/c1EGhPM7ARwqT2QCEQgIfsaLgUAf6RtRCvQLYY0wJ3ohMTHRGQgYJBgERBMQbUG7RDog9hHltM+c+cgJogkwUXjcAVFOXTw2QSQHfaQNEhEHJMaNyUAbRCsg+BHxjIO5pp88JkIEhB8n7RGpgPhnfplvzAbmm/FijBBBwpxhgCQnJ7u55HpyvQoKCpxZwDh43IH2aYtjtOEfHfH3hAwEESQyEES0IwMhWGQgCCGEABkIAeINhJHxqXa28otfK/CwTwg/K+k8uoDARvASTcDqOS/iQxxjHLCaz4o4jxVQln1ELb8eQFn/DgSiA3jnAfWw2o64pQxCH6HOCjor4Rzn3QOIffL75/ExB3jRICv3rJBTjm3fFhESPO7ACj7mho8s8OOhLowR30/awTTgnB8/72JgzNRFu4yTcvQfQ4D6Gb/vK+epj76RnzEixhHptEU/ee8CK/3U4+fAt0e9vl9sM8+YIkQgYJzQR//SStpjnJxn3BgWRGHQRvh8c45xcY5+0T/mnPc9YHjwuAVzw7Vkn/4xr0R68F4Kyvj+efgZx2XLl9uYefoZR3HjkYEgoh0ZCMEiA0EIIQTIQAiS0NgTtx604cnZtmcvAvOzN/eHgxHAyj3iFXHrjwFCl+OIV44jOL3QB7Yp60PhEaXUEZ7HmxLkIS9wjHx+Pzy/r5f6gH74dslL9ANCmpV5Xl7I+fCytBXeB9qC8Dy+L34FnvyU8+XJTx7OU3/tMZGHc768r5N98vkx+/zMi++XnyPfB9+e76MfJ+d9W77c5c75bT9fvl7K+H0+acP325fzuDkO3R95CxbZpGWbLG1neeR7SojrRAaCiHZkIASLDAQhhBAgAyFgMnZV2IjcZTZ/8VL7+Pxnof7RAGIaEMmRzotrA3PhaNlhm5iUbsmN/G9GBIMMBBHtyEAIFhkIQgghQAZCwKSWlFlcwV6LmZVsR4+UhUT3FyvjtzJ+5V/cGC7U1NjKFSttTM5iS9MXXxEAMhBEtCMDIVhkIAghhAAZCPUAz7OPXbTOYpPTrOrMZ6v3kUSkaJzw8sQ9u0ptZGySJRQf0N+MCAQZCCLakYEQLDIQhBBCgAyEeiK9tMJicpfZzOQ0Kzt4wD6+wHPylXbm83cANC7Cxtwox//ZCzWJRuE+KNm21cbOSrZp+VtDX3r17gMRDDIQRLQjAyFYZCAIIYQAGQj1CCbCuCXrbWRcquXMnW+7d+2y4xVHraK8vJFxxI4dPWrHj1W47ch5ohvGzi80pOfk2bD4dJu2drt+eUEEigwEEe3IQAgWGQhCCCFABkI9g0iML9pvYxfmW0xKjsXEp9noxPRGxfjUbOs1bLS1bNfRJmbmRcwT7cTEp9qI1Dwbu3iDJW07HPriq8gDESwyEES0IwMhWGQgCCGEABkINwHmxP1MX0mZJYW2k7bz2XjIDN0XA5Jz7bXO71vOoaqIeaKf0N9FyRH3yIL+RkR9IANBRDsyEIJFBoIQQgiQgSDqnaw9x21QSp690b2P5R6sjJhHCHFjkYEgoh0ZCMEiA0EIIQTIQBD1S+h+iGwg6D4RIkhkIIhoRwZCsMhAEEIIATIQRL2RvPWg+4KXvf/URQMh79BZF8afsu3gJfmFEDcOGQgi2pGBECwyEIQQQoAMBFEvcB/Eb9ljAxJnW0bpURuaucDe6NHHFhz7xIbPXmQTFq//3EiIXF4I8dWQgSCiHRkIwSIDQQghBMhAEPVG9r5T9nafwfbie51scPo8azMwxhkJ9zz5nMVv3m1pJUcilhNCfHVkIIhoRwZCsMhAEEIIATIQRL2RERIwk5dvth/95Kf2h/sfsgdeeMX++fafWove/S37wOmIZYQQNwYZCCLakYEQLDIQhBBCgAwEUW9wL8zec8JebNPR/uobX7dvhvinH/2zTV6xxbJ2H49YRghxY5CBIKIdGQjBIgNBCCEEyEAQ9QqPMQxOm2s/+D//x77+539mT7z+lsSMEPWADAQR7chACBYZCEIIIUAGwnXAs/rppUfdFxRxbWTsPmYZpRXW5Iln7K//5zdtSMZ8yz141tIi5BV1IHQfppWURbxPhQhHBoKIdmQgBIsMBCGEECAD4RpI21FuaSHxO23tdhuzYI2NW5gvroPp+cX2XKv29uN//bmNmb/KJi7dEDGfuDpjFoTmc8NOd1/y5TnSfSsEyEAQ0Y4MhGCRgSCEEAJkINQBVnhTd5TbhCUbbERChiXlzLH5i5fYAnFdLF623NIyMm3SlKm2bOWqiHlE3Zi3aInFZuTY0MQsm7pmq6WXVkS8h4WQgSCiHRkIwSIDQQghBMhAuAp8IUkoPmhDkrItdXaO7d29y86cPGEXzp+38zU14nph/hwRzok6cQFC83f6xHEr2bbVpiQk28g5KyytVF+cxaXIQBDRjgyEYJGBIIQQAmQgXAH6nrTtsA1OyLTlK1ZaTXWVVVVV2enTp+3UqVPiK6J5vDGcPnPGqs+ds7OnT1lcSrqNXZCvSARxCTIQRLQjAyFYZCAIIYQAGQhXIH1nuQ3PXmy58xfax6z0SvCKBgzm1vGjR2xCQqrFbt6tlyuKLyEDQUQ7MhCCRQaCEEIIkIFwGeh3XOE+i4lNslMnjltlZWVE0SZEQ4JHa5YtW2Zj565wv2wR6d4WjRMZCCLakYEQLDIQhBBCgAyEy8DP442cu9LmLl1h1eeqIoo1UTfqErnRkKM7IvWtofYXo+vwgf02KS3HErdGvrdF40QGgoh2ZCAEiwwEIYQQIAPhMmTsPmYDU/JsS2Ghe748XKSdPHnShYuTPvnkE7tw4YKdOXPmS3m+KrSBGKSdSOevRngfP/30U/v4449vqOil/rNnz7o22I6Ux1NdXe3arqmpcf1hzigbnof9uswhec7Vuh7h53gxI9vk8dtfBfrNGP218OOm/kjj5hjtck+wDYyfxHXgHHUxByTmJLws9ZKfffLWZX7Dob+Vp07a1OR0Syg6ELqXb91HiMSNRQaCiHZkIASLDAQhhBAgA+EyZIS+bA9Nm2tbCgouMRAQeFu2bLFBgwbZsGHDLC0tzYk8hCHiEnHoBabf90LRC1vgnM/jRWn4uYMHD1pJSYkTo5T1eamLPF6Isu0Fuhfn9LEg1Hf6OHDgQBs/fryVl5c7IwF8/yhHeY75PtAedVE/eRCxiHPfNnn53L17t8P3jzY5Rzn2OU598fHxduDAAVu8eLH179/fxo0bZ7t27XLtUg8pIyPDioqKLgpvP5e0zZiomz4cPXrU5fNjJo+f30OHDllOTo5rk7EnJSW5unyfqdObARwnH3WyzSfn/DzySZvMGfXs3bvXXQvSmjVrXH9J5GGsHvo1Z84c1w+2Ob9y5UobMGCAuw5xcXFWVlZmkyZNsp49e1p6erprC+jPhg0bXH7MhszMTFuxYoXru7+uPh9t0We/7XF1nThuM1IzLaFYBoL4AhkIItqRgRAsMhCEEEKADITLcCUDgTRx4kR75ZVXLC8vz1q1amWdOnVyIm/Pnj2WkpJi27dvd/uYAKmpqbZ8+XInVLdt22YLFy60RYsWOVGNANy3b5/t2LHDCdQFCxbYkiVLXBuzZs2y559/3tatW+fKIiAR7AhYyiOYEaDUd/z4cSc2aZv6SJMnT3Z9RLjzXDx9Q1hnZWW5ftA2onnp0qVOECPqt27danPnznV1HTlyxOXZuXOnGwf9zc/Pd+WZh6FDh1rLli2doEd0009Erzcq1q5d6/pHntLSUuvSpYv169fPRowYYe+++67rD/XRN9pctWqVO0afGBvt0h8EPMIaUc38PP74425MGAEIe8ZMOdrgRmauX331VSfiSZs3b3b9oE7yHD582LXBfDMm5tW3d+LECZef+SYv8z1v3jyLjY1114KxJiYm2nvvvef6Qv+oi/nwBsUTTzxhDz30kLsmpA8//NDatGnjrivz37dvX+vatautX7/e1X3s2DFnBpAwejAauPYtWrRw88614h5im/4VFxe7/NTPNsf8vSkDQVwOGQgi2pGBECwyEIQQQoAMhMtwNQNhwoQJblWZVFFRYc8884xbeWZVmdXlzp07O6Hfvn17Gzx4sBPBCNdHH33UCUjyICxJH3zwgc2ePdueffZZdw6xmZubazNnzrT77rvPiWtEIokV/Kefftqys7OdCCXCANGOkCYSIiYmxolbhCzln3vuOUtOTnar2px/+OGHnfB/++23nUieOnWqtW3b1qZPn+7qfPDBB23MmDE2fPhwGzVqlDNB2rVr5wT62LFj7amnnnLjoe+0T/2Ie4wUxk4Z6qfPGCuIYcawf/9+69Gjh+sTYh5x/P7777vy5KXMlClTnMmAUUA95MVUoI+YEAhuzJI777zTzVdhYaHrA3PJJ8ZBkyZN3BgwL0iIdupEmDN3zM+0adOcacA8Y9wQKYCZQB0YBP/xH//hxtSrVy93DbnOzMmf/vQnZ6xgoNx7771ujugXhg3zjWlC/7iezA99JGGavPnmm87ooF6iVl588UV3HhPARxGQGPPtt9/u7htMAkwZ7iXuN+aPecSs4nowb7RFeYwDGQjiSshAENGODIRgkYEghBACZCBchrpEICD2SQi45s2bO2HHyjNCm5V/BDSimkRoPuLvpZdeciHsiEOEOSv/CH5Wu1k1J0QfkUpdRAb07t3blUcYkqgPAUz66KOPXBuYDdSJyMVQuP/++119CQkJ9uSTTzoBjrCdMWOGE8UkRCkr/whgVtFJCPSmTZs6IYwhQf9Y+UbMkhDSCHFSx44d3XFEP+mtt96yZs2a2ZAhQ1wdzAdCGwMCs4CV/G7dujnzgzFs2rTJGQgIZhIiH0GMiOeTOUHMY2oguCmHUYDgx/AgURbDgPlGkDPOBx54wO655x73iAmJcWJSYBww95gXzAGPEnTv3v3ioxDAmJg/8mE2INhpj3Fi0vhrQR2MhUT9mBRcX8bKOIB7o3Xr1i4PdXFtuW6MjWuPmYOJ89prr7koCAwIEpEOP/7xj90YuQ7MORENo0ePduYNEQeMk8dAMA+YY/L5e1MGgrgcMhBEtCMDIVhkIAghhAAZCJfhagYCYh2RT2QAwhbxzEo/ghDxiihnhZmJ5VEAwvpZNUZcs08iKoHVbsrzCACh+Qhr3hnACjYr6hgEhLh7AwHRSwg9wpeVb4yBF154wYliHgsgRB4BzSdRBeRH2JIwEKiX/Q4dOjijApOAfhJ+jxBG1GKIkBDdv/71ry+upCNmEf9EUrB6j6BGHPOcP2IbQUu4PeYFq+4jR450xgGmCo9HMF+IaN8fhDYGBYl+YJhgGPznf/6nq5u5JSqDVXhMCMwJHjN4/fXX3co95gtGDfON2cDjEKz08+gCESFEIRAlgDHA9eDRBIQ6ffv973/vDBTmkWuKAcA1/clPfmKrV6+2n//85y4qgrnnGiDUmV/KM//eiGEeeZSBqAnGSPQD84S5w7h57ID2MADIQ1s83sLYmEeiM4hyoB8kzBA/d9TN/GJg0H/uDcoxp9wrmBLcFxgS/t6UgSAuhwwEEe3IQAgWGQhCCCFABsJluGggRPgVBsQmjyuwso2oRAgj8BDePN+PGEYEIvQIPWeVH0HISjOCFjMBwcj5O+64w4luhB+PN1CWlWtWmolGYEUeIYtgpl1MAYQ+bSF4EccIVkLjWQ1HyLN6T7QD+RDg77zzjhP+GBaA4KdfCFnKcZ52EOREViBIEfkYGHfffbfrB4lHFxCumAeslCOY/TamAWYFoheTgEcC6Bsr6RgHiGWiFegTY2csrKRjGrBNu/QFcwVhzEo9+Rg75ZlnzAUEPKIaI4T55FEH5gzBjoFAtAJ5aAeRTwQBeekXhghj949qYJoA15S2eMwDA4V9xkUdPObBtcP8YQ6Z8/nz57sxUwbzh34zBt5LwXmfeAcFc0jEAhESGBFcK4wmIjaAummPOacOjAref8D8cy9hPBAVgYnA2Lz5RIQHx0n+vgQZCOJyyEAQ0Y4MhGCRgSCEEAJkIFyGzN3HbFDqXNu05dIIBP9CQ8Qogo1P/xw6kQQYBAh+xCn7CHBWjhGJ5OU4+3369HGCkhB0VqoxDhD+1I0I9vmp17dLO5z3feHRhfC+0BZClO3w436fen091O/7TZ/pF/nJx0sFEeaIfh8xgJgn9J86fD/4pB8cYx+B6/epnxV83x9fhvZ9H2gzvD/AfFDe10Pf6Bfb1OPHRN7a8805yvn8vo/0i32MAEwC3kfAuMgL9IG8tE3d9Jl9X5evm3O+ztpjoD++fV+OY7RLPsr68swL1woTgmO+D+T142RslPP95zzHeGSFP1gMHM759sC1cfKETUvJ0M84ii8hA0FEOzIQgkUGghBCCJCBcBn4IjJhxRZLy51r1SFBFy7SviTWPif8OKIx/FikfUQvLx5EGCIoEcAbN250IhFB6vNGqj/8HHn9eeqF2nmuVAdwLrwcdWJkEGXhhTF9JMoC0YrADS8bvk1ef6x2vXXlSnVGyhPpPPhjvg76TaQEv3xQlzKRzkU6Xhd8WV+e9qF2vkhQxveX68CjJzzOUNs8gHOhMe7cvt2m5cy35O1lEe9t0TiRgSCiHRkIwSIDQQghBMhAuAJJ2w5bTFyKHTl00Am32mLtq4AYZPXZr16z71e4I+WvbxCs9M+LXL86fqPnoT7x5kz4qv+tBmPAOAiPdAjnfE2NeyfD5CVrLb20IuJ9LRonMhBEtCMDIVhkIAghhAAZCFeALyBjF+ZbWtZsO1/9xU/lCdEQwVg4sHePTUhKt6RtB2/pvz1x45GBIKIdGQjBIgNBCCEEyEC4CmmhLyHDUvNs/oIFdr76s/cDRBJvQtxMXETC8WMWm5RqU3j0Zmd5xPtZNF5kIIhoRwZCsMhAEEIIATIQrgL9Tw59KRmWNsdSM2fboQP77dzZSqsJCTZxfVRXn3Oh9ryokBdURsoj6k5VZaXt3rnTpiQk2/hFay2tVF+cxaXIQBDRjgyEYJGBIIQQAmQg1AHGQCTCuMXrLCYu1VJz59jaDRtsvbhONtrqNfm2fMUK27BxY4Tzoq7kr99g8Vk5Niw+3aasLrZ0mQfiMshAENGODIRgkYEghBACZCBcA4SF82b7SSsLbGjGAhuRBQvFNTJm7nJrP2SMPfH6WzZhYX7EPOLqDM9cYENCTFmz1VJCX5zTduixBXF5ZCCIaEcGQrDIQBBCCAEyEK4DvqRkhL6Mi+sj99BZGxoSvi169bd5FRci5hF1A1HI/RjpPhUiHBkIItqRgRAsMhCEEEKADARR72TtOW6DUvLsje59LPdgZcQ8QogbiwwEEe3IQAgWGQhCCCFABoKoV1JLyi4xELhHdJ8IESwyEES0IwMhWGQgCCGEABkIon4I3QeJhfssoWCP5R06e9FAmFN2zt0jcZt36V4RIkBkIIhoRwZCsMhAEEIIATIQRL3AfZC89aC1Hz7eJi3fZDG5S61F7wHOQGg/dKyNX7TOMvSFT4jAkIEgoh0ZCMEiA0EIIQTIQBD1Rs7+09Zl9FT73T1/si5jptm7/YdZi/cHWJMnngl92SvXvSJEgMhAENGODIRgkYEghBACZCCIeoMvdzzG8Ivf/qf9049+bD/7j9/Yd77zHes1Oc6yD5yOWEYIcWOQgSCiHRkIwSIDQQghBMhAEPVK9r5T1uajGPvrb37TvvY//rszExIL9+rLnhABIwNBRDsyEIJFBoIQQgiQgSDqlaw9J2zcorV2+y9+Zd/4iz+3N7p/aHkHz0bMK4S4cchAENGODIRgkYEghBACZCB8RVK3l4W+tJRb+q4KSysVVyM9JGJyD1fZI01b2N9997s2aeUWyz5QGTGvuBR3n4XuN+67SPejEJdDBoKIdmQgBIsMBCGEECAD4TpJLSmztNAXlJmbdtmEBastJiXbRqbk2KhUcTUm5Cy0Fp162J333W9j0ufY6PS8iPnEl+H+GpGcbeMX5lvspt2WVnrU3YeR7k8haiMDQUQ7MhCCRQaCEEIIkIFwHaTtLLe4gn02KmOeTUtKs+UrVtqu0lLbXbrTdu0UV2NPaK62bd1qGzdutH179oSO7bgkj7gUf38tWbbcJiWm2vDM+RZftN/Sd5RHvE+FCEcGgoh2ZCAEiwwEIYQQIAPhGuHnBqev32EjYpMtf81qqzpz2qrPnbOzZ8+Ka+BcVZVVV1dHPCcuT1UId7+dPmXLV6ywQTOSbMbGUndfRrpfhfDIQBDRjgyEYJGBIIQQAmQgXANpJWU2q2CvDZuRaKU7Suz8+Ro7ffq0nTp1Soh65cyZM/bx+fNWVFxsA2YkWXzRAT3OIK6IDAQR7chACBYZCEIIIUAGwjXAOw+Gps6xNfn5duF8TURhJ0R9gomwcPlKG5w+z9JL9YVZXB4ZCCLakYEQLDIQhBBCgAyEOsI4Zm3ZY+MSUu30yRNREXlwq4+hIfT/ZveBSIRjxyps2KwUiy/aF1WGnbixyEAQ0Y4MhGCRgSCEEAJkINSRjNIKG5G73BatWGk11ecuEXIIyY8//tiN/8KFC1ZZWWlVVVWX5KsrJ0+edPWQqJf6OMbnp59+6o7X1NR86Vi4mOU47ZM4d+7cpX3mWF0E8NXy0RZ5eKcB++fPn3f7HK+dtza+/5H6Fw5C+ZNPPnHjoX6O0R7Ha+e9Fvw8AXX5xNxGyh8O18X35WZSE5q7jAVLLWbuqtB9qi/NIjIyEES0IwMhWGQgCCGEABkIdSQj9OV7eNYiW7N2nZ2v+UwoexCeCOzU1FTr06eP+zx48KDt2bPnosBEICM4fV72Occ+L8fjHJ++TrZzc3Nt+PDhlpCQYOXl5U7kHjlyxCZPnmz9+/e3BQsWuHoOHDjg8pw48UVkBMe3bt1qo0aNsnHjxllBQYE7Rh2IY0hJSXFlEeIIadr0xgdinU/q2759uzsO9Bdjw5sFQL5NmzbZ+vXrnVkxZ84cy8/PvzhGL8YpTxu12yosLLTs7Gx3jDLkp5wfC20eP37cZs2aZX379rXZs2e7vMnJya7/3jyhPuYxXPz7PpCfejjPMW9ckOjr0qVLrayszCZOnOjmbOXKlW6MvrzvO+XpM+fox9ixY1055su3G359Kef75efTn6vdT38PkIc5Dj/PNuepyx/z8DjNwuWrbGj20tB9WhHx/hVCBoKIdmQgBIsMBCGEECADoY5gIIzIXmyr89daTZh4BsTjzJkzrUWLFrZkyRKbN2+eTZs2zV5//XXbvHmzE5uI8Ly8PCeEoaSkxBYtWmRHjx61vXv3OrMA08GLTITkK6+84sRs9+7drXfv3m5ue/XqZe+//74zD6gPURkXF2ff//73bcWKFU540ifSlClTXB0zZsywF1980Xbt2mWHDx+2devW2dq1a51op38co91Dhw7Zvn37nKDPyspy2xgXzz//vBPr9JW+MT7KIXp9W/QzJibGEhMT3c1EW4jexYsX25o1a1xexkkbtIXwZ588RUVFbvyI4927d9vq1audgGef9jAIMFLat2/v6kO4Ywa89dZblpSU5MZNXurLycmxDRs2uPYwVOjH8uXLbceOHW6fdrZt2+bmDTNm2bJlNmDAAGcc0M/HH3/cjeGFF15w15J+0iZzxPWhfspt2bLF7rvvPleOtqnHj5Pru5OfWwyV379/v8tPOQwl+s05DAt+xpLrzBxwPzAuzjE/XF8MGeojD3m5JsxPbRPhQqj8ohWrbFjOMhkI4rLIQBDRjgyEYJGBIIQQAmQg1JErGQgIXAyDJ5980ubPn+8MA/bvuusut4+wfOedd5wJwAo6AvmBBx6w0aNHO5GJIcBKds+ePZ1gRUAiEjEgEJ5EHCCeSV27drWWLVs6gU0+xGWnTp1s2LBh9uGHHzphjOgmYSBQJ+L5oYceciZGx44drXnz5jZ37lwbOnSoTZo0yUUzkPr16+cENufGjBnj2ly1apXde++9NmjQICfGaYd+Y2osXLjQjZVEH3/xi19Yhw4dnOnAnDAm8jM+xoEoRqyTMEIQ5iTmYMiQIU4sv/TSSy4/ZgwGByv11DV48GB3jrx+fJgjbdu2tdatW1t8fLwzDugH+5gczOETTzzh+oqJMHDgQBeN0a1bN2eg0AfGjmmAEcB1YW65Bq+++qozLZ5++mk3BgyCDz74wJXnGsbGxto999zjxkVZP05vvDz44IP20UcfuXaJSqEc15/5fOqpp1xfuA6YNfSbdqmD+4V5w4zh2mEyYZC8/fbbzgiij1zz8PtPBoKoCzIQRLQjAyFYZCAIIYQAGQh15EoGAqvKiFUeCcAoQPxOnz7dCUcSwnzChAluG4GNWG7Tpo3bRygi7hGNjzzyiBPVRDQgphHIiMw77rjD0tPTXX6iAKjr5ZdfdmYCK9kIUoTrY4895lawvagnKgITo3Pnzk5YYy68+eabTsiT3n33XVeevmBIIFJZMWdVH/GMCKZeTAdENY9E0JeRI0faa6+9dtGwIE2dOtV+8IMfuD6RCOtv0qSJE+i0w7hZiX/vvfdc5ESrVq3cWDAHMC0oxzwyLtriMRDmDQOB48wzAhpThZsVk4I6WJmn7z169HBinX4zb/Tt2LFjLnqCdjAA6DvzTBtcp3bt2rm+Mh4EPiv+5MGQwSThWtAeCTOGiAPKM9+Ml+vLfN9///0Xx8lcFRcXuzaIBmEu7777blf/M8884/pH5ATXiHYxPjBVMJxI1HfnnXc6c4drhWlBv4gg4boTZaEIBHE9yEAQ0Y4MhGCRgSCEEAJkINSRKxkIrIgj7PhENCL2EJKIWsyAESNGuBV88rI6jnBkVZyEKMRwYCUaoUioPAIR0YxIJ3oBkY+QRQizuk2dfD766KPuuF8tf/jhh11EgRf11E0UAXXRL0C8svrONgKVqAJEMUYDUQcIWEQ3/WH1nfcOYDCwTyQDq/WsirNqzj51k3iEARHN6jyGBSbAs88+a2lpae79CIhqEv37/e9/7wQ4ibGwio9oZ/4YT0VFhSuHeMZA4Dih+4hu3l2AkGcMRB9garAqz3w3a9bMRU8QCYA5gGFBfZTHZCBChPcd8D4IVvoxZ1jNJxKBa0Qe5hxzgsTKP6YAiYgDzlEWaB8zpLS01M0XhgfjZN9HFJAwfrgfeOSDcpgcXAOuEXNGvXwSfcA14VEGoiYwWTBH2OfRC8ZJ5ATjxFxiTP7+k4Eg6oIMBBHtyEAIFhkIQgghQAZCHbmSgYCwRVRjBLCyjYD1jwsQYYAoRyAzyUQC8A4CTATEMYYB+TlPmD4RADyagEBEjCM8WaVHTCN+iXJA+BMtgClBWDzP1pM4j4inPAIV8YpgR5hSH8KTNnh+nz4TRo/xQRuYDwhf8mEAYH4gsAm5R+QyLkQs7wdAuHMegU2dtMVx8jEmQu9ZeecxAkQ2whdBzDgwEjAQfKQE+akH84K26T8GAvPJqj95eEdAZmammz/ENyv2GBdEclAP/ecxAv/YBXPDuDFcfH0YBUQVYCwwl7x3gagAohgwGTIyMlw9zA9jol/MB5EAtE9dXA+uKe1i9mA6YGgQQeHHiTFBn7g2XAfEP/NMBAafGAjUybiYI8wT3gvBnGJW8NgGUR/hc4xZQd2MjXdR0L/w+08GgqgLMhBEtCMDIVhkIAghhAAZCHUEA2HY7Mi/wgCIX8wAxDxiFZGHyPXilTz+JYlEGID/NQJAyLNiHl4nx6kXKOePYzKwwk8bHKcdnz88vN234/d9Hurz2z4fgpZPXxcRDr6vfPI4AP1FTCN4aZ99X69vi/LUhXDmkzFRF23yckEeLUBIY2r4spTxffGfHKM+n4fyzB91+bn1Y/Hzwz5zQ34/X+H1UY5+03/2yUN+yvu6fH7fJvuMk76wTfuMKbzPjJOoBc4x7trlaIdz3B/h5fx8sU8Z7gHmiDnmERD65ueYbfpd2zyAj8+fdwaCfoVBXAkZCCLakYEQLDIQhBBCgAyEOpJRWmExc1bY4uUr3e/u1xZxgBhEFCIG2efTb0c658ux7cWkPxYpj/8kr68rPE94Pr99tfORtiP1Nbxvvn2/7/OE5/fbvi5AQBPqjziOVD78s/Y2+Houlxc4T5uXy+PPR9qvnb/2fqTy/pwfpz9Wl3J8+u3a5dkGtiPth1Mduh+zFi6xkfNWh+5TfWkWkZGBIKIdGQjBIgNBCCEEyECoI4xjVsFem5SUZqdPfrbKHEnMicvDnPFowOWEsLh2MB6OV1RYTHyqxRftt5Qo+XsTNx4ZCCLakYEQLDIQhBBCgAyEayA19IVkRNoc27Rxg52vqYko6ISoTy6cr7FVa/JtaPpcfWEWV0QGgoh2ZCAEiwwEIYQQIAPhGkgrKbPYTbtsbGyiHTl00D37HknUCVEf8DLPg/v32rAZiS46hvsz0n0rBMhAENGODIRgkYEghBACZCBcI+mlR23SigKbMCvBDoXEG5EI/qV4QtQHVaH7jV9e2L97l8VMj7PJq4vcfRnpfhXCIwNBRDsyEIJFBoIQQgiQgXAdpJdW2JTVxTYyNsmWLFtmB/fttfPV59yvM7hPcUVqQvDLAZ9+8ol7IWWkPCICofuL+dq/Z48tWLzUhsxMsqn52/TiRFEnZCCIaEcGQrDIQBBCCAEyEK4TvpwkFB+wkTlLbUzKbIvNyLaErBxLFFclOWeOTYqNt2GjRltq3ryIecSlcH9xn41KzrKY3GWWsPVg6D4sj3h/ClEbGQgi2pGBECwyEIQQQoAMhK8AY8sIfSlP3HrIJq0udqHkk92nuBK8R6L7pHh7+u12llB0IGIeEYkid58lhe497rto/tsSNx4ZCCLakYEQLDIQhBBCgAyEGwBjTCs5IupI9v5TNjhtrr3Zo6/NKTsXMY+4PDIOxPUgA0FEOzIQgkUGghBCCJCBIOqdrD3HbVBKnr3RvY/lHqyMmEcIcWORgSCiHRkIwSIDQQghBMhAEPVK+o5y9yUk3EDgS1+qfoJQiECRgSCiHRkIwSIDQQghBMhAEPUC90H8lt02fvE6yz101ganzrE3un9o8ysu2Iy122zqqgL35S9SWSHEV0cGgoh2ZCAEiwwEIYQQIANB1AvcBxmlFdbyg4HWbdwMG5m3zFr1G2rxBXvt6ZatbeqqQhedEKmsEOKrIwNBRDsyEIJFBoIQQgiQgSDqDe6HIWnz7Mc//Td7vlV7e7VDd7vzocftqTfesdn7TkYsI4S4MchAENGODIRgkYEghBACZCCIeiN1e5mLQrjv6Rftf/3NX9t3b7vNvvvd25yokYEgRLDIQBDRjgyEYJGBIIQQAmQgiHole99p6z0l0b773e/a1/7sv9vdjz1lmbuP6yWKQgSMDAQR7chACBYZCEIIIUAGQkMnNH/MYbSQsavCZm3cab+96177q69/zbqNmx4SM5VRN07GE/F6CnGTkIEgoh0ZCMEiA0EIIQTIQGigsCKfHhLbiVsPWuzm3TZr8x6bteXWJzY0jrSQkHmyZRv73j/9H5u8utCNMVLeW5LQ+LheSaFriFmi+180FGQgiGhHBkKwyEAQQggBMhAaIOmlFSEhuttG5i61CRl5Ni0l02akZdmM1NBnFBCXlWv9h8XYO++1s/jZeVE1tukhpqZk2Ni0XBs1d6UlFh8MfZHVr0uIm48MBBHtyEAIFhkIQgghQAZCA4K5SguJzZEh4Tk+IdWWLV9uB/fttXNnK+3smTMhTkcJZ+zM6VN28sSJz8cWKc+tyhmrqjxje3fvsvkLF9nw2GSbHPpCqy+z4mYjA0FEOzIQgkUGghBCCJCB0IBIC33hGZa1yBIyZ9vxo+V24XyNnT171k6dOhV1nD592ipDQjvSuWigqqrKLtTU2P49u230zHibsmarIhHETUUGgoh2ZCAEiwwEIYQQIAOhgcBjC6MXrLXpKRmfrcpHqXHQ2KiprrZ9u3fb8FnJ7nEG/T2Im4UMBBHtyEAIFhkIQgghQAZCA4A5SgiJy0Ezkqzs8CGrqpJ5EE0QSTJvwUIbPW+lZZRWRLwHhAgaGQgi2pGBECwyEIQQQoAMhAYA7z0Yu3i9JefNt5pz5y4RoIT7n+G9ASHYDj9WO29t6povnGspE94nERkeZ9izq9TGpuda0rbQ34P+JsRNQAaCiHZkIASLDAQhhBAgA6EBwBf7AUk5trGo2M6FxGZtAVpZWelE+vHjx62mpsaqq6vt2LFjVlZWdlXxfuLECZc30rlIUB9laCvS+docPm1rI30AAB2uSURBVHzY5ZeJcHlOh+AFi1OSM2xWwV79TYibggwEEe3IQAgWGQhCCCFABkIDICP0xX5gcq4VFW+9xEC4cOGC5ebmWvPmza1r167Wt29f27dvn23dutXi4uLc6jamwvnz5902706gDPukJUuW2LBhw5zpcO7cOXec/JgSHKMNynCO7U8++cQyMjJswoQJbtvXRZ6TJ0+6MuxznDJTp061Xbt2uTp9Xl8vYCxwzNdBGT457vPRb1+OiIbw8XDet+nPs00eX0/t/EA++uPPUZZ9yjB2joE3Z3w+zof3h3Ph81Z7TEBb4X30ffBgIFSePuV+4jGuYK8iEMRNQQaCiHZkIASLDAQhhBAgA6EBgIEwyBkIl0YgkIYPH+7Mg71799qAAQPcxcJAyMnJcYJ17ty51r9/f/fJ8ZkzZ9qQIUNszZo1Nm/ePOvcubN9/PHHNmfOHBs4cKDl5eW5ujiHKN6+fbstXLjQiWnStGnT7KOPPnJCefTo0TZq1Cg7cOCAMxSok3MzZsywDRs2WGZmph05csQ2btzojlH/ihUrLopvTIfU1FTX79WrVzuKQ+OsqKiwBQsWuPMYEJgc48aNs/Lycjeufv36ufOI/kWLFtmgQYNs8eLFTqzHx8e7PtAXBH96erobP/nYB/qbmJhoI0eOtOTkZDdm+sa4aWP8+PGuvYMHD7r8aWlprg76XlJSYiNGjHB5OE9/aI/5wlxgnjBv6DNjY/zLly93fZw/f/6XjAzwBsIMGQjiJiIDQUQ7MhCCRQaCEEIIkIHQALiagYCAxxAgIcpfeeUVFyHQp08fJ5SfeuopJ5JLS0tt1qxZdv/99zszoXXr1s4AIB8GwrJly5z4fv755y+e5zEI6qY+xDqJOmgT0Yx5gZh+//333eMKzZo1c2L89ddfd4Ibc4I+xMTE2Msvv2xJSUnWsmVLJ6ppc+XKlfbEE08484J81IPoPnTokL333nvOPHj33XddJEN+fr4zP95++21nFmzZssUJ+tdee82Nj5t06NChbvyYC7t377Z169a5+onSKCwsvBihwPG77rrL9fWRRx5x5WDw4MHWq1cvNy76T3/Wr1/v5pC89KdTp07Ws2dPZ3YwDvoSGxtrzzzzjDNbME1atWp1se6JEyfaW2+95frIHNBn+iADQTQkZCCIaEcGQrDIQBBCCAEyEBoAdTEQEPEkRPwLL7zgogQQwqz0I/7btWvnHj2YPn26WwknseqPOMcgwHhAMI8dO9aJZUQweXkkom3btk44E6pPwmQgL0Ke9hDRXjBTHwlBjRjv2LGj7d+/3/UR8U8d1EckBCKasj7f0qVL7YMPPnAr+rxjAaGO2MaM8OnDDz909fhEvQ8++KBNmjTJRWFQlpV/yrLaz/sX2O/QoYOLIvCPJ2BcMCck5ol9+tSmTRtXH+1gkDA3RCRgLlAHRgRGC/3l/KZNm1w0BPP2+OOPu0gN5pcIBFL37t3tnXfesSeffNL1kX7x2IgMBNHQkIEgoh0ZCMEiA0EIIQTIQGgAXM1AQNw2bdrUiVcEMKKfcH2EOkKclXseHyAPEQdPP/20y+vNA1bZWa3nOGH/rJoTZYC4/93vfudW20m+vSlTpjiRjInAIwCI+B49eriogRYtWjjzgU8ENm3wTgb6yEo8gp4IBB5TQETv2bPHtcmKP3mJVOjdu7czCegHjxQgwP0jEZgaGBeYDQh+Vv/ffPNNZwBQT0FBgRsvc0A+HjFgn3pfeukl98JIHrXABKAfbGMGIOrJ1759e+vSpYt7PIH6ioqKXP+JNvB1rF271j2SQKQDfSXqgrL33XefMxh4lAFDJTs720U/YC4QzYEZQj+ZJyIh/DWUgSAaAjIQRLQjAyFYZCAIIYQAGQgNgC9eonipgcCKPoKWFXMeRWDlm1V2HlfAJGD1HIGPoEbkJiQkOBGMAcBjAz4fkQq8E4DVdCIWtm3b5qISCMsPXzGnPd5ngKBGnFMPkQzUQx6ENcbBc8895x47oOzRo0ddfgwA3mlAu4ho6tq5c+fFOnisgEcmiEjA2CBiAqGNiGdsmAy0yWMQGBZEG9BmVlaWE/L0m3aoD3jEAfFPfdS/atWqi+9AIKKCfvA+AsZP/zEz6C+fGB7MKQYFJgZ1MC7mEJMA04UoD0wWoi2onwgDxkP9GB70kfmjbkwF+si1oE/k8ddQBoJoCMhAENGODIRgkYEghBACZCA0ADAQBiRmW+HWbZcYCP6XD3xiRR3hj0BFXCPAedcAkHihoH8EgHca+F8UoK7wfHzyWARRBtTlV8xpD+HPyxU5/umnnzqohzz+EQLEM8KZRH/oI+Wog3bJS13U4dulTswPxuAhP2Vpw/9KQnj+8H4DecO3qc/vM07aBI5TH9scp17/eANjoT3K+D75OtgnD2XpX3h/SJznkQ3MEwwIog+oj7zk4ZP6aJe+AwZCVeUZm5aSIQNB3DRkIIhoRwZCsMhAEEIIATIQGgDppUctZs5Km7dspVWf+7KBUFcQ8UA0AFEJ3hCIlM9v79ixwz1ygOANz3M5KEsEAS8rpByGQbhQvhy+b5HOeWrnqZ2/9rkrna8rV2vjcueACAdeqMgc+Lm+XB8qK8/YkUOHbEp6jiUWH5CBIG4KMhBEtCMDIVhkIAghhAAZCA0A5ih28x4bE5fiQt0vJ0TrAmK2roaAjyqIdO5ykB/RXNc2ohXmjnmoy7U6X1Nja1avtrF5S51ZFOkeECJoZCCIaEcGQrDIQBBCCAEyEBoIaTvLbWj6XFuxapV9fOGLN/iLWxsMlzMnT9iMlAybvq7EUkNfcCNdfyGCRgaCiHZkIASLDAQhhBAgA6GBkFpSZvGF+23wjETbsX2bXTh//itFIoibD+bBhZpqm7dgvsVkL7L00oqI116I+kAGgoh2ZCAEiwwEIYQQIAOhAZG+s9xmbNhpQ6Yn2Ib166266qzVVFd/toodZVRCZWXEc9HA+ZpqO3vmtM2Zv9CGp+RY8vYy/S2Im4oMBBHtyEAIFhkIQgghQAZCAwMTgTf1D0nKdj/7t3bdeisvK7MjZYftyOEoIjSm8iNHQtuHLj13C1P++XVasWaNTUxMtWGZCyw59DeQVlIW8XoLUV/IQBDRjgyEYJGBIIQQAmQgNEAQm2mhLz+TVxe70Peh8Wk2PD7dhidEB6NSs63bkJHWrHV7G5sxJ2KeW5bQdRoSl2YxIaE2dW2Je2xBfwOiISADQUQ7MhCCRQaCEEIIkIHQgOHLUOqOckspORJVZO0/ZR+lzLGmXT6w3LLqiHluddJC143rF+m6CnEzwEAYPnuRNevS2xadNMved0qIqCL3UKXFF+yxV9p1sbzDVRHziOtnfsUF+zA2y+5+9B7bdHKTFVYW25ZTBUKIegDBVlhZZBuObbRVB1dHFHVC1BcyEES9k7XnuA1KybM3uvex3IOVEfMIIW4sGAjjF6+zux590kUhvNK+mxBRxasduttzrdrZr++8217r2CNiHnH9NO3cy+579mW7/ec/tXe6vmOtur9r73RrJYSoB1qFaNq6qU3OnmKbTmyOKOqEqC9kIIh6RwaCEDePycs326i5K2zMvFVCRBVjF+bboNQ59thrb9i4RWsj5hHXz6RlG+3dj0bZ75v8p6WsTLG0/AxLXZUqhKgHcjbnWo+hPaxT/05WXLU1oqgTor6QgSDqHRkIQtwsDltG6dEQFZ9/ChE9ZO05YbEbdthLbTqGvn+ciphHXD95h85a7+lpdtfDTWxd+TrbeGKzrT+6QQhxNSo22Mbjm9xnxPN1oPjcVpuQPsG6D+luRWeLI4o6IeoLGQii3pGBIIQQ4kajlygGi16iKMT1kX9krS0qXew+I52vCwi2McljZCCIBoEMBFHvyEAQQghxo5GBECwyEIS4dtYf22Dpa9Jt9OTRlroyze1Hync1ZCCIhoQMBFHvyEAQQghxo5GBECwyEIS4NjALklelWFJ6klUcqbD0rAxLXJb8mYlwOHKZyyEDQTQkZCCIekcGghBCiBuNDIRgkYEgxBpbczjfEelcON48SExNtFMnTll1dbWdOXXG0jLTLHFZkq07tj5iuXDC25KBIBoSMhBEvSMDQQghxI1GBkKwyEAQYo0t37fCvQxx88ktlzUSvHmQ8Ll5cPbsWTt58qRVVlY6EyE1I82SfCRChPLUy081bji20bXHMRkIoiEhA0HUOzIQhBBC3GhkIASLDATR2FkbuudzNudYr+G9bMbcmU7kbzld4AwFnwdTIMWZBwkXzYNTp05dxJkIp89YmjMRiET4ouy6o+tty6kCZ07ELY63nsN6Wub6LFtbvk4GgmhQyEAQ9c5nBkKutejV3+YfvWCZuyqEEEKIrwQCN3bDTnvpvU6Wve9UxDzi+plzuOqzn3F8pElI6PAzjls++1k6IRoJRARsOV1oMfEx9rNf/szuf/x+i4mLscWlS5yo33x6i6WsSrXEy5gHXzIR3OMMqS4SATFG+WV7ltuYlDH2yHOP2k9//lMbOGWQMxRod2v1NpuQoZ9xFA0DGQii3skKfckbmJxrTzR7yyYu3WgxuUuFEEKIr8SoOStsQGK2PfLK6zZ67qqIecT1M25hvr3db4T97u7fW8LSBEtakWKJSxOFaDQk8Lk82WZvzLYuH3W2b/3tt+yvvvFX9svf/Mre7vK2jUwYZamz0+zUydOXNQ88PhIhKzfLxiSNsda92tiv7/i1ffOvvml//c3/ae/1es+1kxRqj3Yz12VZ14FdrVP/TlZctTWiqBOivpCBIOqd9J3lNm11kb3crqu92qG7vdaxhxBCCPGVaNq5l73QuoP95o9NQtu9I+YR18/r3T6w+5971W7/95/auz3edYLn3R6thWhcdH/XOvTpYK17trHv//D79rU//5p942vfsH/8f//Jnn/9BVu1apXTQpFMg9p8+umntnHjRnul5av2o//7z/aX3/hL+/pffN1u+9+32Vtd3raO/Tq59mi3dc/W1rxtc5uWN909OhFJ1AlRX8hAEPXP1oPuWVXef5Cz/7TlHBBCCCG+GnmHqyyhcK+90q6rzSmrjphHXD8Ljn1sH86abU0evde2EHJdtdUKThcK0WjgfQfbqrfbuvL19sxrz9p3b7vN7n3kPus3vp/NLZ5nqw6ttgkpE23Tpk12vuZ8RNPAU1NTY0VFxTYhaaKtOLDSFmxfaAOnDrYHn3rI/v7v/94eevohW3VwtW2r2e7aBR5d4HEGjkcSdULUFzIQhBBCCHHLo5coBoteoigaO/lH1trSXcvc4wrPNnvWpuRMdcf8ixQxFpbtX25jEsde0UTAPCguKrax8eNsyZ6l7uWJlOd9B2zPmDfTXnzzRRdxsGjHItdGpP4IcbOQgSCEEEKIWx4ZCMEiA0E0dvLL1lpe4RzLWJtpG49vcoK/trjnlxoumgibLzUR2PfmweI9S9wvLISXpw3EGY8pZK2fbTmbc92x8DxC3GxkIAghhBDilkcGQrDIQBDisygEogTWHM6PeB4wBZyJkPDlSITakQe1zYNwqJ92MCQinRfiZiIDQQghhBC3PDIQgkUGghB152IkAibC5s1OH9V+bCFSOSFuBWQgCCGEEOKWRwZCsMhAEOLa8JEIE1Mn2bz582xyyhT32ALvSoiUX4hbBRkIQgghhLjlkYEQLDIQhLh2iDRYuneZvfTWyza/ZIF7WWKkfELcSshAEEIIIcQtDwbC1NVF9vw7bS1n/xnL3H1M3EDmlp2z92ek292P3BMSQett08kt7iflhBCXh5ctwpsdWzjhxcsRI+UT4kog2K/03o36RgaCEEIIIW55MBDit+y2B5572Z5v1d5ebNNR3EBead/V7nnqBfvJz263FiEx1LLzW6HPlkKIK9CyE58t7Hd3/s6at30jtK+/G3FtvNHuDXuzw5vuJ0Qbyks1ZSAIIYQQIirgO8esjTtt0rJNNnn5ZnEDmbluu7UdNtH+cO8dlr0p2/IK5rifmBNCXJ7cLXmhv5cc9whDen66/m7ENbNg+0J74c0XLWvD7Abz/gwZCEIIIYSIGohESN9ZLm4wuQfPWK+pqXbXw00s/0i+rT+20b0kTghxeXgHAj/9+EaHN235vhXuHQiR8onohOvtrvmRyOfrQsGZInur89syEIQQQgghxK2DXqIoxLXDc+urDq625u3esCW7llp+2dqI+UT0gXG0bO9yW1S6+CsJf96bwaMvMhCEEEIIIcQtgwwEIa4dGQiNk/zydbbywCqbnjLDxsWOtwU7Ftq6o9f3CxwyEIQQQgghxC2HDAQhrh0ZCI0PIg9W7F9lU5On2dbCYtu7e6+NjxvvfsaTR1oilbkSMhCEEEIIIcQthwwEIa4dGQjRw5qyq/+M4mfmwUqbmjTVCjYXWE11jWNX6S4bFzfucxPh6pEI4W3JQBBCCCGEELccMhCEuHZkIEQHqw6sdu8z2HK6wL0UketaOw8vSvySeVBTY6dOnXJUV1d/biKMt3mYCBWXGgHUSYRCwZlCV8/K/avccRkIQgghhBDilkMGghDXjgyEWx+uIddtXNo46zqom+UVzrEtpwqciHbX8+AX5sG05GmXmAceIhF2f24izN/x+eMMobLUQX2wYNtC6zWitw2ZPsS9Q4FIBBkIQgghhBDilkMGghDXjjcQ+BlH9jef3GIbj28StxhEHuSHxHyzNs3sxz/5sTVv29xmzJ3pjIPCs8Xu2k5Nurx54LkYiTBrvC3cuciKqopdRMOshXHWslNLu/3fbrfHXnjMFpcusYLKQtf2turt9k7XVpa5PksGghBCCCGEuDWQgSDEtYOBAE+9+rSNTR1n0+fOsGl508QtxtQQsQtm2cx5M+2u+++yP/tvf2bf+c537O4H77buQ7rb+NgJVlxYfEXzwIOJsHfPZy9W7DqkmzV5qImr65t/+U37zR2/tQnpEyxucYJrk7YxF5546QmbvTFbBoIQQgghhLg1kIEgxPWB6BswcYC17tna2vfpIG5J2luHvh2t14heTvB//S++bn/zN39jt912m90V+jex36B+dvL4SauqqopoGoRTWVlp586ds5gJMfbAUw/Yd7/7XfvG175hX//zr9sdTe6w3iN6W8d+nVybtP3e+22t2+DutmLfygbzCIwMBCGEEEIIcUVkIAhxffAIw5bThVZ0ttgKK4vELUhx1Vbb8fEOGzZzmP3wn35ov/7Db5whlLwixb3LgPcixCbFWkV5xRVNhLOVZ+306dM2Ky3OklenuEcUMtdmWfu+Hew3d/zGvvf971nfcX1t+/kS16Zr/+xnfSCSJdL9dTOQgSCEEEIIIa6IDAQhRGMFk2By9mR79LnHrO/YvrZg+0IrOP3ZOwr46cb1xzZY5oYsm5k40yqORDYRzp49a6dPfWYexC2Nd2WIKNhwbKMzCJbtWW7DZg63x1983BkV1NuQTINwZCAIIYQQQogrIgNBCNFY4RcRMtdlup9WJJqEFx/WzoMhwC8lOBOhViSCizxw5sEsm7U03pkGtctjUnz2ssa1lrE20xkKMhCEEEIIIcQtiQwEIURjhndZXO0dBF+KRMBEOFvl3nngIw8uZx6Ew083YiY0VPMAZCAIIYQQQogrIgNBCCGuTriJcOLYCReJ4MyDJVc3D24VZCAIIYQQQogrIgNBCCHqhnucYeNsi0uNt1mpn73zwJkHhyPnv9WQgSCEEEIIIa6IDAQhhKg7vBhxyIwh1nFAJys6Vxwxz62KDAQhhBD1z9aDlrbjiPt/AmEihGjYzCuvsQ9mZtrdj9xjG49vdC8S23RisxBCiAjsuLDTxmeMt57De1lRlQwEGQhCCCG+EmklZTZrY6l9lJRj/eIzrX9ClhCiATMkba693r2f/cd//cYmZk20yTlTbVLWJCGEEBGInT/LWnVrZV0GdZWBEEoyEIQQQlwfof8T+H8h92CldRkz1e596jl7t99Qa/n+AGvZe4C16N1fCNEAeafvYHsk9N3uX3/5M+vYv6N1/qiLderfSQghxGV4r3dbS1yWFDUvT/TIQBBCCFFvJBbts9SSMptTds46DBtnPSbOshVVZnMOV1n2vlOWd+isEKIBsujEp9YnLtuaPHavFZwpsK3V263wbJEQQohIVBZZcdVW21Cx0VYdXB1RiN+qyEAQQghRL/DOg+n526zHhFjLPXDGuoyeYl3HTrPs/afdsRlrt7s8kcoKIW4uvAdBL1EUQgghA0EIIUS9MXvPCXvunbbWvOsH1n38DOs+IdaaduppL7Tu4P7PiFRGCHHzkYEghBACZCAIIYSoN7L2nLDhsxfZ937wj/brPzax/7jzbvv+D//RYnKWunORygghbj4yEIQQQoAMBCGEEPUGv76QXnrUvTzxL/77/2Nf+x//zR547hXLKK1w5yKVEULcfGQgCCGEABkIQggh6hV+gaHb2On2N3/9P+1bf/u/3IsUcw9URswrhGgYyEAQQggBMhCEEELUK5m7j1na9jL7t//v1/bvv/m9pe84Ypm7jkXMK4RoGMhAEEIIATIQhBBC1AtpJUfcew5mrttug1Pn2G/vusd+1+Q+G5I2x2LXl7hz5IlUVghxc5GBIIQQAmQgCCGECBzee5Cy9ZB1GjHBXmnXxdoPGW3dx013tAttc6xzzMQv8tYqL4S4uchAEEIIATIQhBBCBEr6znJLLNxnzTr3sjYfDbe4TaWWd7jKFp00R96hszZr405r3X+Yvd6ltyUV7be0HeUR6xJC3BxkIAghhAAZCEIIIQKD/wMydh2zdz4cZB2Hj3NmQc7+MzYie7G1HTQyxCiLyV1qOQfOWG7oXIehY6xV3yHunQj6/0OIhoMMBCGEECADQQghRGBk7jpuw7MWWdNOPd3LE+Gt3gPsR//8Y/vW3/y145//5V+sVZ9BlrXnuGXsqrCmHbtbTPYSvVhRiAaEDAQhhBAgA0EIIURgZJRW2HsfjbD+8Zk2r/y89Z4cZ3//v2+z/33bd+2HP/yhg+3v/cM/2AfTkmze0fPWb1a6i07ATIhUpxCi/pGBIIQQAmQgCCGECIbQv//8H/B6l142dVWhEyD3Pfmsfefb37poHni+861v2QPPvmjZ+07Z5BVbrHmX3pZWUhaqR/+HCNEQkIEghBACZCAIIYQIBP/v/6sdulrcxlL3+MLv7mpit33n7y4xEG779rftP+/5k/spx9gNO+y19t1C5cucCVG7XiFE/SMDQQghBMhAEEIIEQyhf/+JInij2wc2celGy95/yp5o+qZ951t/az/84Q8umgc/+MEPXATC02++416mOGHJenuj+4eWtuNIqB79HyJEQ0AGghBCCJCBIIQQIjD4BYYOw8ZZr8lx7v0Gw7MW2v/96b/ad7/9LfvB97/vYPv2n/3cvTiRPD0nxlqnmPEuYiFSnUKI+kcGghBCCJCBIIQQIjB4ieL4RWvtpTadLLFon+UePGN9Y9PtjvsesO9973v2/e9/z+584GH3ksXcg5WWULA3lLeji0KgbKQ6hRD1jwwEIYQQIANBCCFEoPBegy6jJtub3T+0jNKjNqes2uI277JhmQttWNZCi9+8O3TsnKXvLHePO3QdPdWViVSXEOLmIANBCCEEBGIgjBox3O55ubml7T5hCVsPWnzxASGEEI2RogOh/wcOW1LJEXv3o5H2YruuNix3qaWE9udVXLB5Ry+EtstsWPYSe7FtV2s9aJQll5SHyhxyZSPWKYSod9J2H7cuExPsjgfutOX7l9uqw2tsxYGVQgghGhkbTm60zkO7WPPmzT9X/1dPVzUQRgwbak82a2Ebj5+z1YdO2KqDx4UQQjRWDhy3NYdP2rqjVTYrb6F17dPf2nwwwFr1GWzvhmjzQX/rFjo2a85iW1dRZatDeSkTsS4hxE1h4/EqGxaXZk0evMe2HdtmO0+V2vbjJUIIIRoZ+88dsL6j+lmzps0+V/9XT1c1EHbt2mXFxcWf7ykpKSkpKX057d+717Zs3ODYv2/v50eVlJQacqqoOGrr16//fE9JSUlJqbGmAwcO2JbNWz7fu3q6qoGgpKSkpKSkpKSkpKSkpKSkJANBSUlJSUlJSUlJSUlJSUnpqkkGgpKSkpKSkpKSkpKSkpKS0lWTDAQlJSUlJSUlJSUlJSUlJaWrJhkISkpKSkpKSkpKSkpKSkpKV0lm/z/gma32rNVzDwAAAABJRU5ErkJggg==;imageBackground=#c8e6ca;fillColor=#c5e8c7;" vertex="1" parent="1">
          <mxGeometry x="10" y="11" width="1040" height="568" as="geometry" />
        </mxCell>
        <mxCell id="u-y9tC-vbmlnL2tTpQ4g-2" value="" style="rounded=0;whiteSpace=wrap;html=1;strokeColor=none;fillColor=#c8e6ca;" vertex="1" parent="1">
          <mxGeometry x="840" y="497" width="90" height="30" as="geometry" />
        </mxCell>
        <mxCell id="u-y9tC-vbmlnL2tTpQ4g-6" value="" style="endArrow=none;html=1;rounded=0;" edge="1" parent="1">
          <mxGeometry width="50" height="50" relative="1" as="geometry">
            <mxPoint x="570" y="680" as="sourcePoint" />
            <mxPoint x="570" y="700" as="targetPoint" />
          </mxGeometry>
        </mxCell>
        <mxCell id="u-y9tC-vbmlnL2tTpQ4g-7" value="" style="endArrow=none;html=1;rounded=0;exitX=-0.005;exitY=0.395;exitDx=0;exitDy=0;exitPerimeter=0;strokeColor=#728274;" edge="1" parent="1" source="u-y9tC-vbmlnL2tTpQ4g-2">
          <mxGeometry width="50" height="50" relative="1" as="geometry">
            <mxPoint x="840" y="510" as="sourcePoint" />
            <mxPoint x="840" y="530" as="targetPoint" />
          </mxGeometry>
        </mxCell>
        <mxCell id="u-y9tC-vbmlnL2tTpQ4g-8" value="" style="rounded=0;whiteSpace=wrap;html=1;strokeColor=none;fillColor=#c8e6ca;" vertex="1" parent="1">
          <mxGeometry x="970" y="531" width="30" height="17" as="geometry" />
        </mxCell>
        <mxCell id="u-y9tC-vbmlnL2tTpQ4g-12" value="" style="endArrow=none;html=1;rounded=0;entryX=1;entryY=0.5;entryDx=0;entryDy=0;strokeColor=#5D5E5D;" edge="1" parent="1">
          <mxGeometry width="50" height="50" relative="1" as="geometry">
            <mxPoint x="970" y="541.26" as="sourcePoint" />
            <mxPoint x="1000" y="541.5" as="targetPoint" />
          </mxGeometry>
        </mxCell>
        <mxCell id="u-y9tC-vbmlnL2tTpQ4g-14" value="" style="endArrow=none;html=1;rounded=0;strokeColor=#5D5E5D;" edge="1" parent="1">
          <mxGeometry width="50" height="50" relative="1" as="geometry">
            <mxPoint x="983.96" y="541" as="sourcePoint" />
            <mxPoint x="983.96" y="551" as="targetPoint" />
          </mxGeometry>
        </mxCell>
      </root>
    </mxGraphModel>
  </diagram>
</mxfile>
